{"glyphs":{"0":{"ha":815,"x_min":68,"x_max":743,"o":"m 315 -14 q 213 10 258 -14 q 135 76 167 33 q 85 177 103 118 q 68 306 68 236 q 103 509 68 414 q 198 675 139 604 q 334 788 257 746 q 494 829 411 829 q 599 806 553 829 q 676 740 644 782 q 726 638 708 697 q 743 510 743 579 q 708 306 743 401 q 613 140 672 211 q 477 27 554 68 q 315 -14 400 -14 m 322 14 q 473 52 401 14 q 599 157 544 90 q 684 314 653 224 q 715 508 715 404 q 700 628 715 574 q 656 720 685 682 q 584 780 626 758 q 489 801 542 801 q 338 763 410 801 q 213 657 267 724 q 127 500 158 590 q 96 306 96 410 q 111 187 96 240 q 156 94 126 133 q 226 35 185 56 q 322 14 268 14 z "},"1":{"ha":490,"x_min":3,"x_max":392,"o":"m 8 28 l 196 28 l 349 747 q 305 710 335 731 q 240 672 275 690 q 168 640 204 653 q 106 628 132 628 l 113 661 q 191 681 149 661 q 270 725 233 701 q 332 769 307 749 q 358 793 357 790 l 386 793 l 224 28 l 392 28 l 386 0 l 3 0 l 8 28 z "},"2":{"ha":663,"x_min":-10,"x_max":624,"o":"m -10 0 q 11 72 -4 25 q 60 173 26 119 q 149 278 93 226 q 293 365 206 331 q 433 426 376 399 q 526 483 490 454 q 578 547 563 513 q 594 629 594 582 q 584 684 594 657 q 552 732 574 711 q 497 766 531 753 q 417 779 464 779 q 325 763 368 779 q 249 725 282 746 q 194 685 215 704 q 165 658 172 665 l 147 675 q 169 696 147 675 q 227 741 190 717 q 314 786 264 765 q 422 807 364 807 q 512 792 474 807 q 575 753 550 778 q 612 698 600 729 q 624 633 624 667 q 606 541 624 579 q 550 470 589 503 q 449 407 511 438 q 299 339 388 376 q 173 262 224 307 q 90 171 122 217 q 43 86 58 125 q 24 28 28 47 l 513 28 l 506 0 l -10 0 z "},"3":{"ha":681,"x_min":-35,"x_max":632,"o":"m 203 -204 q 40 -156 104 -204 q -35 -26 -24 -108 l -7 -17 q 60 -133 0 -89 q 211 -176 119 -176 q 335 -154 278 -176 q 433 -92 392 -132 q 497 2 474 -53 q 521 122 521 57 q 466 263 521 211 q 308 315 411 315 l 279 315 l 285 343 l 315 343 q 527 408 451 343 q 603 586 603 474 q 550 721 603 669 q 410 772 497 772 q 254 729 326 772 q 140 615 182 686 l 118 625 q 243 752 163 704 q 415 800 324 800 q 574 742 515 800 q 632 593 632 683 q 614 497 632 542 q 563 416 596 451 q 485 358 531 381 q 388 328 440 335 q 506 260 464 317 q 547 121 547 203 q 520 -9 547 50 q 446 -112 493 -68 q 336 -180 399 -156 q 203 -204 274 -204 z "},"4":{"ha":693,"x_min":-37,"x_max":618,"o":"m 443 100 l -37 100 l -32 124 l 599 793 l 618 793 l 476 128 l 593 128 l 588 100 l 471 100 l 413 -176 l 385 -176 l 443 100 m 449 128 l 579 742 l 7 128 l 449 128 z "},"5":{"ha":725,"x_min":-32,"x_max":703,"o":"m 221 -207 q 54 -151 121 -207 q -32 -4 -12 -96 l -3 -4 q 78 -131 17 -83 q 226 -179 139 -179 q 357 -153 293 -179 q 470 -80 421 -126 q 549 31 519 -33 q 579 168 579 94 q 563 260 579 218 q 517 333 546 303 q 447 381 488 364 q 356 397 406 397 q 207 363 281 397 q 75 261 133 328 l 42 261 q 59 303 47 274 q 87 372 71 332 q 122 458 103 411 q 160 551 140 504 q 258 793 204 661 l 703 793 l 697 765 l 275 765 l 94 314 q 222 397 153 368 q 363 425 292 425 q 461 406 417 425 q 538 354 506 388 q 589 274 571 321 q 607 172 607 228 q 573 19 607 89 q 485 -100 539 -50 q 361 -178 431 -150 q 221 -207 292 -207 z "},"6":{"ha":807,"x_min":68,"x_max":774,"o":"m 329 -14 q 223 6 271 -14 q 140 65 175 26 q 87 158 106 103 q 68 281 68 213 q 103 544 68 415 q 201 772 138 672 q 351 933 264 872 q 546 993 439 993 q 703 938 642 993 q 774 789 765 883 l 746 779 q 726 855 742 821 q 683 914 710 889 q 619 952 656 939 q 540 965 583 965 q 394 926 463 965 q 269 815 325 886 q 171 645 213 744 q 107 428 129 546 q 173 525 133 482 q 262 598 213 568 q 366 644 311 628 q 478 660 421 660 q 582 638 535 660 q 663 579 629 617 q 715 492 696 542 q 733 383 733 442 q 699 231 733 303 q 608 104 665 158 q 478 18 551 50 q 329 -14 406 -14 m 338 14 q 472 43 406 14 q 590 122 538 72 q 673 238 642 172 q 704 375 704 303 q 687 475 704 428 q 638 557 669 522 q 562 612 606 592 q 467 632 518 632 q 331 602 397 632 q 214 522 265 572 q 131 406 163 472 q 99 269 99 340 q 116 170 99 217 q 165 89 133 124 q 241 34 197 54 q 338 14 285 14 z "},"7":{"ha":708,"x_min":29,"x_max":751,"o":"m 699 782 l 138 782 l 143 810 l 751 810 l 61 -176 l 29 -176 l 699 782 z "},"8":{"ha":774,"x_min":35,"x_max":742,"o":"m 292 -10 q 181 9 229 -10 q 101 59 133 28 q 51 133 68 90 q 35 221 35 175 q 60 331 35 281 q 126 422 86 382 q 215 489 165 461 q 313 529 264 517 q 214 600 254 553 q 174 715 174 647 q 204 830 174 779 q 283 915 235 881 q 391 968 332 950 q 508 986 450 986 q 597 973 554 986 q 671 935 639 960 q 722 874 703 910 q 742 790 742 838 q 722 699 742 740 q 669 626 701 658 q 594 569 636 593 q 507 529 551 544 q 627 447 581 506 q 674 306 674 388 q 640 176 674 235 q 553 77 607 118 q 431 13 500 36 q 292 -10 363 -10 m 303 14 q 420 35 360 14 q 531 94 481 56 q 613 185 581 132 q 646 304 646 239 q 625 393 646 354 q 570 459 604 432 q 493 501 536 486 q 406 515 450 515 q 288 494 349 515 q 178 435 228 474 q 95 342 128 396 q 63 224 63 289 q 83 135 63 174 q 138 69 104 96 q 215 28 172 42 q 303 14 258 14 m 413 543 q 513 559 460 543 q 611 606 567 575 q 685 683 656 638 q 714 785 714 728 q 697 858 714 826 q 650 913 679 890 q 582 947 621 935 q 500 958 543 958 q 393 942 446 958 q 297 894 340 925 q 228 818 254 863 q 201 718 201 774 q 220 644 201 676 q 269 589 239 611 q 336 555 299 567 q 413 543 374 543 z "},"9":{"ha":785,"x_min":13,"x_max":718,"o":"m 240 -217 q 83 -162 144 -217 q 13 -12 21 -107 l 40 -3 q 60 -78 44 -44 q 103 -137 76 -112 q 167 -176 131 -162 q 246 -189 203 -189 q 392 -149 322 -189 q 517 -39 461 -110 q 615 131 574 32 q 679 349 657 229 q 613 251 653 294 q 524 178 572 208 q 419 133 475 149 q 308 117 364 117 q 204 138 251 117 q 124 197 157 160 q 72 285 90 235 q 53 393 53 335 q 87 546 53 474 q 178 672 121 618 q 307 758 235 726 q 457 790 379 790 q 563 770 515 790 q 646 712 611 750 q 699 619 681 674 q 718 496 718 564 q 683 233 718 361 q 585 4 649 104 q 434 -156 522 -96 q 240 -217 346 -217 m 319 144 q 454 174 388 144 q 572 254 521 204 q 656 370 624 304 q 688 507 688 436 q 670 606 688 560 q 621 688 653 653 q 545 742 589 722 q 449 763 501 763 q 314 733 379 763 q 197 654 249 704 q 113 539 144 604 q 82 401 82 474 q 99 301 82 349 q 149 219 117 254 q 224 165 181 185 q 319 144 267 144 z "},"A":{"ha":899,"x_min":-54,"x_max":786,"o":"m 564 986 l 589 986 l 786 0 l 756 0 l 685 353 l 197 353 l -24 0 l -54 0 l 564 986 m 679 381 l 568 946 l 214 381 l 679 381 z "},"Æ":{"ha":1279,"x_min":-117,"x_max":1321,"o":"m 710 986 l 1321 986 l 1314 958 l 739 958 l 646 518 l 1150 518 l 1143 490 l 639 490 l 542 28 l 1128 28 l 1122 0 l 507 0 l 582 353 l 213 353 l -82 0 l -117 0 l 710 986 m 589 381 l 707 942 l 235 381 l 589 381 z "},"Ǽ":{"ha":1279,"x_min":-117,"x_max":1321,"o":"m 710 986 l 1321 986 l 1314 958 l 739 958 l 646 518 l 1150 518 l 1143 490 l 639 490 l 542 28 l 1128 28 l 1122 0 l 507 0 l 582 353 l 213 353 l -82 0 l -117 0 l 710 986 m 589 381 l 707 942 l 235 381 l 589 381 m 739 1157 l 721 1174 l 826 1275 l 872 1275 l 739 1157 z "},"´":{"ha":261,"x_min":56,"x_max":207,"o":"m 74 896 l 56 913 l 161 1014 l 207 1014 l 74 896 z "},"Á":{"ha":899,"x_min":-54,"x_max":786,"o":"m 564 986 l 589 986 l 786 0 l 756 0 l 685 353 l 197 353 l -24 0 l -54 0 l 564 986 m 679 381 l 568 946 l 214 381 l 679 381 m 594 1157 l 576 1174 l 682 1275 l 728 1275 l 594 1157 z "},"Ă":{"ha":899,"x_min":-54,"x_max":786,"o":"m 564 986 l 589 986 l 786 0 l 756 0 l 685 353 l 197 353 l -24 0 l -54 0 l 564 986 m 679 381 l 568 946 l 214 381 l 679 381 m 608 1192 q 663 1216 636 1192 q 700 1275 689 1240 l 725 1275 q 708 1235 721 1254 q 679 1201 696 1215 q 643 1177 663 1186 q 604 1168 624 1168 q 547 1193 569 1168 q 525 1254 525 1218 q 528 1275 525 1261 l 554 1275 q 553 1260 553 1269 q 569 1212 553 1232 q 608 1192 585 1192 z "},"˘":{"ha":328,"x_min":64,"x_max":264,"o":"m 147 931 q 201 955 175 931 q 239 1014 228 979 l 264 1014 q 247 974 260 993 q 218 940 235 954 q 182 916 201 925 q 143 907 163 907 q 86 932 108 907 q 64 993 64 957 q 67 1014 64 1000 l 93 1014 q 92 999 92 1008 q 108 951 92 971 q 147 931 124 931 z "},"Â":{"ha":899,"x_min":-54,"x_max":786,"o":"m 564 986 l 589 986 l 786 0 l 756 0 l 685 353 l 197 353 l -24 0 l -54 0 l 564 986 m 679 381 l 568 946 l 214 381 l 679 381 m 481 1172 l 625 1275 l 647 1275 l 749 1172 l 724 1156 l 629 1243 l 499 1156 l 481 1172 z "},"ˆ":{"ha":400,"x_min":67,"x_max":335,"o":"m 67 911 l 211 1014 l 233 1014 l 335 911 l 310 894 l 215 982 l 85 894 l 67 911 z "},"Ä":{"ha":899,"x_min":-54,"x_max":786,"o":"m 564 986 l 589 986 l 786 0 l 756 0 l 685 353 l 197 353 l -24 0 l -54 0 l 564 986 m 679 381 l 568 946 l 214 381 l 679 381 m 519 1168 l 542 1275 l 569 1275 l 547 1168 l 519 1168 m 674 1168 l 696 1275 l 724 1275 l 701 1168 l 674 1168 z "},"¨":{"ha":315,"x_min":56,"x_max":260,"o":"m 56 907 l 78 1014 l 106 1014 l 83 907 l 56 907 m 210 907 l 232 1014 l 260 1014 l 238 907 l 210 907 z "},"À":{"ha":899,"x_min":-54,"x_max":786,"o":"m 564 986 l 589 986 l 786 0 l 756 0 l 685 353 l 197 353 l -24 0 l -54 0 l 564 986 m 679 381 l 568 946 l 214 381 l 679 381 m 536 1275 l 581 1275 l 644 1174 l 619 1157 l 536 1275 z "},"`":{"ha":263,"x_min":76,"x_max":185,"o":"m 76 1014 l 121 1014 l 185 913 l 160 896 l 76 1014 z "},"Ā":{"ha":899,"x_min":-54,"x_max":810,"o":"m 564 986 l 589 986 l 786 0 l 756 0 l 685 353 l 197 353 l -24 0 l -54 0 l 564 986 m 679 381 l 568 946 l 214 381 l 679 381 m 435 1214 l 440 1242 l 810 1242 l 804 1214 l 435 1214 z "},"¯":{"ha":501,"x_min":64,"x_max":439,"o":"m 64 953 l 69 981 l 439 981 l 433 953 l 64 953 z "},"Ą":{"ha":899,"x_min":-54,"x_max":786,"o":"m 674 -221 q 634 -195 647 -214 q 621 -153 621 -176 q 650 -78 621 -114 q 754 6 679 -43 l 685 353 l 197 353 l -24 0 l -54 0 l 564 986 l 589 986 l 786 0 q 719 -45 746 -25 q 676 -82 692 -65 q 655 -114 661 -99 q 649 -146 649 -129 q 696 -197 649 -186 l 674 -221 m 679 381 l 568 946 l 214 381 l 679 381 z "},"˛":{"ha":268,"x_min":32,"x_max":197,"o":"m 85 -221 q 45 -195 58 -214 q 32 -153 32 -176 q 65 -74 32 -112 q 185 19 99 -36 l 197 0 q 130 -45 157 -25 q 88 -82 103 -65 q 66 -114 72 -99 q 60 -146 60 -129 q 107 -197 60 -187 l 85 -221 z "},"Å":{"ha":899,"x_min":-54,"x_max":786,"o":"m 564 986 l 589 986 l 786 0 l 756 0 l 685 353 l 197 353 l -24 0 l -54 0 l 564 986 m 679 381 l 568 946 l 214 381 l 679 381 m 540 1181 q 548 1217 540 1200 q 569 1247 556 1235 q 599 1267 582 1260 q 635 1275 617 1275 q 678 1257 663 1275 q 694 1211 694 1239 q 687 1174 694 1192 q 666 1144 679 1157 q 635 1124 653 1132 q 600 1117 618 1117 q 556 1135 572 1117 q 540 1181 540 1153 m 629 1253 q 583 1234 604 1253 q 563 1185 563 1215 q 574 1152 563 1165 q 606 1139 586 1139 q 651 1158 628 1139 q 674 1207 674 1178 q 661 1240 674 1228 q 629 1253 649 1253 z "},"˚":{"ha":314,"x_min":81,"x_max":235,"o":"m 81 919 q 88 956 81 939 q 109 986 96 974 q 140 1006 122 999 q 175 1014 157 1014 q 219 996 203 1014 q 235 950 235 978 q 227 913 235 931 q 206 883 219 896 q 176 863 193 871 q 140 856 158 856 q 97 874 113 856 q 81 919 81 892 m 169 992 q 124 973 144 992 q 103 924 103 954 q 115 891 103 904 q 146 878 126 878 q 191 897 168 878 q 214 946 214 917 q 201 979 214 967 q 169 992 189 992 z "},"Ǻ":{"ha":900,"x_min":-54,"x_max":786,"o":"m 513 1028 q 520 1065 513 1047 q 541 1094 528 1082 q 572 1115 554 1107 q 607 1122 589 1122 q 651 1104 635 1122 q 667 1058 667 1086 q 645 999 667 1025 q 593 967 624 974 l 786 0 l 756 0 l 685 353 l 197 353 l -24 0 l -54 0 l 551 967 q 513 1028 513 981 m 679 381 l 568 946 l 214 381 l 679 381 m 601 1100 q 556 1081 576 1100 q 535 1032 535 1063 q 547 999 535 1013 q 578 986 558 986 q 623 1006 600 986 q 646 1054 646 1025 q 633 1088 646 1075 q 601 1100 621 1100 m 653 1157 l 635 1174 l 740 1275 l 786 1275 l 653 1157 z "},"Ã":{"ha":899,"x_min":-54,"x_max":817,"o":"m 564 986 l 589 986 l 786 0 l 756 0 l 685 353 l 197 353 l -24 0 l -54 0 l 564 986 m 679 381 l 568 946 l 214 381 l 679 381 m 690 1182 q 641 1190 661 1182 q 604 1208 621 1199 q 572 1226 588 1218 q 536 1235 557 1235 q 500 1226 515 1235 q 475 1205 485 1217 q 460 1182 465 1193 q 454 1168 456 1171 l 428 1168 q 434 1186 428 1171 q 453 1218 440 1201 q 489 1248 467 1235 q 544 1261 511 1261 q 588 1253 569 1261 q 622 1235 606 1244 q 656 1217 638 1225 q 699 1208 674 1208 q 743 1218 725 1208 q 772 1240 761 1228 q 786 1262 782 1251 q 790 1275 790 1272 l 817 1275 q 809 1256 815 1271 q 788 1224 803 1240 q 750 1194 774 1207 q 690 1182 726 1182 z "},"˜":{"ha":506,"x_min":58,"x_max":447,"o":"m 321 921 q 272 929 292 921 q 235 947 251 938 q 203 965 218 957 q 167 974 188 974 q 131 965 146 974 q 106 944 115 956 q 91 921 96 932 q 85 907 86 910 l 58 907 q 65 925 58 910 q 84 957 71 940 q 119 987 97 974 q 175 1000 142 1000 q 218 992 200 1000 q 252 974 236 983 q 286 956 268 964 q 329 947 304 947 q 374 957 356 947 q 402 978 392 967 q 417 1001 413 990 q 421 1014 421 1011 l 447 1014 q 440 994 446 1010 q 419 963 433 979 q 381 933 404 946 q 321 921 357 921 z "},"B":{"ha":872,"x_min":46,"x_max":838,"o":"m 256 986 l 671 986 q 744 969 713 986 q 796 924 775 951 q 827 860 817 896 q 838 785 838 824 q 823 697 838 739 q 783 617 808 654 q 722 552 757 581 q 647 506 688 524 q 742 428 710 485 q 775 303 775 372 q 749 188 775 243 q 682 92 724 133 q 588 25 640 50 q 481 0 535 0 l 46 0 l 256 986 m 486 28 q 581 51 535 28 q 665 113 628 75 q 724 200 701 151 q 746 299 746 249 q 735 369 746 336 q 705 428 725 403 q 656 468 685 453 q 592 483 628 483 l 176 483 l 79 28 l 486 28 m 561 511 q 655 535 610 511 q 734 597 700 558 q 789 683 768 635 q 810 781 810 732 q 800 849 810 817 q 772 905 790 881 q 726 944 753 929 q 664 958 699 958 l 278 958 l 182 511 l 561 511 z "},"C":{"ha":921,"x_min":72,"x_max":926,"o":"m 411 -8 q 267 26 331 -8 q 161 119 204 61 q 95 253 118 178 q 72 407 72 328 q 114 611 72 507 q 231 800 156 715 q 408 938 306 885 q 631 992 510 992 q 743 976 693 992 q 830 931 793 960 q 891 863 867 903 q 926 776 915 824 l 899 768 q 854 860 883 822 q 788 920 825 897 q 708 953 751 943 q 619 964 664 964 q 412 913 507 964 q 247 782 317 863 q 139 602 178 701 q 100 407 100 503 q 123 258 100 328 q 188 135 146 188 q 289 51 229 82 q 422 19 349 19 q 519 32 468 19 q 622 69 571 44 q 719 134 672 94 q 806 228 767 174 l 831 221 q 744 122 794 165 q 638 50 694 79 q 524 6 582 21 q 411 -8 465 -8 z "},"\r":{"ha":0,"x_min":0,"x_max":0,"o":""},"Ć":{"ha":921,"x_min":72,"x_max":926,"o":"m 411 -8 q 267 26 331 -8 q 161 119 204 61 q 95 253 118 178 q 72 407 72 328 q 114 611 72 507 q 231 800 156 715 q 408 938 306 885 q 631 992 510 992 q 743 976 693 992 q 830 931 793 960 q 891 863 867 903 q 926 776 915 824 l 899 768 q 854 860 883 822 q 788 920 825 897 q 708 953 751 943 q 619 964 664 964 q 412 913 507 964 q 247 782 317 863 q 139 602 178 701 q 100 407 100 503 q 123 258 100 328 q 188 135 146 188 q 289 51 229 82 q 422 19 349 19 q 519 32 468 19 q 622 69 571 44 q 719 134 672 94 q 806 228 767 174 l 831 221 q 744 122 794 165 q 638 50 694 79 q 524 6 582 21 q 411 -8 465 -8 m 658 1157 l 640 1174 l 746 1275 l 792 1275 l 658 1157 z "},"Č":{"ha":921,"x_min":72,"x_max":926,"o":"m 411 -8 q 267 26 331 -8 q 161 119 204 61 q 95 253 118 178 q 72 407 72 328 q 114 611 72 507 q 231 800 156 715 q 408 938 306 885 q 631 992 510 992 q 743 976 693 992 q 830 931 793 960 q 891 863 867 903 q 926 776 915 824 l 899 768 q 854 860 883 822 q 788 920 825 897 q 708 953 751 943 q 619 964 664 964 q 412 913 507 964 q 247 782 317 863 q 139 602 178 701 q 100 407 100 503 q 123 258 100 328 q 188 135 146 188 q 289 51 229 82 q 422 19 349 19 q 519 32 468 19 q 622 69 571 44 q 719 134 672 94 q 806 228 767 174 l 831 221 q 744 122 794 165 q 638 50 694 79 q 524 6 582 21 q 411 -8 465 -8 m 551 1258 l 576 1275 l 671 1188 l 801 1275 l 819 1258 l 675 1156 l 653 1156 l 551 1258 z "},"ˇ":{"ha":400,"x_min":67,"x_max":335,"o":"m 67 997 l 92 1014 l 186 926 l 317 1014 l 335 997 l 190 894 l 168 894 l 67 997 z "},"Ç":{"ha":917,"x_min":68,"x_max":922,"o":"m 276 -174 q 324 -191 296 -183 q 386 -199 353 -199 q 476 -133 476 -199 q 461 -102 476 -111 q 422 -93 446 -93 q 363 -101 394 -93 q 311 -115 331 -108 l 392 -7 q 254 32 314 -4 q 153 125 194 68 q 90 256 111 182 q 68 407 68 329 q 110 611 68 507 q 226 800 151 715 q 403 938 301 885 q 626 992 506 992 q 739 976 689 992 q 826 931 789 960 q 887 863 863 903 q 922 776 911 824 l 894 768 q 850 860 879 822 q 784 920 821 897 q 703 953 747 943 q 615 964 660 964 q 408 913 503 964 q 243 782 313 863 q 135 602 174 701 q 96 407 96 503 q 119 258 96 328 q 183 135 142 188 q 285 51 225 82 q 418 19 344 19 q 515 32 464 19 q 617 69 567 44 q 715 134 668 94 q 801 228 763 174 l 826 221 q 744 126 792 167 q 642 56 696 85 q 533 10 589 26 q 424 -7 476 -6 l 369 -79 q 401 -72 385 -74 q 428 -71 417 -71 q 503 -129 503 -71 q 469 -201 503 -178 q 376 -225 435 -225 q 312 -217 342 -225 q 258 -199 282 -210 l 276 -174 z "},"¸":{"ha":332,"x_min":-12,"x_max":232,"o":"m 6 -174 q 53 -191 25 -183 q 115 -199 82 -199 q 206 -133 206 -199 q 190 -102 206 -111 q 151 -93 175 -93 q 92 -101 124 -93 q 40 -115 60 -108 l 139 15 l 160 0 l 99 -79 q 130 -72 114 -74 q 157 -71 146 -71 q 232 -129 232 -71 q 198 -201 232 -178 q 106 -225 164 -225 q 41 -217 71 -225 q -12 -199 11 -210 l 6 -174 z "},"Ĉ":{"ha":921,"x_min":72,"x_max":926,"o":"m 411 -8 q 267 26 331 -8 q 161 119 204 61 q 95 253 118 178 q 72 407 72 328 q 114 611 72 507 q 231 800 156 715 q 408 938 306 885 q 631 992 510 992 q 743 976 693 992 q 830 931 793 960 q 891 863 867 903 q 926 776 915 824 l 899 768 q 854 860 883 822 q 788 920 825 897 q 708 953 751 943 q 619 964 664 964 q 412 913 507 964 q 247 782 317 863 q 139 602 178 701 q 100 407 100 503 q 123 258 100 328 q 188 135 146 188 q 289 51 229 82 q 422 19 349 19 q 519 32 468 19 q 622 69 571 44 q 719 134 672 94 q 806 228 767 174 l 831 221 q 744 122 794 165 q 638 50 694 79 q 524 6 582 21 q 411 -8 465 -8 m 544 1172 l 689 1275 l 711 1275 l 813 1172 l 788 1156 l 693 1243 l 563 1156 l 544 1172 z "},"Ċ":{"ha":921,"x_min":72,"x_max":926,"o":"m 411 -8 q 267 26 331 -8 q 161 119 204 61 q 95 253 118 178 q 72 407 72 328 q 114 611 72 507 q 231 800 156 715 q 408 938 306 885 q 631 992 510 992 q 743 976 693 992 q 830 931 793 960 q 891 863 867 903 q 926 776 915 824 l 899 768 q 854 860 883 822 q 788 920 825 897 q 708 953 751 943 q 619 964 664 964 q 412 913 507 964 q 247 782 317 863 q 139 602 178 701 q 100 407 100 503 q 123 258 100 328 q 188 135 146 188 q 289 51 229 82 q 422 19 349 19 q 519 32 468 19 q 622 69 571 44 q 719 134 672 94 q 806 228 767 174 l 831 221 q 744 122 794 165 q 638 50 694 79 q 524 6 582 21 q 411 -8 465 -8 m 664 1168 l 686 1275 l 714 1275 l 692 1168 l 664 1168 z "},"˙":{"ha":158,"x_min":54,"x_max":104,"o":"m 54 907 l 76 1014 l 104 1014 l 82 907 l 54 907 z "},"D":{"ha":950,"x_min":46,"x_max":907,"o":"m 256 986 l 557 986 q 713 957 647 986 q 822 877 779 928 q 886 758 865 826 q 907 611 907 690 q 865 367 907 479 q 749 174 824 256 q 571 47 674 93 q 347 0 468 0 l 46 0 l 256 986 m 353 28 q 574 75 476 28 q 740 202 672 122 q 843 386 807 282 q 879 604 879 490 q 858 747 879 682 q 797 859 838 813 q 694 932 756 906 q 551 958 632 958 l 278 958 l 79 28 l 353 28 z "},"Ď":{"ha":950,"x_min":46,"x_max":907,"o":"m 256 986 l 557 986 q 713 957 647 986 q 822 877 779 928 q 886 758 865 826 q 907 611 907 690 q 865 367 907 479 q 749 174 824 256 q 571 47 674 93 q 347 0 468 0 l 46 0 l 256 986 m 353 28 q 574 75 476 28 q 740 202 672 122 q 843 386 807 282 q 879 604 879 490 q 858 747 879 682 q 797 859 838 813 q 694 932 756 906 q 551 958 632 958 l 278 958 l 79 28 l 353 28 m 506 1258 l 531 1275 l 625 1188 l 756 1275 l 774 1258 l 629 1156 l 607 1156 l 506 1258 z "},"Đ":{"ha":960,"x_min":56,"x_max":917,"o":"m 71 510 l 164 510 l 265 986 l 567 986 q 723 957 657 986 q 832 877 789 928 q 896 758 875 826 q 917 611 917 690 q 875 367 917 479 q 758 174 833 256 q 581 47 683 93 q 357 0 478 0 l 56 0 l 158 482 l 65 482 l 71 510 m 363 28 q 584 75 486 28 q 749 202 682 122 q 853 386 817 282 q 889 604 889 490 q 868 747 889 682 q 806 859 847 813 q 703 932 765 906 q 561 958 642 958 l 288 958 l 192 510 l 444 510 l 439 482 l 185 482 l 89 28 l 363 28 z "},"E":{"ha":817,"x_min":46,"x_max":858,"o":"m 256 986 l 858 986 l 853 958 l 278 958 l 183 518 l 688 518 l 682 490 l 178 490 l 79 28 l 667 28 l 661 0 l 46 0 l 256 986 z "},"É":{"ha":817,"x_min":46,"x_max":858,"o":"m 256 986 l 858 986 l 853 958 l 278 958 l 183 518 l 688 518 l 682 490 l 178 490 l 79 28 l 667 28 l 661 0 l 46 0 l 256 986 m 553 1157 l 535 1174 l 640 1275 l 686 1275 l 553 1157 z "},"Ĕ":{"ha":817,"x_min":46,"x_max":858,"o":"m 256 986 l 858 986 l 853 958 l 278 958 l 183 518 l 688 518 l 682 490 l 178 490 l 79 28 l 667 28 l 661 0 l 46 0 l 256 986 m 596 1192 q 650 1216 624 1192 q 688 1275 676 1240 l 713 1275 q 696 1235 708 1254 q 667 1201 683 1215 q 631 1177 650 1186 q 592 1168 611 1168 q 535 1193 557 1168 q 513 1254 513 1218 q 515 1275 513 1261 l 542 1275 q 540 1260 540 1269 q 556 1212 540 1232 q 596 1192 572 1192 z "},"Ě":{"ha":817,"x_min":46,"x_max":858,"o":"m 256 986 l 858 986 l 853 958 l 278 958 l 183 518 l 688 518 l 682 490 l 178 490 l 79 28 l 667 28 l 661 0 l 46 0 l 256 986 m 472 1258 l 497 1275 l 592 1188 l 722 1275 l 740 1258 l 596 1156 l 574 1156 l 472 1258 z "},"Ê":{"ha":817,"x_min":46,"x_max":858,"o":"m 256 986 l 858 986 l 853 958 l 278 958 l 183 518 l 688 518 l 682 490 l 178 490 l 79 28 l 667 28 l 661 0 l 46 0 l 256 986 m 469 1172 l 614 1275 l 636 1275 l 738 1172 l 713 1156 l 618 1243 l 488 1156 l 469 1172 z "},"Ë":{"ha":817,"x_min":46,"x_max":858,"o":"m 256 986 l 858 986 l 853 958 l 278 958 l 183 518 l 688 518 l 682 490 l 178 490 l 79 28 l 667 28 l 661 0 l 46 0 l 256 986 m 501 1168 l 524 1275 l 551 1275 l 529 1168 l 501 1168 m 656 1168 l 678 1275 l 706 1275 l 683 1168 l 656 1168 z "},"Ė":{"ha":817,"x_min":46,"x_max":858,"o":"m 256 986 l 858 986 l 853 958 l 278 958 l 183 518 l 688 518 l 682 490 l 178 490 l 79 28 l 667 28 l 661 0 l 46 0 l 256 986 m 588 1168 l 610 1275 l 638 1275 l 615 1168 l 588 1168 z "},"È":{"ha":817,"x_min":46,"x_max":858,"o":"m 256 986 l 858 986 l 853 958 l 278 958 l 183 518 l 688 518 l 682 490 l 178 490 l 79 28 l 667 28 l 661 0 l 46 0 l 256 986 m 511 1275 l 556 1275 l 619 1174 l 594 1157 l 511 1275 z "},"Ē":{"ha":817,"x_min":46,"x_max":858,"o":"m 256 986 l 858 986 l 853 958 l 278 958 l 183 518 l 688 518 l 682 490 l 178 490 l 79 28 l 667 28 l 661 0 l 46 0 l 256 986 m 419 1214 l 425 1242 l 794 1242 l 789 1214 l 419 1214 z "},"Ŋ":{"ha":1033,"x_min":46,"x_max":1018,"o":"m 582 -236 q 512 -226 543 -236 q 460 -189 481 -217 l 485 -172 q 532 -201 504 -194 q 588 -208 560 -208 q 644 -196 614 -208 q 699 -162 674 -183 q 744 -112 725 -142 q 771 -50 764 -83 l 781 -6 l 272 932 l 74 0 l 46 0 l 256 986 l 276 986 l 789 40 l 990 985 l 1018 985 l 799 -50 q 767 -124 790 -90 q 713 -183 743 -158 q 647 -222 682 -208 q 582 -236 613 -236 z "},"Ę":{"ha":817,"x_min":46,"x_max":858,"o":"m 256 986 l 858 986 l 853 958 l 278 958 l 183 518 l 688 518 l 682 490 l 178 490 l 79 28 l 667 28 l 661 0 l 386 0 q 319 -45 346 -25 q 276 -82 292 -65 q 255 -114 261 -99 q 249 -146 249 -129 q 296 -197 249 -186 l 274 -221 q 234 -195 247 -214 q 221 -153 221 -176 q 248 -81 221 -115 q 344 0 275 -47 l 46 0 l 256 986 z "},"Ð":{"ha":960,"x_min":56,"x_max":917,"o":"m 71 510 l 164 510 l 265 986 l 567 986 q 723 957 657 986 q 832 877 789 928 q 896 758 875 826 q 917 611 917 690 q 875 367 917 479 q 758 174 833 256 q 581 47 683 93 q 357 0 478 0 l 56 0 l 158 482 l 65 482 l 71 510 m 363 28 q 584 75 486 28 q 749 202 682 122 q 853 386 817 282 q 889 604 889 490 q 868 747 889 682 q 806 859 847 813 q 703 932 765 906 q 561 958 642 958 l 288 958 l 192 510 l 444 510 l 439 482 l 185 482 l 89 28 l 363 28 z "},"Ẽ":{"ha":817,"x_min":46,"x_max":858,"o":"m 256 986 l 858 986 l 853 958 l 278 958 l 183 518 l 688 518 l 682 490 l 178 490 l 79 28 l 667 28 l 661 0 l 46 0 l 256 986 m 664 1182 q 615 1190 635 1182 q 578 1208 594 1199 q 546 1226 561 1218 q 510 1235 531 1235 q 474 1226 489 1235 q 449 1205 458 1217 q 434 1182 439 1193 q 428 1168 429 1171 l 401 1168 q 408 1186 401 1171 q 427 1218 414 1201 q 463 1248 440 1235 q 518 1261 485 1261 q 561 1253 543 1261 q 595 1235 579 1244 q 629 1217 611 1225 q 672 1208 647 1208 q 717 1218 699 1208 q 745 1240 735 1228 q 760 1262 756 1251 q 764 1275 764 1272 l 790 1275 q 783 1256 789 1271 q 762 1224 776 1240 q 724 1194 747 1207 q 664 1182 700 1182 z "},"€":{"ha":1078,"x_min":42,"x_max":1057,"o":"m 225 557 q 300 719 250 640 q 419 858 350 797 q 576 955 489 918 q 761 992 663 992 q 874 976 824 992 q 960 931 924 960 q 1022 863 997 903 q 1057 776 1046 824 l 1029 768 q 985 860 1014 822 q 919 920 956 897 q 838 953 882 943 q 750 964 794 964 q 578 930 658 964 q 434 840 499 896 q 323 710 369 783 q 253 557 276 636 l 776 557 l 757 529 l 246 529 q 235 480 239 504 q 231 432 232 456 l 697 432 l 678 404 l 231 404 q 253 256 231 326 q 319 133 276 186 q 420 50 361 81 q 553 19 479 19 q 650 32 599 19 q 752 69 701 44 q 851 134 803 94 q 938 228 899 174 l 961 221 q 875 122 925 165 q 769 50 825 79 q 654 6 713 21 q 542 -8 596 -8 q 398 26 461 -8 q 292 118 335 61 q 226 250 249 175 q 203 404 203 325 l 42 404 l 61 432 l 203 432 q 208 480 204 456 q 218 529 211 504 l 121 529 l 140 557 l 225 557 z "},"F":{"ha":817,"x_min":46,"x_max":858,"o":"m 256 986 l 858 986 l 853 958 l 278 958 l 185 519 l 675 519 l 669 492 l 178 492 l 74 0 l 46 0 l 256 986 z "},"G":{"ha":956,"x_min":72,"x_max":928,"o":"m 793 168 q 419 -7 610 -7 q 272 28 336 -7 q 163 122 207 64 q 95 253 118 179 q 72 406 72 328 q 117 618 72 513 q 238 807 163 724 q 411 942 313 890 q 617 993 510 993 q 742 977 689 993 q 833 933 796 961 q 892 865 869 904 q 928 778 915 825 l 900 769 q 794 919 868 874 q 610 965 719 965 q 411 915 504 965 q 249 783 318 864 q 140 603 181 703 q 100 407 100 504 q 123 259 100 329 q 188 136 146 189 q 291 52 231 83 q 425 21 351 21 q 609 65 517 21 q 801 207 701 110 l 851 442 l 632 442 l 638 469 l 885 469 l 785 0 l 757 0 l 793 168 z "},"Ğ":{"ha":956,"x_min":72,"x_max":928,"o":"m 793 168 q 419 -7 610 -7 q 272 28 336 -7 q 163 122 207 64 q 95 253 118 179 q 72 406 72 328 q 117 618 72 513 q 238 807 163 724 q 411 942 313 890 q 617 993 510 993 q 742 977 689 993 q 833 933 796 961 q 892 865 869 904 q 928 778 915 825 l 900 769 q 794 919 868 874 q 610 965 719 965 q 411 915 504 965 q 249 783 318 864 q 140 603 181 703 q 100 407 100 504 q 123 259 100 329 q 188 136 146 189 q 291 52 231 83 q 425 21 351 21 q 609 65 517 21 q 801 207 701 110 l 851 442 l 632 442 l 638 469 l 885 469 l 785 0 l 757 0 l 793 168 m 651 1192 q 706 1216 679 1192 q 743 1275 732 1240 l 768 1275 q 751 1235 764 1254 q 722 1201 739 1215 q 686 1177 706 1186 q 647 1168 667 1168 q 590 1193 613 1168 q 568 1254 568 1218 q 571 1275 568 1261 l 597 1275 q 596 1260 596 1269 q 612 1212 596 1232 q 651 1192 628 1192 z "},"Ĝ":{"ha":956,"x_min":72,"x_max":928,"o":"m 793 168 q 419 -7 610 -7 q 272 28 336 -7 q 163 122 207 64 q 95 253 118 179 q 72 406 72 328 q 117 618 72 513 q 238 807 163 724 q 411 942 313 890 q 617 993 510 993 q 742 977 689 993 q 833 933 796 961 q 892 865 869 904 q 928 778 915 825 l 900 769 q 794 919 868 874 q 610 965 719 965 q 411 915 504 965 q 249 783 318 864 q 140 603 181 703 q 100 407 100 504 q 123 259 100 329 q 188 136 146 189 q 291 52 231 83 q 425 21 351 21 q 609 65 517 21 q 801 207 701 110 l 851 442 l 632 442 l 638 469 l 885 469 l 785 0 l 757 0 l 793 168 m 521 1172 l 665 1275 l 688 1275 l 789 1172 l 764 1156 l 669 1243 l 539 1156 l 521 1172 z "},"Ģ":{"ha":956,"x_min":72,"x_max":928,"o":"m 793 168 q 419 -7 610 -7 q 272 28 336 -7 q 163 122 207 64 q 95 253 118 179 q 72 406 72 328 q 117 618 72 513 q 238 807 163 724 q 411 942 313 890 q 617 993 510 993 q 742 977 689 993 q 833 933 796 961 q 892 865 869 904 q 928 778 915 825 l 900 769 q 794 919 868 874 q 610 965 719 965 q 411 915 504 965 q 249 783 318 864 q 140 603 181 703 q 100 407 100 504 q 123 259 100 329 q 188 136 146 189 q 291 52 231 83 q 425 21 351 21 q 609 65 517 21 q 801 207 701 110 l 851 442 l 632 442 l 638 469 l 885 469 l 785 0 l 757 0 l 793 168 m 339 -232 l 369 -151 l 357 -151 l 375 -69 l 410 -69 l 393 -151 l 358 -232 l 339 -232 z "},"":{"ha":160,"x_min":21,"x_max":92,"o":"m 21 -232 l 51 -151 l 39 -151 l 57 -69 l 92 -69 l 75 -151 l 40 -232 l 21 -232 z "},"Ġ":{"ha":956,"x_min":72,"x_max":928,"o":"m 793 168 q 419 -7 610 -7 q 272 28 336 -7 q 163 122 207 64 q 95 253 118 179 q 72 406 72 328 q 117 618 72 513 q 238 807 163 724 q 411 942 313 890 q 617 993 510 993 q 742 977 689 993 q 833 933 796 961 q 892 865 869 904 q 928 778 915 825 l 900 769 q 794 919 868 874 q 610 965 719 965 q 411 915 504 965 q 249 783 318 864 q 140 603 181 703 q 100 407 100 504 q 123 259 100 329 q 188 136 146 189 q 291 52 231 83 q 425 21 351 21 q 609 65 517 21 q 801 207 701 110 l 851 442 l 632 442 l 638 469 l 885 469 l 785 0 l 757 0 l 793 168 m 642 1168 l 664 1275 l 692 1275 l 669 1168 l 642 1168 z "},"H":{"ha":974,"x_min":46,"x_max":960,"o":"m 256 986 l 283 986 l 183 518 l 832 518 l 932 986 l 960 986 l 750 0 l 722 0 l 826 490 l 178 490 l 74 0 l 46 0 l 256 986 z "},"Ħ":{"ha":985,"x_min":51,"x_max":990,"o":"m 156 797 l 221 797 l 261 986 l 289 986 l 249 797 l 897 797 l 938 986 l 965 986 l 925 797 l 990 797 l 985 769 l 919 769 l 756 0 l 728 0 l 832 490 l 183 490 l 79 0 l 51 0 l 215 769 l 149 769 l 156 797 m 838 518 l 890 769 l 242 769 l 189 518 l 838 518 z "},"Ĥ":{"ha":974,"x_min":46,"x_max":960,"o":"m 256 986 l 283 986 l 183 518 l 832 518 l 932 986 l 960 986 l 750 0 l 722 0 l 826 490 l 178 490 l 74 0 l 46 0 l 256 986 m 514 1172 l 658 1275 l 681 1275 l 782 1172 l 757 1156 l 663 1243 l 532 1156 l 514 1172 z "},"I":{"ha":297,"x_min":46,"x_max":283,"o":"m 256 985 l 283 985 l 74 0 l 46 0 l 256 985 z "},"Ĳ":{"ha":933,"x_min":46,"x_max":933,"o":"m 256 985 l 283 985 l 74 0 l 46 0 l 256 985 m 443 -15 q 253 46 325 -15 l 272 68 q 449 13 336 13 q 589 45 532 13 q 684 138 646 78 q 749 286 722 199 q 799 485 775 374 l 906 985 l 933 985 l 826 485 q 774 280 803 372 q 703 122 746 188 q 599 21 661 57 q 443 -15 536 -15 z "},"J":{"ha":636,"x_min":-44,"x_max":636,"o":"m 146 -15 q -44 46 28 -15 l -25 68 q 151 13 39 13 q 292 45 235 13 q 387 138 349 78 q 451 286 425 199 q 501 485 478 374 l 608 985 l 636 985 l 529 485 q 477 280 506 372 q 406 122 449 188 q 301 21 364 57 q 146 -15 239 -15 z "},"Í":{"ha":297,"x_min":46,"x_max":424,"o":"m 256 985 l 283 985 l 74 0 l 46 0 l 256 985 m 290 1157 l 272 1174 l 378 1275 l 424 1275 l 290 1157 z "},"Ĭ":{"ha":297,"x_min":46,"x_max":417,"o":"m 256 985 l 283 985 l 74 0 l 46 0 l 256 985 m 300 1192 q 354 1216 328 1192 q 392 1275 381 1240 l 417 1275 q 400 1235 413 1254 q 371 1201 388 1215 q 335 1177 354 1186 q 296 1168 315 1168 q 239 1193 261 1168 q 217 1254 217 1218 q 219 1275 217 1261 l 246 1275 q 244 1260 244 1269 q 260 1212 244 1232 q 300 1192 276 1192 z "},"Î":{"ha":297,"x_min":46,"x_max":443,"o":"m 256 985 l 283 985 l 74 0 l 46 0 l 256 985 m 175 1172 l 319 1275 l 342 1275 l 443 1172 l 418 1156 l 324 1243 l 193 1156 l 175 1172 z "},"Ï":{"ha":297,"x_min":46,"x_max":418,"o":"m 256 985 l 283 985 l 74 0 l 46 0 l 256 985 m 214 1168 l 236 1275 l 264 1275 l 242 1168 l 214 1168 m 368 1168 l 390 1275 l 418 1275 l 396 1168 l 368 1168 z "},"İ":{"ha":297,"x_min":46,"x_max":343,"o":"m 256 985 l 283 985 l 74 0 l 46 0 l 256 985 m 293 1168 l 315 1275 l 343 1275 l 321 1168 l 293 1168 z "},"Ì":{"ha":297,"x_min":46,"x_max":329,"o":"m 256 985 l 283 985 l 74 0 l 46 0 l 256 985 m 221 1275 l 265 1275 l 329 1174 l 304 1157 l 221 1275 z "},"Ī":{"ha":297,"x_min":46,"x_max":507,"o":"m 256 985 l 283 985 l 74 0 l 46 0 l 256 985 m 132 1214 l 138 1242 l 507 1242 l 501 1214 l 132 1214 z "},"Į":{"ha":299,"x_min":-90,"x_max":285,"o":"m -37 -221 q -77 -195 -64 -214 q -90 -153 -90 -176 q -83 -115 -90 -133 q -58 -76 -75 -96 q -15 -35 -42 -57 q 50 13 11 -14 l 257 985 l 285 985 l 75 0 q 8 -45 35 -25 q -35 -82 -19 -65 q -56 -114 -50 -99 q -62 -146 -62 -129 q -15 -197 -62 -187 l -37 -221 z "},"Ĩ":{"ha":297,"x_min":46,"x_max":507,"o":"m 256 985 l 283 985 l 74 0 l 46 0 l 256 985 m 381 1182 q 331 1190 351 1182 q 294 1208 311 1199 q 263 1226 278 1218 q 226 1235 247 1235 q 190 1226 206 1235 q 165 1205 175 1217 q 151 1182 156 1193 q 144 1168 146 1171 l 118 1168 q 124 1186 118 1171 q 144 1218 131 1201 q 179 1248 157 1235 q 235 1261 201 1261 q 278 1253 260 1261 q 312 1235 296 1244 q 346 1217 328 1225 q 389 1208 364 1208 q 433 1218 415 1208 q 462 1240 451 1228 q 476 1262 472 1251 q 481 1275 481 1272 l 507 1275 q 499 1256 506 1271 q 478 1224 493 1240 q 440 1194 464 1207 q 381 1182 417 1182 z "},"Ĵ":{"ha":636,"x_min":-44,"x_max":789,"o":"m 146 -15 q -44 46 28 -15 l -25 68 q 151 13 39 13 q 292 45 235 13 q 387 138 349 78 q 451 286 425 199 q 501 485 478 374 l 608 985 l 636 985 l 529 485 q 477 280 506 372 q 406 122 449 188 q 301 21 364 57 q 146 -15 239 -15 m 521 1172 l 665 1275 l 688 1275 l 789 1172 l 764 1156 l 669 1243 l 539 1156 l 521 1172 z "},"K":{"ha":821,"x_min":46,"x_max":918,"o":"m 256 985 l 283 985 l 147 346 l 878 986 l 918 986 l 426 556 l 726 0 l 690 0 l 401 536 l 139 307 l 74 0 l 46 0 l 256 985 z "},"Ķ":{"ha":821,"x_min":46,"x_max":918,"o":"m 256 985 l 283 985 l 147 346 l 878 986 l 918 986 l 426 556 l 726 0 l 690 0 l 401 536 l 139 307 l 74 0 l 46 0 l 256 985 m 258 -232 l 289 -151 l 276 -151 l 294 -69 l 329 -69 l 313 -151 l 278 -232 l 258 -232 z "},"L":{"ha":767,"x_min":46,"x_max":667,"o":"m 256 986 l 283 986 l 79 28 l 667 28 l 661 0 l 46 0 l 256 986 z "},"Ĺ":{"ha":767,"x_min":46,"x_max":667,"o":"m 256 986 l 283 986 l 79 28 l 667 28 l 661 0 l 46 0 l 256 986 m 296 1157 l 278 1174 l 383 1275 l 429 1275 l 296 1157 z "},"Ľ":{"ha":767,"x_min":46,"x_max":667,"o":"m 256 986 l 283 986 l 79 28 l 667 28 l 661 0 l 46 0 l 256 986 m 354 913 l 460 1014 l 506 1014 l 372 896 l 354 913 z "},"Ļ":{"ha":767,"x_min":46,"x_max":667,"o":"m 256 986 l 283 986 l 79 28 l 667 28 l 661 0 l 46 0 l 256 986 m 281 -232 l 311 -151 l 299 -151 l 317 -69 l 351 -69 l 335 -151 l 300 -232 l 281 -232 z "},"Ŀ":{"ha":767,"x_min":46,"x_max":667,"o":"m 256 986 l 283 986 l 79 28 l 667 28 l 661 0 l 46 0 l 256 986 m 464 500 l 489 615 l 515 615 l 492 500 l 464 500 z "},"·":{"ha":215,"x_min":78,"x_max":129,"o":"m 78 347 l 103 463 l 129 463 l 106 347 l 78 347 z "},"Ł":{"ha":778,"x_min":25,"x_max":678,"o":"m 25 328 l 149 433 l 267 986 l 294 986 l 183 463 l 486 724 l 500 703 l 175 424 l 90 28 l 678 28 l 672 0 l 57 0 l 140 394 l 39 307 l 25 328 z "},"M":{"ha":1175,"x_min":46,"x_max":1161,"o":"m 256 986 l 278 986 l 547 228 l 1139 986 l 1161 986 l 951 0 l 924 0 l 1119 925 l 551 194 l 529 194 l 271 925 l 74 0 l 46 0 l 256 986 z "},"N":{"ha":1032,"x_min":46,"x_max":1018,"o":"m 256 986 l 276 986 l 790 40 l 990 985 l 1018 985 l 808 0 l 778 0 l 272 932 l 74 0 l 46 0 l 256 986 z "},"\u0000":{"ha":0,"x_min":0,"x_max":0,"o":""},"Ń":{"ha":1032,"x_min":46,"x_max":1018,"o":"m 256 986 l 276 986 l 790 40 l 990 985 l 1018 985 l 808 0 l 778 0 l 272 932 l 74 0 l 46 0 l 256 986 m 664 1157 l 646 1174 l 751 1275 l 797 1275 l 664 1157 z "},"Ň":{"ha":1032,"x_min":46,"x_max":1018,"o":"m 256 986 l 276 986 l 790 40 l 990 985 l 1018 985 l 808 0 l 778 0 l 272 932 l 74 0 l 46 0 l 256 986 m 565 1258 l 590 1275 l 685 1188 l 815 1275 l 833 1258 l 689 1156 l 667 1156 l 565 1258 z "},"Ņ":{"ha":1032,"x_min":46,"x_max":1018,"o":"m 256 986 l 276 986 l 790 40 l 990 985 l 1018 985 l 808 0 l 778 0 l 272 932 l 74 0 l 46 0 l 256 986 m 369 -232 l 400 -151 l 388 -151 l 406 -69 l 440 -69 l 424 -151 l 389 -232 l 369 -232 z "},"Ṅ":{"ha":1032,"x_min":46,"x_max":1018,"o":"m 256 986 l 276 986 l 790 40 l 990 985 l 1018 985 l 808 0 l 778 0 l 272 932 l 74 0 l 46 0 l 256 986 m 676 1168 l 699 1275 l 726 1275 l 704 1168 l 676 1168 z "},"Ñ":{"ha":1032,"x_min":46,"x_max":1018,"o":"m 256 986 l 276 986 l 790 40 l 990 985 l 1018 985 l 808 0 l 778 0 l 272 932 l 74 0 l 46 0 l 256 986 m 769 1182 q 720 1190 740 1182 q 683 1208 700 1199 q 651 1226 667 1218 q 615 1235 636 1235 q 579 1226 594 1235 q 554 1205 564 1217 q 540 1182 544 1193 q 533 1168 535 1171 l 507 1168 q 513 1186 507 1171 q 533 1218 519 1201 q 568 1248 546 1235 q 624 1261 590 1261 q 667 1253 649 1261 q 701 1235 685 1244 q 735 1217 717 1225 q 778 1208 753 1208 q 822 1218 804 1208 q 851 1240 840 1228 q 865 1262 861 1251 q 869 1275 869 1272 l 896 1275 q 888 1256 894 1271 q 867 1224 882 1240 q 829 1194 853 1207 q 769 1182 806 1182 z "},"O":{"ha":1008,"x_min":72,"x_max":968,"o":"m 414 -7 q 268 26 332 -7 q 160 116 204 60 q 94 246 117 172 q 72 399 72 319 q 119 619 72 513 q 244 810 167 726 q 422 943 322 893 q 626 993 521 993 q 772 958 708 993 q 880 867 836 924 q 946 736 924 810 q 968 585 968 663 q 921 365 968 472 q 796 176 874 258 q 619 43 718 93 q 414 -7 519 -7 m 421 21 q 619 71 525 21 q 785 201 714 121 q 898 382 856 282 q 940 582 940 482 q 918 728 940 658 q 854 850 896 797 q 753 934 813 903 q 621 965 694 965 q 422 915 517 965 q 256 785 328 865 q 142 604 185 704 q 100 403 100 504 q 122 257 100 326 q 185 135 143 188 q 286 52 226 83 q 421 21 346 21 z "},"Œ":{"ha":1596,"x_min":72,"x_max":1638,"o":"m 418 -7 q 271 27 335 -7 q 163 117 207 61 q 95 247 118 174 q 72 400 72 321 q 119 619 72 513 q 244 810 167 726 q 422 943 322 893 q 628 993 522 993 q 762 967 703 993 q 863 894 821 940 q 931 788 906 849 q 964 660 957 728 l 1033 986 l 1638 986 l 1631 958 l 1056 958 l 963 518 l 1467 518 l 1460 490 l 956 490 l 858 28 l 1444 28 l 1439 0 l 824 0 l 893 325 q 803 194 856 256 q 689 89 751 133 q 558 19 626 44 q 418 -7 489 -7 m 421 21 q 619 71 525 21 q 785 201 714 121 q 898 382 856 282 q 940 582 940 482 q 918 728 940 658 q 855 850 896 797 q 755 934 814 903 q 622 965 696 965 q 424 915 518 965 q 257 785 329 865 q 142 604 185 704 q 100 403 100 504 q 122 257 100 326 q 185 135 143 188 q 286 52 226 83 q 421 21 346 21 z "},"Ó":{"ha":1008,"x_min":72,"x_max":968,"o":"m 414 -7 q 268 26 332 -7 q 160 116 204 60 q 94 246 117 172 q 72 399 72 319 q 119 619 72 513 q 244 810 167 726 q 422 943 322 893 q 626 993 521 993 q 772 958 708 993 q 880 867 836 924 q 946 736 924 810 q 968 585 968 663 q 921 365 968 472 q 796 176 874 258 q 619 43 718 93 q 414 -7 519 -7 m 421 21 q 619 71 525 21 q 785 201 714 121 q 898 382 856 282 q 940 582 940 482 q 918 728 940 658 q 854 850 896 797 q 753 934 813 903 q 621 965 694 965 q 422 915 517 965 q 256 785 328 865 q 142 604 185 704 q 100 403 100 504 q 122 257 100 326 q 185 135 143 188 q 286 52 226 83 q 421 21 346 21 m 647 1157 l 629 1174 l 735 1275 l 781 1275 l 647 1157 z "},"Ŏ":{"ha":1008,"x_min":72,"x_max":968,"o":"m 414 -7 q 268 26 332 -7 q 160 116 204 60 q 94 246 117 172 q 72 399 72 319 q 119 619 72 513 q 244 810 167 726 q 422 943 322 893 q 626 993 521 993 q 772 958 708 993 q 880 867 836 924 q 946 736 924 810 q 968 585 968 663 q 921 365 968 472 q 796 176 874 258 q 619 43 718 93 q 414 -7 519 -7 m 421 21 q 619 71 525 21 q 785 201 714 121 q 898 382 856 282 q 940 582 940 482 q 918 728 940 658 q 854 850 896 797 q 753 934 813 903 q 621 965 694 965 q 422 915 517 965 q 256 785 328 865 q 142 604 185 704 q 100 403 100 504 q 122 257 100 326 q 185 135 143 188 q 286 52 226 83 q 421 21 346 21 m 660 1192 q 714 1216 688 1192 q 751 1275 740 1240 l 776 1275 q 760 1235 772 1254 q 731 1201 747 1215 q 694 1177 714 1186 q 656 1168 675 1168 q 599 1193 621 1168 q 576 1254 576 1218 q 579 1275 576 1261 l 606 1275 q 604 1260 604 1269 q 620 1212 604 1232 q 660 1192 636 1192 z "},"Ô":{"ha":1008,"x_min":72,"x_max":968,"o":"m 414 -7 q 268 26 332 -7 q 160 116 204 60 q 94 246 117 172 q 72 399 72 319 q 119 619 72 513 q 244 810 167 726 q 422 943 322 893 q 626 993 521 993 q 772 958 708 993 q 880 867 836 924 q 946 736 924 810 q 968 585 968 663 q 921 365 968 472 q 796 176 874 258 q 619 43 718 93 q 414 -7 519 -7 m 421 21 q 619 71 525 21 q 785 201 714 121 q 898 382 856 282 q 940 582 940 482 q 918 728 940 658 q 854 850 896 797 q 753 934 813 903 q 621 965 694 965 q 422 915 517 965 q 256 785 328 865 q 142 604 185 704 q 100 403 100 504 q 122 257 100 326 q 185 135 143 188 q 286 52 226 83 q 421 21 346 21 m 535 1172 l 679 1275 l 701 1275 l 803 1172 l 778 1156 l 683 1243 l 553 1156 l 535 1172 z "},"Ö":{"ha":1008,"x_min":72,"x_max":968,"o":"m 414 -7 q 268 26 332 -7 q 160 116 204 60 q 94 246 117 172 q 72 399 72 319 q 119 619 72 513 q 244 810 167 726 q 422 943 322 893 q 626 993 521 993 q 772 958 708 993 q 880 867 836 924 q 946 736 924 810 q 968 585 968 663 q 921 365 968 472 q 796 176 874 258 q 619 43 718 93 q 414 -7 519 -7 m 421 21 q 619 71 525 21 q 785 201 714 121 q 898 382 856 282 q 940 582 940 482 q 918 728 940 658 q 854 850 896 797 q 753 934 813 903 q 621 965 694 965 q 422 915 517 965 q 256 785 328 865 q 142 604 185 704 q 100 403 100 504 q 122 257 100 326 q 185 135 143 188 q 286 52 226 83 q 421 21 346 21 m 572 1168 l 594 1275 l 622 1275 l 600 1168 l 572 1168 m 726 1168 l 749 1275 l 776 1275 l 754 1168 l 726 1168 z "},"Ò":{"ha":1008,"x_min":72,"x_max":968,"o":"m 414 -7 q 268 26 332 -7 q 160 116 204 60 q 94 246 117 172 q 72 399 72 319 q 119 619 72 513 q 244 810 167 726 q 422 943 322 893 q 626 993 521 993 q 772 958 708 993 q 880 867 836 924 q 946 736 924 810 q 968 585 968 663 q 921 365 968 472 q 796 176 874 258 q 619 43 718 93 q 414 -7 519 -7 m 421 21 q 619 71 525 21 q 785 201 714 121 q 898 382 856 282 q 940 582 940 482 q 918 728 940 658 q 854 850 896 797 q 753 934 813 903 q 621 965 694 965 q 422 915 517 965 q 256 785 328 865 q 142 604 185 704 q 100 403 100 504 q 122 257 100 326 q 185 135 143 188 q 286 52 226 83 q 421 21 346 21 m 590 1275 l 635 1275 l 699 1174 l 674 1157 l 590 1275 z "},"Ő":{"ha":1008,"x_min":72,"x_max":968,"o":"m 414 -7 q 268 26 332 -7 q 160 116 204 60 q 94 246 117 172 q 72 399 72 319 q 119 619 72 513 q 244 810 167 726 q 422 943 322 893 q 626 993 521 993 q 772 958 708 993 q 880 867 836 924 q 946 736 924 810 q 968 585 968 663 q 921 365 968 472 q 796 176 874 258 q 619 43 718 93 q 414 -7 519 -7 m 421 21 q 619 71 525 21 q 785 201 714 121 q 898 382 856 282 q 940 582 940 482 q 918 728 940 658 q 854 850 896 797 q 753 934 813 903 q 621 965 694 965 q 422 915 517 965 q 256 785 328 865 q 142 604 185 704 q 100 403 100 504 q 122 257 100 326 q 185 135 143 188 q 286 52 226 83 q 421 21 346 21 m 551 1157 l 533 1174 l 639 1275 l 685 1275 l 551 1157 m 685 1157 l 667 1174 l 772 1275 l 818 1275 l 685 1157 z "},"˝":{"ha":394,"x_min":56,"x_max":340,"o":"m 74 896 l 56 913 l 161 1014 l 207 1014 l 74 896 m 207 896 l 189 913 l 294 1014 l 340 1014 l 207 896 z "},"Ō":{"ha":1008,"x_min":72,"x_max":968,"o":"m 414 -7 q 268 26 332 -7 q 160 116 204 60 q 94 246 117 172 q 72 399 72 319 q 119 619 72 513 q 244 810 167 726 q 422 943 322 893 q 626 993 521 993 q 772 958 708 993 q 880 867 836 924 q 946 736 924 810 q 968 585 968 663 q 921 365 968 472 q 796 176 874 258 q 619 43 718 93 q 414 -7 519 -7 m 421 21 q 619 71 525 21 q 785 201 714 121 q 898 382 856 282 q 940 582 940 482 q 918 728 940 658 q 854 850 896 797 q 753 934 813 903 q 621 965 694 965 q 422 915 517 965 q 256 785 328 865 q 142 604 185 704 q 100 403 100 504 q 122 257 100 326 q 185 135 143 188 q 286 52 226 83 q 421 21 346 21 m 485 1214 l 490 1242 l 860 1242 l 854 1214 l 485 1214 z "},"Ǫ":{"ha":1008,"x_min":72,"x_max":968,"o":"m 322 -226 q 283 -201 296 -219 q 269 -158 269 -182 q 296 -87 269 -121 q 392 -6 322 -53 q 255 33 314 -1 q 155 124 196 68 q 93 251 114 179 q 72 399 72 322 q 119 619 72 513 q 244 810 167 726 q 422 943 322 893 q 626 993 521 993 q 772 958 708 993 q 880 867 836 924 q 946 736 924 810 q 968 585 968 663 q 923 369 968 474 q 803 183 878 265 q 633 50 729 101 q 433 -6 536 -1 q 367 -51 393 -31 q 325 -87 340 -71 q 303 -119 310 -104 q 297 -151 297 -135 q 344 -203 297 -192 l 322 -226 m 421 21 q 619 71 525 21 q 785 201 714 121 q 898 382 856 282 q 940 582 940 482 q 918 728 940 658 q 854 850 896 797 q 753 934 813 903 q 621 965 694 965 q 422 915 517 965 q 256 785 328 865 q 142 604 185 704 q 100 403 100 504 q 122 257 100 326 q 185 135 143 188 q 286 52 226 83 q 421 21 346 21 z "},"Ø":{"ha":1008,"x_min":72,"x_max":968,"o":"m 944 986 l 863 886 q 941 749 914 828 q 968 585 968 671 q 921 365 968 472 q 796 176 874 258 q 619 43 718 93 q 414 -7 519 -7 q 292 15 347 -7 q 196 76 238 38 l 133 0 l 99 0 l 178 96 q 99 233 125 154 q 72 399 72 311 q 119 619 72 513 q 244 810 167 726 q 422 943 322 893 q 626 993 521 993 q 748 969 693 993 q 844 906 803 946 l 910 986 l 944 986 m 100 403 q 124 246 100 319 q 197 119 149 172 l 825 882 q 734 943 785 921 q 621 965 683 965 q 422 915 517 965 q 256 785 328 865 q 142 604 185 704 q 100 403 100 504 m 421 21 q 619 71 525 21 q 785 201 714 121 q 898 382 856 282 q 940 582 940 482 q 915 737 940 664 q 843 863 890 810 l 215 100 q 307 42 256 63 q 421 21 358 21 z "},"/":{"ha":738,"x_min":-36,"x_max":810,"o":"m 810 986 l -1 0 l -36 0 l 775 986 l 810 986 z "},"Ǿ":{"ha":1008,"x_min":72,"x_max":968,"o":"m 944 986 l 863 886 q 941 749 914 828 q 968 585 968 671 q 921 365 968 472 q 796 176 874 258 q 619 43 718 93 q 414 -7 519 -7 q 292 15 347 -7 q 196 76 238 38 l 133 0 l 99 0 l 178 96 q 99 233 125 154 q 72 399 72 311 q 119 619 72 513 q 244 810 167 726 q 422 943 322 893 q 626 993 521 993 q 748 969 693 993 q 844 906 803 946 l 910 986 l 944 986 m 100 403 q 124 246 100 319 q 197 119 149 172 l 825 882 q 734 943 785 921 q 621 965 683 965 q 422 915 517 965 q 256 785 328 865 q 142 604 185 704 q 100 403 100 504 m 421 21 q 619 71 525 21 q 785 201 714 121 q 898 382 856 282 q 940 582 940 482 q 915 737 940 664 q 843 863 890 810 l 215 100 q 307 42 256 63 q 421 21 358 21 m 631 1157 l 613 1174 l 718 1275 l 764 1275 l 631 1157 z "},"Õ":{"ha":1008,"x_min":72,"x_max":968,"o":"m 414 -7 q 268 26 332 -7 q 160 116 204 60 q 94 246 117 172 q 72 399 72 319 q 119 619 72 513 q 244 810 167 726 q 422 943 322 893 q 626 993 521 993 q 772 958 708 993 q 880 867 836 924 q 946 736 924 810 q 968 585 968 663 q 921 365 968 472 q 796 176 874 258 q 619 43 718 93 q 414 -7 519 -7 m 421 21 q 619 71 525 21 q 785 201 714 121 q 898 382 856 282 q 940 582 940 482 q 918 728 940 658 q 854 850 896 797 q 753 934 813 903 q 621 965 694 965 q 422 915 517 965 q 256 785 328 865 q 142 604 185 704 q 100 403 100 504 q 122 257 100 326 q 185 135 143 188 q 286 52 226 83 q 421 21 346 21 m 743 1182 q 694 1190 714 1182 q 657 1208 674 1199 q 625 1226 640 1218 q 589 1235 610 1235 q 553 1226 568 1235 q 528 1205 538 1217 q 513 1182 518 1193 q 507 1168 508 1171 l 481 1168 q 487 1186 481 1171 q 506 1218 493 1201 q 542 1248 519 1235 q 597 1261 564 1261 q 640 1253 622 1261 q 674 1235 658 1244 q 708 1217 690 1225 q 751 1208 726 1208 q 796 1218 778 1208 q 824 1240 814 1228 q 839 1262 835 1251 q 843 1275 843 1272 l 869 1275 q 862 1256 868 1271 q 841 1224 856 1240 q 803 1194 826 1207 q 743 1182 779 1182 z "},"P":{"ha":826,"x_min":46,"x_max":844,"o":"m 256 986 l 638 986 q 725 965 686 986 q 790 910 764 944 q 831 831 817 875 q 844 740 844 788 q 818 613 844 676 q 747 500 792 550 q 644 419 703 450 q 519 388 585 388 l 156 388 l 74 0 l 46 0 l 256 986 m 525 415 q 640 444 586 415 q 733 520 693 474 q 794 624 772 567 q 817 736 817 681 q 803 821 817 781 q 766 892 790 861 q 707 940 742 922 q 631 958 672 958 l 278 958 l 163 415 l 525 415 z "},"Q":{"ha":1007,"x_min":72,"x_max":968,"o":"m 714 101 q 571 22 647 50 q 415 -7 494 -7 q 269 26 333 -7 q 162 116 206 60 q 95 246 118 172 q 72 399 72 319 q 119 619 72 513 q 244 810 167 726 q 422 943 322 893 q 628 993 522 993 q 774 958 710 993 q 881 867 838 924 q 946 736 924 810 q 968 585 968 663 q 951 453 968 518 q 904 328 935 388 q 831 215 874 268 q 738 121 789 163 l 804 0 l 769 0 l 714 101 m 421 21 q 568 48 497 21 q 701 124 639 75 l 628 258 l 663 258 l 725 143 q 813 235 774 185 q 881 344 853 286 q 925 462 910 401 q 940 582 940 522 q 918 728 940 658 q 855 850 896 797 q 755 934 814 903 q 622 965 696 965 q 424 915 518 965 q 257 785 329 865 q 142 604 185 704 q 100 403 100 504 q 122 257 100 326 q 185 135 143 188 q 286 52 226 83 q 421 21 346 21 z "},"R":{"ha":856,"x_min":46,"x_max":844,"o":"m 46 0 l 256 986 l 638 986 q 725 965 686 986 q 790 910 764 944 q 831 831 817 875 q 844 740 844 788 q 819 615 844 676 q 753 505 794 554 q 655 424 711 456 q 536 388 599 392 l 690 0 l 657 0 l 503 388 l 156 388 l 74 0 l 46 0 m 525 415 q 639 444 586 415 q 731 519 692 474 q 794 622 771 565 q 817 736 817 679 q 803 821 817 781 q 766 892 790 861 q 707 940 742 922 q 631 958 672 958 l 278 958 l 163 415 l 525 415 z "},"Ŕ":{"ha":856,"x_min":46,"x_max":844,"o":"m 46 0 l 256 986 l 638 986 q 725 965 686 986 q 790 910 764 944 q 831 831 817 875 q 844 740 844 788 q 819 615 844 676 q 753 505 794 554 q 655 424 711 456 q 536 388 599 392 l 690 0 l 657 0 l 503 388 l 156 388 l 74 0 l 46 0 m 525 415 q 639 444 586 415 q 731 519 692 474 q 794 622 771 565 q 817 736 817 679 q 803 821 817 781 q 766 892 790 861 q 707 940 742 922 q 631 958 672 958 l 278 958 l 163 415 l 525 415 m 546 1161 l 528 1178 l 633 1279 l 679 1279 l 546 1161 z "},"Ř":{"ha":856,"x_min":46,"x_max":844,"o":"m 46 0 l 256 986 l 638 986 q 725 965 686 986 q 790 910 764 944 q 831 831 817 875 q 844 740 844 788 q 819 615 844 676 q 753 505 794 554 q 655 424 711 456 q 536 388 599 392 l 690 0 l 657 0 l 503 388 l 156 388 l 74 0 l 46 0 m 525 415 q 639 444 586 415 q 731 519 692 474 q 794 622 771 565 q 817 736 817 679 q 803 821 817 781 q 766 892 790 861 q 707 940 742 922 q 631 958 672 958 l 278 958 l 163 415 l 525 415 m 475 1263 l 500 1279 l 594 1192 l 725 1279 l 743 1263 l 599 1160 l 576 1160 l 475 1263 z "},"Ŗ":{"ha":856,"x_min":46,"x_max":844,"o":"m 46 0 l 256 986 l 638 986 q 725 965 686 986 q 790 910 764 944 q 831 831 817 875 q 844 740 844 788 q 819 615 844 676 q 753 505 794 554 q 655 424 711 456 q 536 388 599 392 l 690 0 l 657 0 l 503 388 l 156 388 l 74 0 l 46 0 m 525 415 q 639 444 586 415 q 731 519 692 474 q 794 622 771 565 q 817 736 817 679 q 803 821 817 781 q 766 892 790 861 q 707 940 742 922 q 631 958 672 958 l 278 958 l 163 415 l 525 415 m 276 -232 l 307 -151 l 294 -151 l 313 -69 l 347 -69 l 331 -151 l 296 -232 l 276 -232 z "},"S":{"ha":804,"x_min":-1,"x_max":792,"o":"m 331 -7 q 138 30 218 -7 q -1 146 57 67 l 22 164 q 153 51 78 86 q 338 17 229 17 q 483 34 418 17 q 594 85 549 51 q 665 167 640 118 q 690 282 690 217 q 674 355 690 324 q 624 409 657 386 q 540 449 590 432 q 424 481 490 465 q 307 510 358 494 q 220 547 256 525 q 166 602 185 569 q 147 682 147 635 q 176 812 147 754 q 256 910 204 869 q 380 972 308 950 q 538 993 451 993 q 689 966 628 993 q 792 875 750 939 l 769 856 q 673 944 728 921 q 535 967 618 967 q 371 945 439 967 q 260 885 303 924 q 197 797 217 847 q 176 688 176 746 q 192 619 176 647 q 238 572 207 592 q 317 536 269 551 q 429 507 365 521 q 548 475 494 492 q 640 434 601 458 q 699 374 678 410 q 719 289 719 339 q 692 165 719 219 q 613 72 664 110 q 490 13 563 33 q 331 -7 418 -7 z "},"Ś":{"ha":804,"x_min":-1,"x_max":792,"o":"m 331 -7 q 138 30 218 -7 q -1 146 57 67 l 22 164 q 153 51 78 86 q 338 17 229 17 q 483 34 418 17 q 594 85 549 51 q 665 167 640 118 q 690 282 690 217 q 674 355 690 324 q 624 409 657 386 q 540 449 590 432 q 424 481 490 465 q 307 510 358 494 q 220 547 256 525 q 166 602 185 569 q 147 682 147 635 q 176 812 147 754 q 256 910 204 869 q 380 972 308 950 q 538 993 451 993 q 689 966 628 993 q 792 875 750 939 l 769 856 q 673 944 728 921 q 535 967 618 967 q 371 945 439 967 q 260 885 303 924 q 197 797 217 847 q 176 688 176 746 q 192 619 176 647 q 238 572 207 592 q 317 536 269 551 q 429 507 365 521 q 548 475 494 492 q 640 434 601 458 q 699 374 678 410 q 719 289 719 339 q 692 165 719 219 q 613 72 664 110 q 490 13 563 33 q 331 -7 418 -7 m 544 1188 l 526 1204 l 632 1306 l 678 1306 l 544 1188 z "},"Š":{"ha":804,"x_min":-1,"x_max":792,"o":"m 331 -7 q 138 30 218 -7 q -1 146 57 67 l 22 164 q 153 51 78 86 q 338 17 229 17 q 483 34 418 17 q 594 85 549 51 q 665 167 640 118 q 690 282 690 217 q 674 355 690 324 q 624 409 657 386 q 540 449 590 432 q 424 481 490 465 q 307 510 358 494 q 220 547 256 525 q 166 602 185 569 q 147 682 147 635 q 176 812 147 754 q 256 910 204 869 q 380 972 308 950 q 538 993 451 993 q 689 966 628 993 q 792 875 750 939 l 769 856 q 673 944 728 921 q 535 967 618 967 q 371 945 439 967 q 260 885 303 924 q 197 797 217 847 q 176 688 176 746 q 192 619 176 647 q 238 572 207 592 q 317 536 269 551 q 429 507 365 521 q 548 475 494 492 q 640 434 601 458 q 699 374 678 410 q 719 289 719 339 q 692 165 719 219 q 613 72 664 110 q 490 13 563 33 q 331 -7 418 -7 m 467 1289 l 492 1306 l 586 1218 l 717 1306 l 735 1289 l 590 1186 l 568 1186 l 467 1289 z "},"Ŝ":{"ha":804,"x_min":-1,"x_max":792,"o":"m 331 -7 q 138 30 218 -7 q -1 146 57 67 l 22 164 q 153 51 78 86 q 338 17 229 17 q 483 34 418 17 q 594 85 549 51 q 665 167 640 118 q 690 282 690 217 q 674 355 690 324 q 624 409 657 386 q 540 449 590 432 q 424 481 490 465 q 307 510 358 494 q 220 547 256 525 q 166 602 185 569 q 147 682 147 635 q 176 812 147 754 q 256 910 204 869 q 380 972 308 950 q 538 993 451 993 q 689 966 628 993 q 792 875 750 939 l 769 856 q 673 944 728 921 q 535 967 618 967 q 371 945 439 967 q 260 885 303 924 q 197 797 217 847 q 176 688 176 746 q 192 619 176 647 q 238 572 207 592 q 317 536 269 551 q 429 507 365 521 q 548 475 494 492 q 640 434 601 458 q 699 374 678 410 q 719 289 719 339 q 692 165 719 219 q 613 72 664 110 q 490 13 563 33 q 331 -7 418 -7 m 453 1203 l 597 1306 l 619 1306 l 721 1203 l 696 1186 l 601 1274 l 471 1186 l 453 1203 z "},"T":{"ha":797,"x_min":136,"x_max":886,"o":"m 494 958 l 136 958 l 142 986 l 886 986 l 881 958 l 522 958 l 318 0 l 290 0 l 494 958 z "},"Ŧ":{"ha":856,"x_min":122,"x_max":918,"o":"m 128 589 l 446 589 l 525 958 l 167 958 l 172 986 l 918 986 l 911 958 l 553 958 l 474 589 l 793 589 l 788 561 l 468 561 l 350 0 l 322 0 l 440 561 l 122 561 l 128 589 z "},"Ť":{"ha":797,"x_min":136,"x_max":886,"o":"m 494 958 l 136 958 l 142 986 l 886 986 l 881 958 l 522 958 l 318 0 l 290 0 l 494 958 m 428 1258 l 453 1275 l 547 1188 l 678 1275 l 696 1258 l 551 1156 l 529 1156 l 428 1258 z "},"Þ":{"ha":797,"x_min":46,"x_max":774,"o":"m 256 986 l 283 986 l 239 778 l 567 778 q 654 757 615 778 q 719 701 693 736 q 760 623 746 667 q 774 532 774 579 q 747 405 774 468 q 676 292 721 342 q 573 210 632 242 q 449 179 514 179 l 111 179 l 74 0 l 46 0 l 256 986 m 454 207 q 569 236 515 207 q 662 312 622 265 q 724 415 701 358 q 746 528 746 472 q 733 613 746 572 q 695 683 719 653 q 636 732 671 714 q 560 750 601 750 l 233 750 l 118 207 l 454 207 z "},"U":{"ha":1004,"x_min":115,"x_max":1007,"o":"m 414 -7 q 272 18 329 -7 q 181 87 215 43 q 131 189 146 131 q 115 314 115 247 q 121 402 115 357 q 136 493 126 447 l 240 986 l 268 986 l 164 493 q 149 404 154 449 q 143 318 143 360 q 157 201 143 256 q 203 107 171 147 q 288 44 235 67 q 418 21 340 21 q 601 63 524 21 q 734 171 679 104 q 823 322 789 238 q 875 493 857 407 l 979 986 l 1007 986 l 903 493 q 843 304 882 394 q 745 145 804 214 q 604 35 686 76 q 414 -7 522 -7 z "},"Ú":{"ha":1006,"x_min":115,"x_max":1007,"o":"m 414 -7 q 272 18 329 -7 q 181 87 215 43 q 131 189 146 131 q 115 314 115 247 q 121 402 115 357 q 136 493 126 447 l 240 986 l 268 986 l 164 493 q 149 404 154 449 q 143 318 143 360 q 157 201 143 256 q 203 107 171 147 q 288 44 235 67 q 418 21 340 21 q 601 63 524 21 q 734 171 679 104 q 823 322 789 238 q 875 493 857 407 l 979 986 l 1007 986 l 903 493 q 843 304 882 394 q 745 145 804 214 q 604 35 686 76 q 414 -7 522 -7 m 618 1157 l 600 1174 l 706 1275 l 751 1275 l 618 1157 z "},"Ŭ":{"ha":1006,"x_min":115,"x_max":1007,"o":"m 414 -7 q 272 18 329 -7 q 181 87 215 43 q 131 189 146 131 q 115 314 115 247 q 121 402 115 357 q 136 493 126 447 l 240 986 l 268 986 l 164 493 q 149 404 154 449 q 143 318 143 360 q 157 201 143 256 q 203 107 171 147 q 288 44 235 67 q 418 21 340 21 q 601 63 524 21 q 734 171 679 104 q 823 322 789 238 q 875 493 857 407 l 979 986 l 1007 986 l 903 493 q 843 304 882 394 q 745 145 804 214 q 604 35 686 76 q 414 -7 522 -7 m 658 1192 q 713 1216 686 1192 q 750 1275 739 1240 l 775 1275 q 758 1235 771 1254 q 729 1201 746 1215 q 693 1177 713 1186 q 654 1168 674 1168 q 597 1193 619 1168 q 575 1254 575 1218 q 578 1275 575 1261 l 604 1275 q 603 1260 603 1269 q 619 1212 603 1232 q 658 1192 635 1192 z "},"Û":{"ha":1006,"x_min":115,"x_max":1007,"o":"m 414 -7 q 272 18 329 -7 q 181 87 215 43 q 131 189 146 131 q 115 314 115 247 q 121 402 115 357 q 136 493 126 447 l 240 986 l 268 986 l 164 493 q 149 404 154 449 q 143 318 143 360 q 157 201 143 256 q 203 107 171 147 q 288 44 235 67 q 418 21 340 21 q 601 63 524 21 q 734 171 679 104 q 823 322 789 238 q 875 493 857 407 l 979 986 l 1007 986 l 903 493 q 843 304 882 394 q 745 145 804 214 q 604 35 686 76 q 414 -7 522 -7 m 532 1172 l 676 1275 l 699 1275 l 800 1172 l 775 1156 l 681 1243 l 550 1156 l 532 1172 z "},"Ü":{"ha":1006,"x_min":115,"x_max":1007,"o":"m 414 -7 q 272 18 329 -7 q 181 87 215 43 q 131 189 146 131 q 115 314 115 247 q 121 402 115 357 q 136 493 126 447 l 240 986 l 268 986 l 164 493 q 149 404 154 449 q 143 318 143 360 q 157 201 143 256 q 203 107 171 147 q 288 44 235 67 q 418 21 340 21 q 601 63 524 21 q 734 171 679 104 q 823 322 789 238 q 875 493 857 407 l 979 986 l 1007 986 l 903 493 q 843 304 882 394 q 745 145 804 214 q 604 35 686 76 q 414 -7 522 -7 m 569 1168 l 592 1275 l 619 1275 l 597 1168 l 569 1168 m 724 1168 l 746 1275 l 774 1275 l 751 1168 l 724 1168 z "},"Ù":{"ha":1006,"x_min":115,"x_max":1007,"o":"m 414 -7 q 272 18 329 -7 q 181 87 215 43 q 131 189 146 131 q 115 314 115 247 q 121 402 115 357 q 136 493 126 447 l 240 986 l 268 986 l 164 493 q 149 404 154 449 q 143 318 143 360 q 157 201 143 256 q 203 107 171 147 q 288 44 235 67 q 418 21 340 21 q 601 63 524 21 q 734 171 679 104 q 823 322 789 238 q 875 493 857 407 l 979 986 l 1007 986 l 903 493 q 843 304 882 394 q 745 145 804 214 q 604 35 686 76 q 414 -7 522 -7 m 593 1275 l 638 1275 l 701 1174 l 676 1157 l 593 1275 z "},"Ű":{"ha":1006,"x_min":115,"x_max":1007,"o":"m 414 -7 q 272 18 329 -7 q 181 87 215 43 q 131 189 146 131 q 115 314 115 247 q 121 402 115 357 q 136 493 126 447 l 240 986 l 268 986 l 164 493 q 149 404 154 449 q 143 318 143 360 q 157 201 143 256 q 203 107 171 147 q 288 44 235 67 q 418 21 340 21 q 601 63 524 21 q 734 171 679 104 q 823 322 789 238 q 875 493 857 407 l 979 986 l 1007 986 l 903 493 q 843 304 882 394 q 745 145 804 214 q 604 35 686 76 q 414 -7 522 -7 m 556 1157 l 538 1174 l 643 1275 l 689 1275 l 556 1157 m 689 1157 l 671 1174 l 776 1275 l 822 1275 l 689 1157 z "},"Ū":{"ha":1006,"x_min":115,"x_max":1007,"o":"m 414 -7 q 272 18 329 -7 q 181 87 215 43 q 131 189 146 131 q 115 314 115 247 q 121 402 115 357 q 136 493 126 447 l 240 986 l 268 986 l 164 493 q 149 404 154 449 q 143 318 143 360 q 157 201 143 256 q 203 107 171 147 q 288 44 235 67 q 418 21 340 21 q 601 63 524 21 q 734 171 679 104 q 823 322 789 238 q 875 493 857 407 l 979 986 l 1007 986 l 903 493 q 843 304 882 394 q 745 145 804 214 q 604 35 686 76 q 414 -7 522 -7 m 482 1214 l 488 1242 l 857 1242 l 851 1214 l 482 1214 z "},"Ų":{"ha":1006,"x_min":115,"x_max":1007,"o":"m 319 -226 q 280 -201 293 -219 q 267 -158 267 -182 q 293 -87 267 -122 q 389 -6 319 -53 q 259 25 311 -1 q 175 94 207 51 q 129 194 143 138 q 115 314 115 250 q 121 402 115 357 q 136 493 126 447 l 240 986 l 268 986 l 164 493 q 149 404 154 449 q 143 318 143 360 q 157 201 143 256 q 203 107 171 147 q 288 44 235 67 q 418 21 340 21 q 601 63 524 21 q 734 171 679 104 q 823 322 789 238 q 875 493 857 407 l 979 986 l 1007 986 l 903 493 q 844 308 882 397 q 750 151 807 219 q 614 40 693 82 q 431 -6 535 -3 q 364 -51 390 -31 q 322 -87 338 -71 q 301 -119 307 -104 q 294 -151 294 -135 q 342 -203 294 -193 l 319 -226 z "},"Ů":{"ha":1006,"x_min":115,"x_max":1007,"o":"m 414 -7 q 272 18 329 -7 q 181 87 215 43 q 131 189 146 131 q 115 314 115 247 q 121 402 115 357 q 136 493 126 447 l 240 986 l 268 986 l 164 493 q 149 404 154 449 q 143 318 143 360 q 157 201 143 256 q 203 107 171 147 q 288 44 235 67 q 418 21 340 21 q 601 63 524 21 q 734 171 679 104 q 823 322 789 238 q 875 493 857 407 l 979 986 l 1007 986 l 903 493 q 843 304 882 394 q 745 145 804 214 q 604 35 686 76 q 414 -7 522 -7 m 589 1181 q 597 1217 589 1200 q 617 1247 604 1235 q 648 1267 631 1260 q 683 1275 665 1275 q 727 1257 711 1275 q 743 1211 743 1239 q 735 1174 743 1192 q 715 1144 728 1157 q 684 1124 701 1132 q 649 1117 667 1117 q 605 1135 621 1117 q 589 1181 589 1153 m 678 1253 q 632 1234 653 1253 q 611 1185 611 1215 q 623 1152 611 1165 q 654 1139 635 1139 q 699 1158 676 1139 q 722 1207 722 1178 q 710 1240 722 1228 q 678 1253 697 1253 z "},"Ũ":{"ha":1006,"x_min":115,"x_max":1007,"o":"m 414 -7 q 272 18 329 -7 q 181 87 215 43 q 131 189 146 131 q 115 314 115 247 q 121 402 115 357 q 136 493 126 447 l 240 986 l 268 986 l 164 493 q 149 404 154 449 q 143 318 143 360 q 157 201 143 256 q 203 107 171 147 q 288 44 235 67 q 418 21 340 21 q 601 63 524 21 q 734 171 679 104 q 823 322 789 238 q 875 493 857 407 l 979 986 l 1007 986 l 903 493 q 843 304 882 394 q 745 145 804 214 q 604 35 686 76 q 414 -7 522 -7 m 740 1182 q 691 1190 711 1182 q 654 1208 671 1199 q 622 1226 638 1218 q 586 1235 607 1235 q 550 1226 565 1235 q 525 1205 535 1217 q 510 1182 515 1193 q 504 1168 506 1171 l 478 1168 q 484 1186 478 1171 q 503 1218 490 1201 q 539 1248 517 1235 q 594 1261 561 1261 q 638 1253 619 1261 q 672 1235 656 1244 q 706 1217 688 1225 q 749 1208 724 1208 q 793 1218 775 1208 q 822 1240 811 1228 q 836 1262 832 1251 q 840 1275 840 1272 l 867 1275 q 859 1256 865 1271 q 838 1224 853 1240 q 800 1194 824 1207 q 740 1182 776 1182 z "},"V":{"ha":894,"x_min":140,"x_max":985,"o":"m 140 986 l 169 986 l 361 35 l 954 986 l 985 986 l 368 0 l 338 0 l 140 986 z "},"W":{"ha":1369,"x_min":140,"x_max":1460,"o":"m 140 986 l 171 986 l 361 35 l 697 575 l 615 978 l 646 978 l 718 608 l 950 978 l 981 978 l 726 575 l 836 35 l 1429 986 l 1460 986 l 843 0 l 813 0 l 706 540 l 368 0 l 338 0 l 140 986 z "},"Ẃ":{"ha":1369,"x_min":140,"x_max":1460,"o":"m 140 986 l 171 986 l 361 35 l 697 575 l 615 978 l 646 978 l 718 608 l 950 978 l 981 978 l 726 575 l 836 35 l 1429 986 l 1460 986 l 843 0 l 813 0 l 706 540 l 368 0 l 338 0 l 140 986 m 815 1157 l 797 1174 l 903 1275 l 949 1275 l 815 1157 z "},"Ŵ":{"ha":1369,"x_min":140,"x_max":1460,"o":"m 140 986 l 171 986 l 361 35 l 697 575 l 615 978 l 646 978 l 718 608 l 950 978 l 981 978 l 726 575 l 836 35 l 1429 986 l 1460 986 l 843 0 l 813 0 l 706 540 l 368 0 l 338 0 l 140 986 m 706 1172 l 850 1275 l 872 1275 l 974 1172 l 949 1156 l 854 1243 l 724 1156 l 706 1172 z "},"Ẅ":{"ha":1369,"x_min":140,"x_max":1460,"o":"m 140 986 l 171 986 l 361 35 l 697 575 l 615 978 l 646 978 l 718 608 l 950 978 l 981 978 l 726 575 l 836 35 l 1429 986 l 1460 986 l 843 0 l 813 0 l 706 540 l 368 0 l 338 0 l 140 986 m 740 1168 l 763 1275 l 790 1275 l 768 1168 l 740 1168 m 894 1168 l 917 1275 l 944 1275 l 922 1168 l 894 1168 z "},"Ẁ":{"ha":1369,"x_min":140,"x_max":1460,"o":"m 140 986 l 171 986 l 361 35 l 697 575 l 615 978 l 646 978 l 718 608 l 950 978 l 981 978 l 726 575 l 836 35 l 1429 986 l 1460 986 l 843 0 l 813 0 l 706 540 l 368 0 l 338 0 l 140 986 m 788 1275 l 832 1275 l 896 1174 l 871 1157 l 788 1275 z "},"X":{"ha":817,"x_min":-65,"x_max":925,"o":"m 406 486 l 133 986 l 169 986 l 428 508 l 890 986 l 925 986 l 440 486 l 704 0 l 669 0 l 419 464 l -29 0 l -65 0 l 406 486 z "},"Y":{"ha":825,"x_min":135,"x_max":921,"o":"m 385 385 l 135 986 l 167 986 l 406 414 l 889 986 l 921 986 l 413 382 l 331 0 l 303 0 l 385 385 z "},"Ý":{"ha":825,"x_min":135,"x_max":921,"o":"m 385 385 l 135 986 l 167 986 l 406 414 l 889 986 l 921 986 l 413 382 l 331 0 l 303 0 l 385 385 m 519 1157 l 501 1174 l 607 1275 l 653 1275 l 519 1157 z "},"Ŷ":{"ha":825,"x_min":135,"x_max":921,"o":"m 385 385 l 135 986 l 167 986 l 406 414 l 889 986 l 921 986 l 413 382 l 331 0 l 303 0 l 385 385 m 436 1172 l 581 1275 l 603 1275 l 704 1172 l 679 1156 l 585 1243 l 454 1156 l 436 1172 z "},"Ÿ":{"ha":825,"x_min":135,"x_max":921,"o":"m 385 385 l 135 986 l 167 986 l 406 414 l 889 986 l 921 986 l 413 382 l 331 0 l 303 0 l 385 385 m 469 1168 l 492 1275 l 519 1275 l 497 1168 l 469 1168 m 624 1168 l 646 1275 l 674 1275 l 651 1168 l 624 1168 z "},"Ỳ":{"ha":825,"x_min":135,"x_max":921,"o":"m 385 385 l 135 986 l 167 986 l 406 414 l 889 986 l 921 986 l 413 382 l 331 0 l 303 0 l 385 385 m 489 1275 l 533 1275 l 597 1174 l 572 1157 l 489 1275 z "},"Ỹ":{"ha":825,"x_min":135,"x_max":921,"o":"m 385 385 l 135 986 l 167 986 l 406 414 l 889 986 l 921 986 l 413 382 l 331 0 l 303 0 l 385 385 m 624 1182 q 574 1190 594 1182 q 538 1208 554 1199 q 506 1226 521 1218 q 469 1235 490 1235 q 433 1226 449 1235 q 408 1205 418 1217 q 394 1182 399 1193 q 388 1168 389 1171 l 361 1168 q 367 1186 361 1171 q 387 1218 374 1201 q 422 1248 400 1235 q 478 1261 444 1261 q 521 1253 503 1261 q 555 1235 539 1244 q 589 1217 571 1225 q 632 1208 607 1208 q 676 1218 658 1208 q 705 1240 694 1228 q 719 1262 715 1251 q 724 1275 724 1272 l 750 1275 q 742 1256 749 1271 q 722 1224 736 1240 q 683 1194 707 1207 q 624 1182 660 1182 z "},"Z":{"ha":815,"x_min":-56,"x_max":903,"o":"m -50 28 l 861 958 l 154 958 l 161 986 l 903 986 l 896 958 l -15 28 l 693 28 l 688 0 l -56 0 l -50 28 z "},"Ź":{"ha":815,"x_min":-56,"x_max":903,"o":"m -50 28 l 861 958 l 154 958 l 161 986 l 903 986 l 896 958 l -15 28 l 693 28 l 688 0 l -56 0 l -50 28 m 521 1157 l 503 1174 l 608 1275 l 654 1275 l 521 1157 z "},"Ž":{"ha":815,"x_min":-56,"x_max":903,"o":"m -50 28 l 861 958 l 154 958 l 161 986 l 903 986 l 896 958 l -15 28 l 693 28 l 688 0 l -56 0 l -50 28 m 447 1258 l 472 1275 l 567 1188 l 697 1275 l 715 1258 l 571 1156 l 549 1156 l 447 1258 z "},"Ż":{"ha":815,"x_min":-56,"x_max":903,"o":"m -50 28 l 861 958 l 154 958 l 161 986 l 903 986 l 896 958 l -15 28 l 693 28 l 688 0 l -56 0 l -50 28 m 554 1168 l 576 1275 l 604 1275 l 582 1168 l 554 1168 z "},"a":{"ha":806,"x_min":43,"x_max":756,"o":"m 300 -14 q 192 12 240 -14 q 111 80 144 38 q 60 178 78 122 q 43 292 43 233 q 76 454 43 375 q 166 595 110 533 q 295 694 222 657 q 446 732 368 732 q 534 717 494 732 q 603 678 574 703 q 656 622 633 654 q 690 553 678 589 l 726 721 l 756 721 l 614 61 q 611 44 611 53 q 628 28 611 28 l 622 0 q 610 1 614 0 q 583 40 583 10 q 584 47 583 43 q 587 62 585 51 q 593 93 589 72 q 604 150 597 114 q 539 84 575 114 q 463 32 503 54 q 382 -2 424 10 q 300 -14 340 -14 m 303 14 q 398 32 347 14 q 494 81 449 50 q 575 151 540 111 q 622 235 610 190 l 678 494 q 652 574 672 536 q 600 640 632 611 q 526 687 568 669 q 435 704 483 704 q 297 667 363 704 q 181 571 231 631 q 101 438 131 511 q 71 292 71 364 q 88 186 71 236 q 137 98 106 136 q 210 37 168 60 q 303 14 253 14 z "},"á":{"ha":806,"x_min":43,"x_max":756,"o":"m 300 -14 q 192 12 240 -14 q 111 80 144 38 q 60 178 78 122 q 43 292 43 233 q 76 454 43 375 q 166 595 110 533 q 295 694 222 657 q 446 732 368 732 q 534 717 494 732 q 603 678 574 703 q 656 622 633 654 q 690 553 678 589 l 726 721 l 756 721 l 614 61 q 611 44 611 53 q 628 28 611 28 l 622 0 q 610 1 614 0 q 583 40 583 10 q 584 47 583 43 q 587 62 585 51 q 593 93 589 72 q 604 150 597 114 q 539 84 575 114 q 463 32 503 54 q 382 -2 424 10 q 300 -14 340 -14 m 303 14 q 398 32 347 14 q 494 81 449 50 q 575 151 540 111 q 622 235 610 190 l 678 494 q 652 574 672 536 q 600 640 632 611 q 526 687 568 669 q 435 704 483 704 q 297 667 363 704 q 181 571 231 631 q 101 438 131 511 q 71 292 71 364 q 88 186 71 236 q 137 98 106 136 q 210 37 168 60 q 303 14 253 14 m 474 896 l 456 913 l 561 1014 l 607 1014 l 474 896 z "},"ă":{"ha":806,"x_min":43,"x_max":756,"o":"m 300 -14 q 192 12 240 -14 q 111 80 144 38 q 60 178 78 122 q 43 292 43 233 q 76 454 43 375 q 166 595 110 533 q 295 694 222 657 q 446 732 368 732 q 534 717 494 732 q 603 678 574 703 q 656 622 633 654 q 690 553 678 589 l 726 721 l 756 721 l 614 61 q 611 44 611 53 q 628 28 611 28 l 622 0 q 610 1 614 0 q 583 40 583 10 q 584 47 583 43 q 587 62 585 51 q 593 93 589 72 q 604 150 597 114 q 539 84 575 114 q 463 32 503 54 q 382 -2 424 10 q 300 -14 340 -14 m 303 14 q 398 32 347 14 q 494 81 449 50 q 575 151 540 111 q 622 235 610 190 l 678 494 q 652 574 672 536 q 600 640 632 611 q 526 687 568 669 q 435 704 483 704 q 297 667 363 704 q 181 571 231 631 q 101 438 131 511 q 71 292 71 364 q 88 186 71 236 q 137 98 106 136 q 210 37 168 60 q 303 14 253 14 m 499 931 q 553 955 526 931 q 590 1014 579 979 l 615 1014 q 599 974 611 993 q 569 940 586 954 q 533 916 553 925 q 494 907 514 907 q 438 932 460 907 q 415 993 415 957 q 418 1014 415 1000 l 444 1014 q 443 999 443 1008 q 459 951 443 971 q 499 931 475 931 z "},"â":{"ha":806,"x_min":43,"x_max":756,"o":"m 300 -14 q 192 12 240 -14 q 111 80 144 38 q 60 178 78 122 q 43 292 43 233 q 76 454 43 375 q 166 595 110 533 q 295 694 222 657 q 446 732 368 732 q 534 717 494 732 q 603 678 574 703 q 656 622 633 654 q 690 553 678 589 l 726 721 l 756 721 l 614 61 q 611 44 611 53 q 628 28 611 28 l 622 0 q 610 1 614 0 q 583 40 583 10 q 584 47 583 43 q 587 62 585 51 q 593 93 589 72 q 604 150 597 114 q 539 84 575 114 q 463 32 503 54 q 382 -2 424 10 q 300 -14 340 -14 m 303 14 q 398 32 347 14 q 494 81 449 50 q 575 151 540 111 q 622 235 610 190 l 678 494 q 652 574 672 536 q 600 640 632 611 q 526 687 568 669 q 435 704 483 704 q 297 667 363 704 q 181 571 231 631 q 101 438 131 511 q 71 292 71 364 q 88 186 71 236 q 137 98 106 136 q 210 37 168 60 q 303 14 253 14 m 374 911 l 518 1014 l 540 1014 l 642 911 l 617 894 l 522 982 l 392 894 l 374 911 z "},"ä":{"ha":806,"x_min":43,"x_max":756,"o":"m 300 -14 q 192 12 240 -14 q 111 80 144 38 q 60 178 78 122 q 43 292 43 233 q 76 454 43 375 q 166 595 110 533 q 295 694 222 657 q 446 732 368 732 q 534 717 494 732 q 603 678 574 703 q 656 622 633 654 q 690 553 678 589 l 726 721 l 756 721 l 614 61 q 611 44 611 53 q 628 28 611 28 l 622 0 q 610 1 614 0 q 583 40 583 10 q 584 47 583 43 q 587 62 585 51 q 593 93 589 72 q 604 150 597 114 q 539 84 575 114 q 463 32 503 54 q 382 -2 424 10 q 300 -14 340 -14 m 303 14 q 398 32 347 14 q 494 81 449 50 q 575 151 540 111 q 622 235 610 190 l 678 494 q 652 574 672 536 q 600 640 632 611 q 526 687 568 669 q 435 704 483 704 q 297 667 363 704 q 181 571 231 631 q 101 438 131 511 q 71 292 71 364 q 88 186 71 236 q 137 98 106 136 q 210 37 168 60 q 303 14 253 14 m 410 907 l 432 1014 l 460 1014 l 438 907 l 410 907 m 564 907 l 586 1014 l 614 1014 l 592 907 l 564 907 z "},"æ":{"ha":1226,"x_min":1,"x_max":1181,"o":"m 190 -14 q 108 1 143 -14 q 49 40 72 15 q 13 98 25 65 q 1 167 1 131 q 27 267 1 222 q 98 344 53 313 q 204 394 143 376 q 335 413 265 413 q 430 405 382 413 q 518 385 478 397 q 543 456 528 421 q 578 522 558 490 q 532 655 578 606 q 404 704 486 704 q 288 681 350 704 q 160 615 226 658 l 149 638 q 289 709 226 686 q 410 732 351 732 q 544 688 490 732 q 604 560 597 644 q 746 685 664 638 q 915 732 828 732 q 1021 711 972 732 q 1105 653 1069 690 q 1160 566 1140 617 q 1181 456 1181 515 q 1177 399 1181 432 q 1163 344 1174 367 l 538 344 q 533 286 533 313 q 550 178 533 228 q 598 91 567 128 q 673 34 629 54 q 771 14 717 14 q 850 25 810 14 q 927 56 890 36 q 995 104 964 76 q 1047 165 1026 132 l 1072 158 q 1016 90 1050 121 q 940 35 982 58 q 853 -1 899 13 q 764 -14 808 -14 q 616 32 678 -14 q 525 154 554 78 q 452 76 494 108 q 363 24 410 44 q 271 -5 317 4 q 190 -14 225 -14 m 199 14 q 292 27 242 14 q 387 64 342 40 q 467 119 432 88 q 514 190 501 151 q 503 276 503 232 q 511 356 503 314 q 423 378 469 371 q 332 385 376 385 q 210 369 265 385 q 114 326 154 354 q 51 260 74 299 q 29 172 29 221 q 39 113 29 142 q 69 63 49 85 q 122 27 90 40 q 199 14 154 14 m 1140 372 q 1150 451 1150 410 q 1135 546 1150 500 q 1091 627 1121 592 q 1016 683 1061 663 q 911 704 971 704 q 792 679 850 704 q 685 610 733 654 q 599 504 636 565 q 543 372 561 443 l 1140 372 z "},"ǽ":{"ha":1228,"x_min":3,"x_max":1182,"o":"m 192 -14 q 109 1 144 -14 q 50 40 74 15 q 15 98 26 65 q 3 167 3 131 q 28 267 3 222 q 99 344 54 313 q 206 394 144 376 q 336 413 267 413 q 431 405 383 413 q 519 385 479 397 q 544 456 529 421 q 579 522 560 490 q 533 655 579 606 q 406 704 488 704 q 290 681 351 704 q 161 615 228 658 l 150 638 q 290 709 228 686 q 411 732 353 732 q 545 688 492 732 q 606 560 599 644 q 747 685 665 638 q 917 732 829 732 q 1022 711 974 732 q 1106 653 1071 690 q 1162 566 1142 617 q 1182 456 1182 515 q 1178 399 1182 432 q 1164 344 1175 367 l 539 344 q 535 286 535 313 q 551 178 535 228 q 599 91 568 128 q 674 34 631 54 q 772 14 718 14 q 851 25 811 14 q 928 56 892 36 q 997 104 965 76 q 1049 165 1028 132 l 1074 158 q 1017 90 1051 121 q 942 35 983 58 q 855 -1 900 13 q 765 -14 810 -14 q 617 32 679 -14 q 526 154 556 78 q 453 76 496 108 q 365 24 411 44 q 272 -5 318 4 q 192 -14 226 -14 m 200 14 q 293 27 243 14 q 388 64 343 40 q 468 119 433 88 q 515 190 503 151 q 504 276 504 232 q 513 356 504 314 q 424 378 471 371 q 333 385 378 385 q 211 369 267 385 q 115 326 156 354 q 53 260 75 299 q 31 172 31 221 q 40 113 31 142 q 71 63 50 85 q 124 27 92 40 q 200 14 156 14 m 1142 372 q 1151 451 1151 410 q 1137 546 1151 500 q 1092 627 1122 592 q 1017 683 1063 663 q 913 704 972 704 q 793 679 851 704 q 686 610 735 654 q 600 504 638 565 q 544 372 563 443 l 1142 372 m 653 896 l 635 913 l 740 1014 l 786 1014 l 653 896 z "},"à":{"ha":806,"x_min":43,"x_max":756,"o":"m 300 -14 q 192 12 240 -14 q 111 80 144 38 q 60 178 78 122 q 43 292 43 233 q 76 454 43 375 q 166 595 110 533 q 295 694 222 657 q 446 732 368 732 q 534 717 494 732 q 603 678 574 703 q 656 622 633 654 q 690 553 678 589 l 726 721 l 756 721 l 614 61 q 611 44 611 53 q 628 28 611 28 l 622 0 q 610 1 614 0 q 583 40 583 10 q 584 47 583 43 q 587 62 585 51 q 593 93 589 72 q 604 150 597 114 q 539 84 575 114 q 463 32 503 54 q 382 -2 424 10 q 300 -14 340 -14 m 303 14 q 398 32 347 14 q 494 81 449 50 q 575 151 540 111 q 622 235 610 190 l 678 494 q 652 574 672 536 q 600 640 632 611 q 526 687 568 669 q 435 704 483 704 q 297 667 363 704 q 181 571 231 631 q 101 438 131 511 q 71 292 71 364 q 88 186 71 236 q 137 98 106 136 q 210 37 168 60 q 303 14 253 14 m 456 1014 l 500 1014 l 564 913 l 539 896 l 456 1014 z "},"ā":{"ha":806,"x_min":43,"x_max":756,"o":"m 300 -14 q 192 12 240 -14 q 111 80 144 38 q 60 178 78 122 q 43 292 43 233 q 76 454 43 375 q 166 595 110 533 q 295 694 222 657 q 446 732 368 732 q 534 717 494 732 q 603 678 574 703 q 656 622 633 654 q 690 553 678 589 l 726 721 l 756 721 l 614 61 q 611 44 611 53 q 628 28 611 28 l 622 0 q 610 1 614 0 q 583 40 583 10 q 584 47 583 43 q 587 62 585 51 q 593 93 589 72 q 604 150 597 114 q 539 84 575 114 q 463 32 503 54 q 382 -2 424 10 q 300 -14 340 -14 m 303 14 q 398 32 347 14 q 494 81 449 50 q 575 151 540 111 q 622 235 610 190 l 678 494 q 652 574 672 536 q 600 640 632 611 q 526 687 568 669 q 435 704 483 704 q 297 667 363 704 q 181 571 231 631 q 101 438 131 511 q 71 292 71 364 q 88 186 71 236 q 137 98 106 136 q 210 37 168 60 q 303 14 253 14 m 328 953 l 333 981 l 703 981 l 697 953 l 328 953 z "},"&":{"ha":928,"x_min":28,"x_max":911,"o":"m 589 167 q 434 34 518 82 q 261 -14 350 -14 q 167 3 210 -14 q 93 50 124 19 q 45 123 63 81 q 28 217 28 165 q 43 308 28 264 q 92 397 58 353 q 179 483 125 440 q 313 569 233 525 q 247 686 265 642 q 228 769 228 731 q 250 856 228 815 q 310 929 272 897 q 397 980 347 961 q 500 999 446 999 q 633 960 575 999 q 721 853 690 922 l 701 836 q 620 938 674 901 q 496 974 567 974 q 406 957 449 974 q 329 912 363 940 q 276 847 296 883 q 256 771 256 810 q 276 688 256 733 q 342 576 297 642 l 593 217 q 685 382 646 290 q 744 578 725 474 l 911 578 l 906 550 l 769 550 q 706 356 746 446 q 610 193 665 265 l 744 0 l 704 0 l 589 167 m 265 15 q 427 62 349 15 q 572 190 506 108 l 326 547 q 122 387 186 465 q 58 219 58 308 q 74 136 58 174 q 116 72 89 99 q 181 30 143 44 q 265 15 219 15 z "},"ą":{"ha":806,"x_min":43,"x_max":756,"o":"m 510 -221 q 470 -195 483 -214 q 457 -153 457 -176 q 464 -115 457 -133 q 487 -78 471 -97 q 529 -37 503 -58 q 594 10 556 -15 q 583 40 583 19 q 584 47 583 43 q 587 62 585 51 q 593 93 589 72 q 604 150 597 114 q 539 84 575 114 q 463 32 503 54 q 382 -2 424 10 q 300 -14 340 -14 q 192 12 240 -14 q 111 80 144 38 q 60 178 78 122 q 43 292 43 233 q 76 454 43 375 q 166 595 110 533 q 295 694 222 657 q 446 732 368 732 q 534 717 494 732 q 603 678 574 703 q 656 622 633 654 q 690 553 678 589 l 726 721 l 756 721 l 614 61 q 611 44 611 53 q 628 28 611 28 l 622 0 q 555 -45 582 -25 q 513 -82 528 -65 q 491 -114 497 -99 q 485 -146 485 -129 q 532 -197 485 -186 l 510 -221 m 303 14 q 398 32 347 14 q 494 81 449 50 q 575 151 540 111 q 622 235 610 190 l 678 494 q 652 574 672 536 q 600 640 632 611 q 526 687 568 669 q 435 704 483 704 q 297 667 363 704 q 181 571 231 631 q 101 438 131 511 q 71 292 71 364 q 88 186 71 236 q 137 98 106 136 q 210 37 168 60 q 303 14 253 14 z "},"ʼ":{"ha":749,"x_min":421,"x_max":572,"o":"m 572 1014 l 439 896 l 421 913 l 489 978 l 500 1014 l 572 1014 z "},"å":{"ha":806,"x_min":43,"x_max":756,"o":"m 300 -14 q 192 12 240 -14 q 111 80 144 38 q 60 178 78 122 q 43 292 43 233 q 76 454 43 375 q 166 595 110 533 q 295 694 222 657 q 446 732 368 732 q 534 717 494 732 q 603 678 574 703 q 656 622 633 654 q 690 553 678 589 l 726 721 l 756 721 l 614 61 q 611 44 611 53 q 628 28 611 28 l 622 0 q 610 1 614 0 q 583 40 583 10 q 584 47 583 43 q 587 62 585 51 q 593 93 589 72 q 604 150 597 114 q 539 84 575 114 q 463 32 503 54 q 382 -2 424 10 q 300 -14 340 -14 m 303 14 q 398 32 347 14 q 494 81 449 50 q 575 151 540 111 q 622 235 610 190 l 678 494 q 652 574 672 536 q 600 640 632 611 q 526 687 568 669 q 435 704 483 704 q 297 667 363 704 q 181 571 231 631 q 101 438 131 511 q 71 292 71 364 q 88 186 71 236 q 137 98 106 136 q 210 37 168 60 q 303 14 253 14 m 429 919 q 437 956 429 939 q 458 986 444 974 q 488 1006 471 999 q 524 1014 506 1014 q 567 996 551 1014 q 583 950 583 978 q 576 913 583 931 q 555 883 568 896 q 524 863 542 871 q 489 856 507 856 q 445 874 461 856 q 429 919 429 892 m 518 992 q 472 973 493 992 q 451 924 451 954 q 463 891 451 904 q 494 878 475 878 q 540 897 517 878 q 563 946 563 917 q 550 979 563 967 q 518 992 538 992 z "},"ǻ":{"ha":806,"x_min":43,"x_max":756,"o":"m 300 -14 q 192 12 240 -14 q 111 80 144 38 q 60 178 78 122 q 43 292 43 233 q 76 454 43 375 q 166 595 110 533 q 295 694 222 657 q 446 732 368 732 q 534 717 494 732 q 603 678 574 703 q 656 622 633 654 q 690 553 678 589 l 726 721 l 756 721 l 614 61 q 611 44 611 53 q 628 28 611 28 l 622 0 q 610 1 614 0 q 583 40 583 10 q 584 47 583 43 q 587 62 585 51 q 593 93 589 72 q 604 150 597 114 q 539 84 575 114 q 463 32 503 54 q 382 -2 424 10 q 300 -14 340 -14 m 303 14 q 398 32 347 14 q 494 81 449 50 q 575 151 540 111 q 622 235 610 190 l 678 494 q 652 574 672 536 q 600 640 632 611 q 526 687 568 669 q 435 704 483 704 q 297 667 363 704 q 181 571 231 631 q 101 438 131 511 q 71 292 71 364 q 88 186 71 236 q 137 98 106 136 q 210 37 168 60 q 303 14 253 14 m 431 919 q 438 956 431 939 q 459 986 446 974 q 490 1006 472 999 q 525 1014 507 1014 q 569 996 553 1014 q 585 950 585 978 q 577 913 585 931 q 556 883 569 896 q 526 863 543 871 q 490 856 508 856 q 447 874 463 856 q 431 919 431 892 m 519 992 q 474 973 494 992 q 453 924 453 954 q 465 891 453 904 q 496 878 476 878 q 541 897 518 878 q 564 946 564 917 q 551 979 564 967 q 519 992 539 992 m 499 1083 l 481 1100 l 586 1201 l 632 1201 l 499 1083 z "},"^":{"ha":701,"x_min":76,"x_max":650,"o":"m 76 421 l 351 986 l 376 986 l 650 421 l 618 421 l 364 946 l 106 421 l 76 421 z "},"~":{"ha":614,"x_min":78,"x_max":526,"o":"m 78 349 q 84 368 78 350 q 105 407 90 386 q 141 444 119 428 q 194 461 163 461 q 248 448 222 461 q 299 419 274 435 q 349 390 324 403 q 401 376 374 376 q 444 387 426 376 q 475 411 463 397 q 493 437 488 425 q 499 451 499 449 l 526 450 q 510 415 519 433 q 485 383 500 397 q 450 358 471 368 q 401 349 429 349 q 340 362 368 349 q 288 391 313 375 q 240 420 263 407 q 194 433 217 433 q 157 420 174 433 q 128 392 140 407 q 111 363 117 376 q 106 349 106 350 l 78 349 z "},"*":{"ha":407,"x_min":189,"x_max":408,"o":"m 200 783 l 271 863 l 189 893 l 203 919 l 285 889 l 306 986 l 332 986 l 311 889 l 408 919 l 408 893 l 314 863 l 353 783 l 326 767 l 289 846 l 218 767 l 200 783 z "},"@":{"ha":1099,"x_min":36,"x_max":1010,"o":"m 750 6 q 836 41 794 6 q 910 135 878 76 q 963 267 943 193 q 982 417 982 340 q 955 577 982 504 q 879 701 928 650 q 765 781 831 753 q 619 810 699 810 q 414 760 514 810 q 236 628 314 711 q 111 440 158 546 q 64 219 64 333 q 91 63 64 135 q 166 -62 118 -10 q 281 -145 214 -115 q 428 -175 349 -175 q 633 -122 529 -175 l 642 -147 q 524 -189 583 -175 q 413 -203 465 -203 q 262 -170 331 -203 q 143 -81 193 -137 q 65 53 93 -24 q 36 218 36 129 q 59 375 36 299 q 123 520 82 451 q 219 647 164 589 q 340 748 275 706 q 478 814 406 790 q 624 838 550 838 q 776 808 706 838 q 899 723 847 778 q 981 591 951 668 q 1010 421 1010 514 q 988 260 1010 339 q 928 118 965 181 q 841 17 890 56 q 736 -22 792 -22 q 682 -3 699 -22 q 665 61 665 17 q 667 87 665 72 q 671 117 668 101 q 563 44 624 71 q 444 17 501 17 q 364 34 400 17 q 301 83 328 51 q 261 158 275 114 q 247 256 247 203 q 274 396 247 329 q 345 513 300 463 q 450 594 390 564 q 575 624 510 624 q 687 592 640 624 q 757 503 733 561 l 782 625 l 810 625 l 706 138 q 697 90 699 107 q 696 65 696 74 q 750 6 696 6 m 451 44 q 523 56 486 44 q 593 88 560 68 q 652 135 626 108 q 690 193 678 163 l 746 464 q 682 560 728 526 q 571 594 636 594 q 459 567 513 594 q 365 493 406 539 q 299 386 324 447 q 275 258 275 325 q 288 173 275 213 q 323 105 300 133 q 378 60 346 76 q 451 44 411 44 z "},"ã":{"ha":806,"x_min":43,"x_max":756,"o":"m 300 -14 q 192 12 240 -14 q 111 80 144 38 q 60 178 78 122 q 43 292 43 233 q 76 454 43 375 q 166 595 110 533 q 295 694 222 657 q 446 732 368 732 q 534 717 494 732 q 603 678 574 703 q 656 622 633 654 q 690 553 678 589 l 726 721 l 756 721 l 614 61 q 611 44 611 53 q 628 28 611 28 l 622 0 q 610 1 614 0 q 583 40 583 10 q 584 47 583 43 q 587 62 585 51 q 593 93 589 72 q 604 150 597 114 q 539 84 575 114 q 463 32 503 54 q 382 -2 424 10 q 300 -14 340 -14 m 303 14 q 398 32 347 14 q 494 81 449 50 q 575 151 540 111 q 622 235 610 190 l 678 494 q 652 574 672 536 q 600 640 632 611 q 526 687 568 669 q 435 704 483 704 q 297 667 363 704 q 181 571 231 631 q 101 438 131 511 q 71 292 71 364 q 88 186 71 236 q 137 98 106 136 q 210 37 168 60 q 303 14 253 14 m 579 921 q 530 929 550 921 q 493 947 510 938 q 461 965 476 957 q 425 974 446 974 q 389 965 404 974 q 364 944 374 956 q 349 921 354 932 q 343 907 344 910 l 317 907 q 323 925 317 910 q 342 957 329 940 q 378 987 356 974 q 433 1000 400 1000 q 476 992 458 1000 q 510 974 494 983 q 544 956 526 964 q 588 947 563 947 q 632 957 614 947 q 660 978 650 967 q 675 1001 671 990 q 679 1014 679 1011 l 706 1014 q 698 994 704 1010 q 677 963 692 979 q 639 933 663 946 q 579 921 615 921 z "},"b":{"ha":800,"x_min":24,"x_max":735,"o":"m 321 -14 q 237 -1 275 -14 q 169 35 199 13 q 117 88 139 58 q 83 150 96 118 l 51 0 l 24 0 l 239 1014 l 267 1014 l 169 553 q 318 682 240 632 q 485 732 396 732 q 595 706 549 732 q 673 638 642 679 q 719 542 704 596 q 735 435 735 489 q 699 267 735 347 q 604 124 663 186 q 472 24 546 61 q 321 -14 397 -14 m 324 14 q 466 50 397 14 q 588 145 535 86 q 674 279 642 204 q 706 433 706 354 q 690 534 706 485 q 646 621 675 583 q 574 681 617 658 q 475 704 531 704 q 385 688 428 704 q 303 645 342 672 q 228 583 264 618 q 158 508 192 547 l 94 196 q 174 63 110 111 q 324 14 238 14 z "},"\\":{"ha":667,"x_min":144,"x_max":544,"o":"m 181 986 l 544 0 l 510 0 l 144 986 l 181 986 z "},"|":{"ha":353,"x_min":169,"x_max":197,"o":"m 169 -181 l 169 1076 l 197 1076 l 197 -181 l 169 -181 z "},"{":{"ha":301,"x_min":42,"x_max":361,"o":"m 283 1000 l 193 578 q 183 545 192 571 q 149 500 174 519 q 160 478 157 490 q 163 453 163 465 q 161 433 163 442 q 160 422 160 425 l 67 -15 l 140 -15 l 133 -43 l 64 -43 q 49 -37 56 -43 q 42 -17 42 -32 q 43 -1 42 -7 l 133 422 q 136 446 136 436 q 130 473 136 461 q 107 488 124 485 l 113 515 q 136 524 126 515 q 152 542 146 532 q 161 563 158 553 q 165 578 164 574 l 253 986 q 272 1021 258 1014 q 292 1028 285 1028 l 361 1028 l 356 1000 l 283 1000 z "},"}":{"ha":303,"x_min":-28,"x_max":293,"o":"m 194 1000 l 200 1028 l 269 1028 q 283 1023 274 1028 q 293 999 293 1018 q 292 986 293 990 l 204 578 q 201 554 201 569 q 207 528 201 540 q 231 515 213 515 l 225 488 q 188 464 201 485 q 171 422 175 443 l 82 -1 q 65 -34 76 -25 q 42 -43 53 -43 l -28 -43 l -22 -15 l 50 -15 l 143 422 q 154 455 144 429 q 188 500 164 481 q 176 524 179 511 q 174 547 174 536 q 176 578 174 569 l 267 1000 l 194 1000 z "},"[":{"ha":300,"x_min":32,"x_max":356,"o":"m 32 -56 l 263 1028 l 356 1028 l 350 1000 l 283 1000 l 65 -28 l 132 -28 l 126 -56 l 32 -56 z "},"]":{"ha":299,"x_min":-28,"x_max":296,"o":"m -28 -56 l -22 -28 l 44 -28 l 263 1000 l 197 1000 l 203 1028 l 296 1028 l 67 -56 l -28 -56 z "},"¦":{"ha":344,"x_min":165,"x_max":193,"o":"m 193 396 l 193 -181 l 165 -181 l 165 396 l 193 396 m 193 1076 l 193 500 l 165 500 l 165 1076 l 193 1076 z "},"•":{"ha":460,"x_min":135,"x_max":347,"o":"m 347 496 q 336 446 347 469 q 308 405 325 422 q 267 377 290 388 q 218 367 243 367 q 158 392 182 367 q 135 457 135 418 q 146 506 135 482 q 176 547 157 529 q 218 574 194 564 q 265 585 242 585 q 325 558 303 585 q 347 496 347 532 z "},"c":{"ha":714,"x_min":43,"x_max":685,"o":"m 304 -14 q 198 10 246 -14 q 115 75 150 33 q 62 172 81 117 q 43 292 43 228 q 78 461 43 381 q 171 601 113 542 q 305 697 229 661 q 461 732 381 732 q 607 690 549 732 q 685 571 665 647 l 654 561 q 581 666 635 628 q 451 704 526 704 q 310 672 379 704 q 189 583 242 639 q 103 453 136 528 q 71 297 71 379 q 88 187 71 239 q 136 97 106 135 q 210 36 167 58 q 306 14 253 14 q 388 26 346 14 q 468 60 431 39 q 535 108 506 81 q 579 165 565 136 l 606 157 q 553 90 586 121 q 480 35 521 58 q 394 -1 439 13 q 304 -14 349 -14 z "},"ć":{"ha":714,"x_min":43,"x_max":685,"o":"m 304 -14 q 198 10 246 -14 q 115 75 150 33 q 62 172 81 117 q 43 292 43 228 q 78 461 43 381 q 171 601 113 542 q 305 697 229 661 q 461 732 381 732 q 607 690 549 732 q 685 571 665 647 l 654 561 q 581 666 635 628 q 451 704 526 704 q 310 672 379 704 q 189 583 242 639 q 103 453 136 528 q 71 297 71 379 q 88 187 71 239 q 136 97 106 135 q 210 36 167 58 q 306 14 253 14 q 388 26 346 14 q 468 60 431 39 q 535 108 506 81 q 579 165 565 136 l 606 157 q 553 90 586 121 q 480 35 521 58 q 394 -1 439 13 q 304 -14 349 -14 m 457 896 l 439 913 l 544 1014 l 590 1014 l 457 896 z "},"č":{"ha":714,"x_min":43,"x_max":685,"o":"m 304 -14 q 198 10 246 -14 q 115 75 150 33 q 62 172 81 117 q 43 292 43 228 q 78 461 43 381 q 171 601 113 542 q 305 697 229 661 q 461 732 381 732 q 607 690 549 732 q 685 571 665 647 l 654 561 q 581 666 635 628 q 451 704 526 704 q 310 672 379 704 q 189 583 242 639 q 103 453 136 528 q 71 297 71 379 q 88 187 71 239 q 136 97 106 135 q 210 36 167 58 q 306 14 253 14 q 388 26 346 14 q 468 60 431 39 q 535 108 506 81 q 579 165 565 136 l 606 157 q 553 90 586 121 q 480 35 521 58 q 394 -1 439 13 q 304 -14 349 -14 m 383 997 l 408 1014 l 503 926 l 633 1014 l 651 997 l 507 894 l 485 894 l 383 997 z "},"ç":{"ha":714,"x_min":43,"x_max":685,"o":"m 171 -175 q 219 -192 190 -185 q 281 -200 247 -200 q 371 -135 371 -200 q 356 -103 371 -112 q 317 -94 340 -94 q 257 -102 289 -94 q 206 -117 225 -110 l 283 -12 q 185 17 229 -8 q 109 83 140 42 q 60 177 78 124 q 43 292 43 231 q 78 461 43 381 q 171 601 113 542 q 305 697 229 661 q 461 732 381 732 q 607 690 549 732 q 685 571 665 647 l 654 561 q 581 666 635 628 q 451 704 526 704 q 310 672 379 704 q 189 583 242 639 q 103 453 136 528 q 71 297 71 379 q 88 187 71 239 q 136 97 106 135 q 210 36 167 58 q 306 14 253 14 q 388 26 346 14 q 468 60 431 39 q 535 108 506 81 q 579 165 565 136 l 606 157 q 555 91 586 121 q 485 38 524 61 q 402 1 446 15 q 315 -14 358 -12 l 264 -81 q 295 -74 279 -75 q 322 -72 311 -72 q 397 -131 397 -72 q 363 -203 397 -179 q 271 -226 329 -226 q 206 -219 236 -226 q 153 -200 176 -211 l 171 -175 z "},"ĉ":{"ha":714,"x_min":43,"x_max":685,"o":"m 304 -14 q 198 10 246 -14 q 115 75 150 33 q 62 172 81 117 q 43 292 43 228 q 78 461 43 381 q 171 601 113 542 q 305 697 229 661 q 461 732 381 732 q 607 690 549 732 q 685 571 665 647 l 654 561 q 581 666 635 628 q 451 704 526 704 q 310 672 379 704 q 189 583 242 639 q 103 453 136 528 q 71 297 71 379 q 88 187 71 239 q 136 97 106 135 q 210 36 167 58 q 306 14 253 14 q 388 26 346 14 q 468 60 431 39 q 535 108 506 81 q 579 165 565 136 l 606 157 q 553 90 586 121 q 480 35 521 58 q 394 -1 439 13 q 304 -14 349 -14 m 376 911 l 521 1014 l 543 1014 l 644 911 l 619 894 l 525 982 l 394 894 l 376 911 z "},"ċ":{"ha":714,"x_min":43,"x_max":685,"o":"m 304 -14 q 198 10 246 -14 q 115 75 150 33 q 62 172 81 117 q 43 292 43 228 q 78 461 43 381 q 171 601 113 542 q 305 697 229 661 q 461 732 381 732 q 607 690 549 732 q 685 571 665 647 l 654 561 q 581 666 635 628 q 451 704 526 704 q 310 672 379 704 q 189 583 242 639 q 103 453 136 528 q 71 297 71 379 q 88 187 71 239 q 136 97 106 135 q 210 36 167 58 q 306 14 253 14 q 388 26 346 14 q 468 60 431 39 q 535 108 506 81 q 579 165 565 136 l 606 157 q 553 90 586 121 q 480 35 521 58 q 394 -1 439 13 q 304 -14 349 -14 m 489 907 l 511 1014 l 539 1014 l 517 907 l 489 907 z "},"¢":{"ha":725,"x_min":43,"x_max":683,"o":"m 243 -167 l 276 -12 q 177 19 221 -8 q 103 89 133 47 q 58 183 74 131 q 43 292 43 236 q 75 448 43 371 q 160 587 107 525 q 285 688 214 649 q 435 732 356 728 l 469 896 l 496 896 l 461 732 q 550 718 513 731 q 614 684 588 706 q 657 634 640 663 q 683 571 674 606 l 654 561 q 580 667 632 633 q 456 704 528 701 l 308 14 q 381 24 340 14 q 460 55 421 35 q 531 103 499 75 q 579 165 564 131 l 606 157 q 547 83 583 115 q 469 30 511 51 q 384 -3 428 8 q 303 -14 340 -14 l 269 -167 l 243 -167 m 71 294 q 85 193 71 242 q 128 106 100 144 q 194 44 156 68 q 282 15 233 19 l 428 704 q 285 660 350 700 q 172 562 219 621 q 98 432 125 503 q 71 294 71 361 z "},":":{"ha":215,"x_min":4,"x_max":185,"o":"m 138 629 l 157 718 l 185 718 l 165 629 l 138 629 m 4 0 l 24 89 l 50 89 l 32 0 l 4 0 z "},",":{"ha":357,"x_min":44,"x_max":124,"o":"m 44 -112 l 79 -14 l 67 -14 l 89 89 l 124 89 l 101 -14 l 64 -112 l 44 -112 z "},"©":{"ha":1161,"x_min":94,"x_max":1097,"o":"m 596 -10 q 396 28 488 -10 q 238 134 304 67 q 133 293 171 201 q 94 493 94 385 q 133 692 94 600 q 238 850 171 783 q 396 955 304 917 q 596 993 488 993 q 796 955 704 993 q 954 850 888 917 q 1059 692 1021 783 q 1097 493 1097 600 q 1059 293 1097 385 q 954 134 1021 201 q 796 28 888 67 q 596 -10 704 -10 m 597 18 q 783 52 697 18 q 932 149 868 86 q 1032 298 996 211 q 1068 489 1068 385 q 1033 679 1068 592 q 934 830 997 767 q 785 929 871 893 q 597 965 699 965 q 408 930 494 965 q 258 831 322 894 q 159 680 194 767 q 124 492 124 593 q 159 303 124 390 q 258 153 194 217 q 408 54 321 90 q 597 18 494 18 m 606 176 q 499 197 553 176 q 401 259 444 218 q 329 359 357 300 q 301 493 301 418 q 319 606 301 549 q 372 709 336 663 q 463 785 407 756 q 594 814 518 814 q 738 781 672 814 q 831 676 803 747 l 804 667 q 762 728 788 704 q 706 765 736 751 q 647 782 676 778 q 594 786 617 786 q 475 759 525 786 q 393 690 425 732 q 345 595 361 647 q 329 493 329 543 q 355 370 329 424 q 420 280 381 317 q 508 224 460 243 q 600 204 556 204 q 663 213 631 204 q 726 238 696 222 q 781 278 757 254 q 818 331 806 301 l 844 324 q 819 280 839 306 q 769 231 800 254 q 696 192 738 208 q 606 176 654 176 z "},"d":{"ha":804,"x_min":43,"x_max":817,"o":"m 303 -14 q 193 12 242 -14 q 111 80 144 38 q 60 178 78 122 q 43 293 43 233 q 76 455 43 376 q 166 595 110 533 q 296 694 222 657 q 449 732 369 732 q 535 717 496 732 q 603 678 574 703 q 656 622 633 654 q 690 553 678 589 l 788 1014 l 817 1014 l 613 60 q 611 52 611 56 q 611 46 611 49 q 628 28 611 28 l 622 0 q 606 3 614 0 q 583 42 583 11 q 583 47 583 43 q 585 60 583 50 q 592 92 588 71 q 604 150 596 113 q 539 84 575 114 q 463 32 503 54 q 383 -2 424 10 q 303 -14 342 -14 m 308 14 q 398 32 349 14 q 493 80 447 50 q 574 150 539 110 q 622 235 610 190 l 678 494 q 651 576 672 538 q 597 642 629 614 q 524 688 564 671 q 443 704 485 704 q 299 667 367 704 q 180 572 231 631 q 100 441 129 514 q 71 296 71 368 q 88 188 71 239 q 135 98 104 136 q 210 37 167 60 q 308 14 254 14 z "},"†":{"ha":497,"x_min":50,"x_max":431,"o":"m 108 -181 l 224 363 l 50 363 l 56 390 l 231 390 l 376 1076 l 404 1076 l 258 390 l 431 390 l 425 363 l 251 363 l 136 -181 l 108 -181 z "},"‡":{"ha":508,"x_min":38,"x_max":457,"o":"m 114 -181 l 211 279 l 38 279 l 43 307 l 218 307 l 250 460 l 76 460 l 82 488 l 256 488 l 381 1076 l 408 1076 l 283 488 l 457 488 l 450 460 l 278 460 l 246 307 l 418 307 l 413 279 l 239 279 l 142 -181 l 114 -181 z "},"ď":{"ha":804,"x_min":43,"x_max":1004,"o":"m 303 -14 q 193 12 242 -14 q 111 80 144 38 q 60 178 78 122 q 43 293 43 233 q 76 455 43 376 q 166 595 110 533 q 296 694 222 657 q 449 732 369 732 q 535 717 496 732 q 603 678 574 703 q 656 622 633 654 q 690 553 678 589 l 788 1014 l 817 1014 l 613 60 q 611 52 611 56 q 611 46 611 49 q 628 28 611 28 l 622 0 q 606 3 614 0 q 583 42 583 11 q 583 47 583 43 q 585 60 583 50 q 592 92 588 71 q 604 150 596 113 q 539 84 575 114 q 463 32 503 54 q 383 -2 424 10 q 303 -14 342 -14 m 308 14 q 398 32 349 14 q 493 80 447 50 q 574 150 539 110 q 622 235 610 190 l 678 494 q 651 576 672 538 q 597 642 629 614 q 524 688 564 671 q 443 704 485 704 q 299 667 367 704 q 180 572 231 631 q 100 441 129 514 q 71 296 71 368 q 88 188 71 239 q 135 98 104 136 q 210 37 167 60 q 308 14 254 14 m 853 913 l 958 1014 l 1004 1014 l 871 896 l 853 913 z "},"đ":{"ha":804,"x_min":43,"x_max":893,"o":"m 601 907 l 764 907 l 788 1014 l 817 1014 l 793 907 l 893 907 l 888 879 l 788 879 l 613 56 q 611 46 611 53 q 628 28 611 28 l 622 0 q 592 12 601 0 q 583 42 583 24 q 585 56 583 51 l 604 150 q 539 84 575 114 q 463 32 503 54 q 383 -2 424 10 q 303 -14 342 -14 q 193 12 242 -14 q 111 80 144 38 q 60 178 78 122 q 43 293 43 233 q 76 455 43 376 q 166 595 110 533 q 296 694 222 657 q 449 732 369 732 q 535 717 496 732 q 603 678 574 703 q 656 622 633 654 q 690 553 678 589 l 758 879 l 596 879 l 601 907 m 308 14 q 398 32 349 14 q 493 80 447 50 q 574 150 539 110 q 622 235 610 190 l 678 494 q 651 576 672 538 q 597 642 629 614 q 524 688 564 671 q 443 704 485 704 q 299 667 367 704 q 180 572 231 631 q 100 441 129 514 q 71 296 71 368 q 88 188 71 239 q 135 98 104 136 q 210 37 167 60 q 308 14 254 14 z "},"°":{"ha":340,"x_min":176,"x_max":365,"o":"m 250 814 q 197 835 218 814 q 176 889 176 857 q 185 931 176 910 q 210 968 194 951 q 247 995 226 985 q 292 1006 268 1006 q 344 983 324 1006 q 365 926 365 960 q 356 884 365 904 q 330 848 346 864 q 293 823 314 832 q 250 814 272 814 m 257 842 q 284 848 269 842 q 310 865 299 854 q 330 891 322 876 q 338 922 338 906 q 323 962 338 950 q 285 974 308 974 q 231 951 254 974 q 208 897 208 929 q 221 858 208 874 q 257 842 233 842 z "},"÷":{"ha":761,"x_min":92,"x_max":651,"o":"m 357 535 l 357 624 l 385 624 l 385 535 l 357 535 m 357 128 l 357 217 l 385 217 l 385 128 l 357 128 m 92 363 l 92 390 l 651 390 l 651 363 l 92 363 z "},"$":{"ha":818,"x_min":8,"x_max":801,"o":"m 779 856 q 683 944 738 921 q 544 967 628 967 l 446 506 q 562 474 510 490 q 651 433 614 457 q 709 374 689 408 q 729 289 729 339 q 701 165 729 219 q 622 72 674 110 q 499 13 571 33 q 338 -7 426 -7 l 313 -129 l 285 -129 l 311 -6 q 136 35 210 -1 q 8 146 63 71 l 32 164 q 151 57 83 92 q 315 17 219 22 l 415 485 q 306 513 354 497 q 225 550 258 528 q 174 604 192 572 q 157 682 157 636 q 184 808 157 751 q 259 904 211 864 q 374 967 307 944 q 522 993 442 990 l 553 1132 l 581 1132 l 550 993 q 699 965 639 992 q 801 875 760 938 l 779 856 m 700 282 q 636 408 700 365 q 440 479 572 450 l 342 17 q 490 34 424 17 q 603 85 557 51 q 675 167 650 118 q 700 282 700 217 m 186 688 q 201 622 186 649 q 244 574 215 594 q 317 540 274 554 q 421 511 361 525 l 518 967 q 367 941 429 964 q 264 881 304 918 q 205 793 224 843 q 186 688 186 743 z "},"ı":{"ha":253,"x_min":24,"x_max":204,"o":"m 176 721 l 204 721 l 51 0 l 24 0 l 176 721 z "},"ȷ":{"ha":253,"x_min":-297,"x_max":204,"o":"m -175 -236 q -246 -226 -214 -236 q -297 -189 -278 -217 l -272 -172 q -226 -201 -253 -194 q -171 -208 -199 -208 q -115 -196 -144 -208 q -59 -162 -85 -183 q -14 -112 -33 -142 q 13 -50 6 -83 l 176 721 l 204 721 l 40 -50 q 8 -124 32 -90 q -46 -183 -15 -158 q -110 -222 -76 -208 q -175 -236 -144 -236 z "},"e":{"ha":724,"x_min":43,"x_max":675,"o":"m 306 -14 q 194 10 243 -14 q 113 76 146 35 q 61 174 79 118 q 43 292 43 229 q 75 453 43 374 q 163 594 107 532 q 296 694 219 656 q 463 732 372 732 q 535 719 497 732 q 604 683 574 707 q 655 624 635 660 q 675 542 675 589 q 311 344 675 344 q 203 346 258 344 q 76 351 147 347 q 72 293 72 322 q 88 185 72 236 q 133 97 103 135 q 210 36 164 58 q 315 14 256 14 q 393 26 353 14 q 471 58 433 38 q 540 110 508 79 q 592 178 571 140 l 618 169 q 560 94 594 128 q 485 36 526 60 q 399 -1 444 13 q 306 -14 353 -14 m 457 704 q 328 677 389 704 q 217 605 267 650 q 133 501 168 560 q 82 379 97 442 q 208 374 153 375 q 315 372 263 372 q 470 385 407 372 q 572 420 533 397 q 628 474 611 443 q 646 543 646 506 q 628 615 646 585 q 582 666 610 646 q 521 695 554 686 q 457 704 488 704 z "},"é":{"ha":724,"x_min":43,"x_max":675,"o":"m 306 -14 q 194 10 243 -14 q 113 76 146 35 q 61 174 79 118 q 43 292 43 229 q 75 453 43 374 q 163 594 107 532 q 296 694 219 656 q 463 732 372 732 q 535 719 497 732 q 604 683 574 707 q 655 624 635 660 q 675 542 675 589 q 311 344 675 344 q 203 346 258 344 q 76 351 147 347 q 72 293 72 322 q 88 185 72 236 q 133 97 103 135 q 210 36 164 58 q 315 14 256 14 q 393 26 353 14 q 471 58 433 38 q 540 110 508 79 q 592 178 571 140 l 618 169 q 560 94 594 128 q 485 36 526 60 q 399 -1 444 13 q 306 -14 353 -14 m 457 704 q 328 677 389 704 q 217 605 267 650 q 133 501 168 560 q 82 379 97 442 q 208 374 153 375 q 315 372 263 372 q 470 385 407 372 q 572 420 533 397 q 628 474 611 443 q 646 543 646 506 q 628 615 646 585 q 582 666 610 646 q 521 695 554 686 q 457 704 488 704 m 458 896 l 440 913 l 546 1014 l 592 1014 l 458 896 z "},"ĕ":{"ha":724,"x_min":43,"x_max":675,"o":"m 306 -14 q 194 10 243 -14 q 113 76 146 35 q 61 174 79 118 q 43 292 43 229 q 75 453 43 374 q 163 594 107 532 q 296 694 219 656 q 463 732 372 732 q 535 719 497 732 q 604 683 574 707 q 655 624 635 660 q 675 542 675 589 q 311 344 675 344 q 203 346 258 344 q 76 351 147 347 q 72 293 72 322 q 88 185 72 236 q 133 97 103 135 q 210 36 164 58 q 315 14 256 14 q 393 26 353 14 q 471 58 433 38 q 540 110 508 79 q 592 178 571 140 l 618 169 q 560 94 594 128 q 485 36 526 60 q 399 -1 444 13 q 306 -14 353 -14 m 457 704 q 328 677 389 704 q 217 605 267 650 q 133 501 168 560 q 82 379 97 442 q 208 374 153 375 q 315 372 263 372 q 470 385 407 372 q 572 420 533 397 q 628 474 611 443 q 646 543 646 506 q 628 615 646 585 q 582 666 610 646 q 521 695 554 686 q 457 704 488 704 m 506 931 q 560 955 533 931 q 597 1014 586 979 l 622 1014 q 606 974 618 993 q 576 940 593 954 q 540 916 560 925 q 501 907 521 907 q 444 932 467 907 q 422 993 422 957 q 425 1014 422 1000 l 451 1014 q 450 999 450 1008 q 466 951 450 971 q 506 931 482 931 z "},"ě":{"ha":724,"x_min":43,"x_max":675,"o":"m 306 -14 q 194 10 243 -14 q 113 76 146 35 q 61 174 79 118 q 43 292 43 229 q 75 453 43 374 q 163 594 107 532 q 296 694 219 656 q 463 732 372 732 q 535 719 497 732 q 604 683 574 707 q 655 624 635 660 q 675 542 675 589 q 311 344 675 344 q 203 346 258 344 q 76 351 147 347 q 72 293 72 322 q 88 185 72 236 q 133 97 103 135 q 210 36 164 58 q 315 14 256 14 q 393 26 353 14 q 471 58 433 38 q 540 110 508 79 q 592 178 571 140 l 618 169 q 560 94 594 128 q 485 36 526 60 q 399 -1 444 13 q 306 -14 353 -14 m 457 704 q 328 677 389 704 q 217 605 267 650 q 133 501 168 560 q 82 379 97 442 q 208 374 153 375 q 315 372 263 372 q 470 385 407 372 q 572 420 533 397 q 628 474 611 443 q 646 543 646 506 q 628 615 646 585 q 582 666 610 646 q 521 695 554 686 q 457 704 488 704 m 379 997 l 404 1014 l 499 926 l 629 1014 l 647 997 l 503 894 l 481 894 l 379 997 z "},"ê":{"ha":724,"x_min":43,"x_max":675,"o":"m 306 -14 q 194 10 243 -14 q 113 76 146 35 q 61 174 79 118 q 43 292 43 229 q 75 453 43 374 q 163 594 107 532 q 296 694 219 656 q 463 732 372 732 q 535 719 497 732 q 604 683 574 707 q 655 624 635 660 q 675 542 675 589 q 311 344 675 344 q 203 346 258 344 q 76 351 147 347 q 72 293 72 322 q 88 185 72 236 q 133 97 103 135 q 210 36 164 58 q 315 14 256 14 q 393 26 353 14 q 471 58 433 38 q 540 110 508 79 q 592 178 571 140 l 618 169 q 560 94 594 128 q 485 36 526 60 q 399 -1 444 13 q 306 -14 353 -14 m 457 704 q 328 677 389 704 q 217 605 267 650 q 133 501 168 560 q 82 379 97 442 q 208 374 153 375 q 315 372 263 372 q 470 385 407 372 q 572 420 533 397 q 628 474 611 443 q 646 543 646 506 q 628 615 646 585 q 582 666 610 646 q 521 695 554 686 q 457 704 488 704 m 381 911 l 525 1014 l 547 1014 l 649 911 l 624 894 l 529 982 l 399 894 l 381 911 z "},"ë":{"ha":724,"x_min":43,"x_max":675,"o":"m 306 -14 q 194 10 243 -14 q 113 76 146 35 q 61 174 79 118 q 43 292 43 229 q 75 453 43 374 q 163 594 107 532 q 296 694 219 656 q 463 732 372 732 q 535 719 497 732 q 604 683 574 707 q 655 624 635 660 q 675 542 675 589 q 311 344 675 344 q 203 346 258 344 q 76 351 147 347 q 72 293 72 322 q 88 185 72 236 q 133 97 103 135 q 210 36 164 58 q 315 14 256 14 q 393 26 353 14 q 471 58 433 38 q 540 110 508 79 q 592 178 571 140 l 618 169 q 560 94 594 128 q 485 36 526 60 q 399 -1 444 13 q 306 -14 353 -14 m 457 704 q 328 677 389 704 q 217 605 267 650 q 133 501 168 560 q 82 379 97 442 q 208 374 153 375 q 315 372 263 372 q 470 385 407 372 q 572 420 533 397 q 628 474 611 443 q 646 543 646 506 q 628 615 646 585 q 582 666 610 646 q 521 695 554 686 q 457 704 488 704 m 410 907 l 432 1014 l 460 1014 l 438 907 l 410 907 m 564 907 l 586 1014 l 614 1014 l 592 907 l 564 907 z "},"ė":{"ha":724,"x_min":43,"x_max":675,"o":"m 306 -14 q 194 10 243 -14 q 113 76 146 35 q 61 174 79 118 q 43 292 43 229 q 75 453 43 374 q 163 594 107 532 q 296 694 219 656 q 463 732 372 732 q 535 719 497 732 q 604 683 574 707 q 655 624 635 660 q 675 542 675 589 q 311 344 675 344 q 203 346 258 344 q 76 351 147 347 q 72 293 72 322 q 88 185 72 236 q 133 97 103 135 q 210 36 164 58 q 315 14 256 14 q 393 26 353 14 q 471 58 433 38 q 540 110 508 79 q 592 178 571 140 l 618 169 q 560 94 594 128 q 485 36 526 60 q 399 -1 444 13 q 306 -14 353 -14 m 457 704 q 328 677 389 704 q 217 605 267 650 q 133 501 168 560 q 82 379 97 442 q 208 374 153 375 q 315 372 263 372 q 470 385 407 372 q 572 420 533 397 q 628 474 611 443 q 646 543 646 506 q 628 615 646 585 q 582 666 610 646 q 521 695 554 686 q 457 704 488 704 m 490 907 l 513 1014 l 540 1014 l 518 907 l 490 907 z "},"è":{"ha":724,"x_min":43,"x_max":675,"o":"m 306 -14 q 194 10 243 -14 q 113 76 146 35 q 61 174 79 118 q 43 292 43 229 q 75 453 43 374 q 163 594 107 532 q 296 694 219 656 q 463 732 372 732 q 535 719 497 732 q 604 683 574 707 q 655 624 635 660 q 675 542 675 589 q 311 344 675 344 q 203 346 258 344 q 76 351 147 347 q 72 293 72 322 q 88 185 72 236 q 133 97 103 135 q 210 36 164 58 q 315 14 256 14 q 393 26 353 14 q 471 58 433 38 q 540 110 508 79 q 592 178 571 140 l 618 169 q 560 94 594 128 q 485 36 526 60 q 399 -1 444 13 q 306 -14 353 -14 m 457 704 q 328 677 389 704 q 217 605 267 650 q 133 501 168 560 q 82 379 97 442 q 208 374 153 375 q 315 372 263 372 q 470 385 407 372 q 572 420 533 397 q 628 474 611 443 q 646 543 646 506 q 628 615 646 585 q 582 666 610 646 q 521 695 554 686 q 457 704 488 704 m 458 1014 l 503 1014 l 567 913 l 542 896 l 458 1014 z "},"₈":{"ha":508,"x_min":-26,"x_max":406,"o":"m 371 54 q 351 -16 371 15 q 299 -69 331 -47 q 224 -104 267 -92 q 139 -117 182 -117 q 17 -78 60 -117 q -26 14 -26 -39 q -12 71 -26 44 q 26 118 3 97 q 78 153 49 139 q 135 175 107 167 q 74 213 99 188 q 50 275 50 239 q 69 337 50 310 q 117 383 88 364 q 183 411 147 401 q 256 421 219 421 q 312 414 285 421 q 360 393 339 407 q 393 358 381 379 q 406 311 406 338 q 394 265 406 286 q 363 226 382 243 q 319 196 344 208 q 268 175 294 183 q 342 130 314 161 q 371 54 371 99 m 344 51 q 332 98 344 78 q 299 133 319 118 q 251 155 278 147 q 199 163 225 163 q 131 152 165 163 q 67 122 96 142 q 19 76 38 103 q 1 17 1 49 q 14 -28 1 -8 q 47 -62 26 -49 q 94 -84 68 -76 q 147 -92 121 -92 q 215 -82 181 -92 q 279 -53 250 -72 q 326 -8 308 -35 q 344 51 344 18 m 78 276 q 89 238 78 256 q 118 210 100 221 q 158 192 136 199 q 204 186 181 186 q 263 194 232 186 q 319 218 293 203 q 361 256 344 233 q 378 306 378 278 q 339 372 378 349 q 249 396 300 396 q 186 388 217 396 q 132 363 156 379 q 93 325 108 347 q 78 276 78 303 z "},"⁸":{"ha":510,"x_min":124,"x_max":556,"o":"m 522 758 q 502 688 522 719 q 449 635 482 657 q 374 600 417 613 q 289 588 332 588 q 167 626 210 588 q 124 718 124 665 q 138 775 124 749 q 176 822 153 801 q 229 857 200 843 q 286 879 258 871 q 225 917 250 892 q 200 979 200 943 q 219 1041 200 1014 q 267 1087 238 1068 q 333 1115 297 1106 q 406 1125 369 1125 q 462 1118 435 1125 q 510 1097 489 1111 q 543 1063 531 1083 q 556 1015 556 1042 q 544 969 556 990 q 515 930 533 947 q 471 900 496 913 q 419 879 446 888 q 493 834 464 865 q 522 758 522 803 m 494 756 q 482 802 494 782 q 449 837 469 822 q 402 859 428 851 q 350 867 376 867 q 281 856 317 867 q 217 826 246 846 q 169 780 188 807 q 151 721 151 753 q 164 676 151 696 q 197 642 176 656 q 244 620 218 628 q 297 613 271 613 q 365 622 331 613 q 429 651 400 632 q 476 696 458 669 q 494 756 494 722 m 228 981 q 239 942 228 960 q 268 914 250 925 q 308 897 286 903 q 354 890 331 890 q 413 899 382 890 q 469 922 443 907 q 511 960 494 938 q 528 1010 528 982 q 489 1076 528 1053 q 399 1100 450 1100 q 336 1092 367 1100 q 282 1067 306 1083 q 243 1029 258 1051 q 228 981 228 1007 z "},"…":{"ha":475,"x_min":11,"x_max":311,"o":"m 11 0 l 31 89 l 57 89 l 39 0 l 11 0 m 138 0 l 157 89 l 183 89 l 165 0 l 138 0 m 264 0 l 283 89 l 311 89 l 292 0 l 264 0 z "},"ē":{"ha":724,"x_min":43,"x_max":706,"o":"m 306 -14 q 194 10 243 -14 q 113 76 146 35 q 61 174 79 118 q 43 292 43 229 q 75 453 43 374 q 163 594 107 532 q 296 694 219 656 q 463 732 372 732 q 535 719 497 732 q 604 683 574 707 q 655 624 635 660 q 675 542 675 589 q 311 344 675 344 q 203 346 258 344 q 76 351 147 347 q 72 293 72 322 q 88 185 72 236 q 133 97 103 135 q 210 36 164 58 q 315 14 256 14 q 393 26 353 14 q 471 58 433 38 q 540 110 508 79 q 592 178 571 140 l 618 169 q 560 94 594 128 q 485 36 526 60 q 399 -1 444 13 q 306 -14 353 -14 m 457 704 q 328 677 389 704 q 217 605 267 650 q 133 501 168 560 q 82 379 97 442 q 208 374 153 375 q 315 372 263 372 q 470 385 407 372 q 572 420 533 397 q 628 474 611 443 q 646 543 646 506 q 628 615 646 585 q 582 666 610 646 q 521 695 554 686 q 457 704 488 704 m 331 953 l 336 981 l 706 981 l 700 953 l 331 953 z "},"—":{"ha":1164,"x_min":82,"x_max":1064,"o":"m 82 363 l 88 390 l 1064 390 l 1058 363 l 82 363 z "},"–":{"ha":721,"x_min":82,"x_max":621,"o":"m 82 363 l 88 390 l 621 390 l 615 363 l 82 363 z "},"ŋ":{"ha":750,"x_min":24,"x_max":661,"o":"m 331 -236 q 260 -226 292 -236 q 208 -189 228 -217 l 233 -172 q 280 -201 253 -194 q 335 -208 307 -208 q 391 -196 361 -208 q 447 -162 421 -183 q 492 -112 472 -142 q 518 -50 511 -83 l 614 401 q 632 550 632 486 q 601 667 632 629 q 503 704 569 704 q 402 685 454 704 q 302 633 350 667 q 214 554 254 600 q 149 456 174 508 l 51 0 l 24 0 l 176 721 l 204 721 l 165 535 q 236 615 196 578 q 322 677 276 651 q 415 717 367 703 q 508 732 463 732 q 624 690 586 732 q 661 557 661 647 q 656 485 661 524 q 642 401 651 446 l 546 -50 q 514 -124 538 -90 q 460 -183 490 -158 q 395 -222 429 -208 q 331 -236 361 -236 z "},"ę":{"ha":724,"x_min":43,"x_max":675,"o":"m 225 -233 q 185 -208 199 -226 q 172 -165 172 -189 q 199 -95 172 -129 q 293 -14 225 -61 q 187 14 233 -11 q 108 81 140 39 q 60 176 76 122 q 43 292 43 231 q 75 453 43 374 q 163 594 107 532 q 296 694 219 656 q 463 732 372 732 q 535 719 497 732 q 604 683 574 707 q 655 624 635 660 q 675 542 675 589 q 311 344 675 344 q 203 346 258 344 q 76 351 147 347 q 72 293 72 322 q 88 185 72 236 q 133 97 103 135 q 210 36 164 58 q 315 14 256 14 q 393 26 353 14 q 471 58 433 38 q 540 110 508 79 q 592 178 571 140 l 618 169 q 499 44 575 93 q 338 -12 424 -4 q 270 -58 297 -37 q 228 -94 243 -78 q 206 -126 213 -111 q 200 -158 200 -142 q 247 -210 200 -199 l 225 -233 m 457 704 q 328 677 389 704 q 217 605 267 650 q 133 501 168 560 q 82 379 97 442 q 208 374 153 375 q 315 372 263 372 q 470 385 407 372 q 572 420 533 397 q 628 474 611 443 q 646 543 646 506 q 628 615 646 585 q 582 666 610 646 q 521 695 554 686 q 457 704 488 704 z "},"=":{"ha":629,"x_min":103,"x_max":510,"o":"m 103 321 l 103 349 l 510 349 l 510 321 l 103 321 m 103 418 l 103 446 l 510 446 l 510 418 l 103 418 z "},"ð":{"ha":789,"x_min":38,"x_max":742,"o":"m 742 971 l 597 883 q 700 699 672 793 q 728 513 728 604 q 690 292 728 390 q 590 126 651 194 q 453 22 529 58 q 300 -14 376 -14 q 193 8 242 -14 q 110 68 144 31 q 56 156 75 106 q 38 264 38 207 q 73 415 38 343 q 165 540 108 486 q 295 627 222 594 q 443 660 368 660 q 538 645 494 660 q 614 603 581 631 q 669 540 647 576 q 699 458 690 503 q 703 542 703 500 q 677 705 703 622 q 578 872 651 788 l 392 760 l 382 779 l 563 889 q 499 951 535 921 q 418 1014 463 982 l 458 1014 q 526 958 496 986 q 583 900 557 929 l 732 990 l 742 971 m 65 267 q 83 168 65 214 q 131 88 100 122 q 207 33 163 53 q 304 14 251 14 q 441 46 374 14 q 562 130 508 78 q 648 250 615 182 q 681 389 681 318 q 663 483 681 439 q 612 561 644 528 q 535 613 579 594 q 438 632 490 632 q 301 602 368 632 q 183 522 235 572 q 98 405 131 471 q 65 267 65 339 z "},"ẽ":{"ha":724,"x_min":43,"x_max":703,"o":"m 306 -14 q 194 10 243 -14 q 113 76 146 35 q 61 174 79 118 q 43 292 43 229 q 75 453 43 374 q 163 594 107 532 q 296 694 219 656 q 463 732 372 732 q 535 719 497 732 q 604 683 574 707 q 655 624 635 660 q 675 542 675 589 q 311 344 675 344 q 203 346 258 344 q 76 351 147 347 q 72 293 72 322 q 88 185 72 236 q 133 97 103 135 q 210 36 164 58 q 315 14 256 14 q 393 26 353 14 q 471 58 433 38 q 540 110 508 79 q 592 178 571 140 l 618 169 q 560 94 594 128 q 485 36 526 60 q 399 -1 444 13 q 306 -14 353 -14 m 457 704 q 328 677 389 704 q 217 605 267 650 q 133 501 168 560 q 82 379 97 442 q 208 374 153 375 q 315 372 263 372 q 470 385 407 372 q 572 420 533 397 q 628 474 611 443 q 646 543 646 506 q 628 615 646 585 q 582 666 610 646 q 521 695 554 686 q 457 704 488 704 m 576 921 q 527 929 547 921 q 490 947 507 938 q 458 965 474 957 q 422 974 443 974 q 386 965 401 974 q 361 944 371 956 q 347 921 351 932 q 340 907 342 910 l 314 907 q 320 925 314 910 q 340 957 326 940 q 375 987 353 974 q 431 1000 397 1000 q 474 992 456 1000 q 508 974 492 983 q 542 956 524 964 q 585 947 560 947 q 629 957 611 947 q 658 978 647 967 q 672 1001 668 990 q 676 1014 676 1011 l 703 1014 q 695 994 701 1010 q 674 963 689 979 q 636 933 660 946 q 576 921 613 921 z "},"!":{"ha":311,"x_min":53,"x_max":292,"o":"m 113 278 l 264 996 l 292 996 l 140 278 l 113 278 m 53 0 l 78 117 l 113 117 l 81 0 l 53 0 z "},"¡":{"ha":311,"x_min":53,"x_max":292,"o":"m 233 718 l 81 0 l 53 0 l 206 718 l 233 718 m 292 996 l 268 879 l 233 879 l 264 996 l 292 996 z "},"f":{"ha":406,"x_min":-17,"x_max":561,"o":"m 193 693 l 94 693 l 100 721 l 200 721 l 206 750 q 296 955 232 882 q 446 1028 360 1028 q 515 1015 483 1028 q 561 981 547 1001 l 536 964 q 498 991 524 981 q 442 1001 472 1001 q 312 937 367 1001 q 233 750 257 872 l 228 721 l 431 721 l 425 693 l 221 693 l 11 -296 l -17 -296 l 193 693 z "},"ﬀ":{"ha":722,"x_min":46,"x_max":861,"o":"m 193 693 l 94 693 l 100 721 l 200 721 l 203 736 q 230 820 211 778 q 278 897 249 863 q 350 951 308 931 q 446 972 392 972 q 523 960 490 972 q 568 936 556 947 q 649 1003 604 978 q 754 1028 693 1028 q 809 1021 788 1028 q 842 1006 831 1014 q 857 990 853 997 q 861 981 861 982 l 836 964 q 829 974 833 968 q 816 985 825 979 q 792 996 807 992 q 753 1000 776 1000 q 656 977 699 1000 q 583 917 614 954 q 534 836 553 881 q 507 750 515 792 l 501 721 l 744 721 l 739 693 l 494 693 l 347 0 l 319 0 l 467 693 l 221 693 l 74 0 l 46 0 l 193 693 m 472 721 q 503 832 485 790 q 549 911 521 874 q 525 928 539 921 q 496 938 511 935 q 466 943 481 942 q 442 944 451 944 q 355 923 392 944 q 293 870 318 901 q 253 803 268 839 q 231 736 239 767 l 226 721 l 472 721 z "},"ﬃ":{"ha":872,"x_min":46,"x_max":901,"o":"m 193 693 l 94 693 l 100 721 l 199 721 l 201 735 q 229 819 210 776 q 278 895 249 861 q 351 951 308 929 q 447 972 393 972 q 524 960 492 972 q 568 936 556 947 q 649 1003 604 978 q 756 1028 693 1028 q 816 1021 789 1028 q 862 1006 843 1014 q 891 990 881 997 q 901 981 901 982 l 876 964 q 831 988 868 976 q 753 1000 794 1000 q 656 977 699 1000 q 583 918 614 954 q 534 838 553 882 q 507 750 515 793 l 501 721 l 825 721 l 671 0 l 643 0 l 790 693 l 494 693 l 347 0 l 319 0 l 467 693 l 221 693 l 74 0 l 46 0 l 193 693 m 472 721 q 503 827 486 781 q 549 911 521 874 q 525 928 539 921 q 496 938 511 935 q 466 943 481 942 q 442 944 451 944 q 354 923 392 944 q 291 870 317 901 q 250 802 265 839 q 229 735 235 765 l 226 721 l 472 721 z "},"ﬄ":{"ha":972,"x_min":46,"x_max":904,"o":"m 801 -7 q 732 17 753 -7 q 711 78 711 42 q 711 92 711 85 q 714 107 711 100 l 872 851 q 876 885 876 868 q 845 967 876 933 q 749 1000 814 1000 q 658 978 697 1000 q 589 920 618 956 q 541 840 560 885 q 514 750 522 794 l 508 721 l 672 721 l 665 693 l 501 693 l 354 0 l 326 0 l 474 693 l 221 693 l 74 0 l 46 0 l 193 693 l 94 693 l 100 721 l 199 721 l 201 733 q 235 828 213 785 q 289 904 257 872 q 363 954 321 936 q 457 972 404 972 q 529 960 504 972 q 567 938 554 949 q 643 1003 599 979 q 747 1028 688 1028 q 865 989 825 1028 q 904 892 904 950 q 900 853 904 874 l 742 107 q 739 86 739 93 q 754 40 739 61 q 806 19 769 19 q 830 22 817 19 q 855 26 843 24 q 875 30 867 28 q 885 32 883 32 l 892 6 q 881 3 890 6 q 858 -1 872 1 q 829 -5 844 -3 q 801 -7 814 -7 m 479 721 q 510 833 494 788 q 547 913 525 878 q 503 938 529 932 q 453 944 476 944 q 365 926 403 944 q 300 877 328 907 q 255 809 272 847 q 229 733 238 771 l 226 721 l 479 721 z "},"ﬁ":{"ha":599,"x_min":46,"x_max":628,"o":"m 193 693 l 94 693 l 100 721 l 200 721 l 206 750 q 235 842 214 793 q 290 933 256 892 q 371 1001 324 974 q 479 1028 418 1028 q 542 1021 514 1028 q 589 1006 569 1014 q 618 990 608 997 q 628 981 628 982 l 603 964 q 558 988 593 976 q 472 1000 524 1000 q 381 977 422 1000 q 310 918 340 954 q 261 838 281 882 q 233 750 242 793 l 228 721 l 550 721 l 397 0 l 369 0 l 517 693 l 221 693 l 74 0 l 46 0 l 193 693 z "},"ﬂ":{"ha":692,"x_min":46,"x_max":624,"o":"m 514 -7 q 451 17 472 -7 q 431 78 431 42 q 431 92 431 85 q 433 107 431 100 l 592 851 q 596 886 596 868 q 565 965 596 931 q 460 1000 533 1000 q 374 978 413 1000 q 308 919 336 956 q 260 839 279 883 q 233 750 242 794 l 228 721 l 392 721 l 385 693 l 221 693 l 74 0 l 46 0 l 193 693 l 94 693 l 100 721 l 200 721 l 206 750 q 238 858 217 807 q 292 946 260 908 q 367 1006 324 983 q 465 1028 411 1028 q 584 990 544 1028 q 624 893 624 951 q 619 853 624 874 l 461 107 q 458 88 458 93 q 474 40 458 61 q 521 19 489 19 q 576 26 549 19 q 604 32 603 32 l 611 6 q 579 -1 610 4 q 514 -7 549 -7 z "},"⅝":{"ha":1049,"x_min":47,"x_max":1008,"o":"m 47 15 l 990 988 l 1008 971 l 65 -1 l 47 15 m 707 -6 q 585 33 628 -6 q 542 125 542 72 q 556 182 542 156 q 594 229 571 208 q 646 264 617 250 q 703 286 675 278 q 642 324 667 299 q 618 386 618 350 q 637 448 618 421 q 685 494 656 475 q 751 522 715 513 q 824 532 788 532 q 880 525 853 532 q 928 504 907 518 q 961 469 949 490 q 974 422 974 449 q 962 376 974 397 q 931 337 950 354 q 888 307 913 319 q 836 286 863 294 q 910 241 882 272 q 939 165 939 210 q 919 95 939 126 q 867 42 899 64 q 792 7 835 19 q 707 -6 750 -6 m 715 19 q 783 29 749 19 q 847 58 818 39 q 894 103 876 76 q 913 163 913 129 q 900 209 913 189 q 867 244 888 229 q 819 266 846 258 q 767 274 793 274 q 699 263 733 274 q 635 233 664 253 q 588 187 606 214 q 569 128 569 160 q 582 83 569 103 q 615 49 594 63 q 663 27 636 35 q 715 19 689 19 m 772 297 q 831 306 800 297 q 887 329 861 314 q 929 367 913 344 q 946 417 946 389 q 907 483 946 460 q 817 507 868 507 q 754 499 785 507 q 700 474 724 490 q 661 436 676 458 q 646 388 646 414 q 657 349 646 367 q 686 321 668 332 q 726 303 704 310 q 772 297 749 297 m 329 817 q 444 778 400 817 q 488 678 488 740 q 467 596 488 633 q 414 531 447 558 q 338 490 381 504 q 251 475 296 475 q 147 504 189 475 q 90 582 104 533 l 115 590 q 167 525 129 550 q 258 500 204 500 q 335 513 299 500 q 399 549 371 526 q 443 603 426 572 q 460 671 460 635 q 448 722 460 700 q 417 760 436 744 q 372 783 397 775 q 319 790 347 790 q 233 772 275 790 q 158 722 190 754 l 131 722 q 146 758 135 733 q 171 815 157 783 q 200 881 185 847 q 228 943 215 914 q 248 992 240 972 q 257 1014 256 1011 l 535 1014 l 529 988 l 274 988 l 175 763 q 249 803 208 790 q 329 817 289 817 z "},"⁵":{"ha":488,"x_min":111,"x_max":556,"o":"m 350 928 q 465 890 421 928 q 508 789 508 851 q 488 707 508 744 q 435 642 468 669 q 359 601 401 615 q 272 586 317 586 q 167 615 210 586 q 111 693 125 644 l 136 701 q 188 636 150 661 q 279 611 225 611 q 356 624 319 611 q 419 660 392 638 q 464 715 447 683 q 481 782 481 746 q 469 833 481 811 q 438 871 457 856 q 393 894 418 886 q 340 901 368 901 q 253 883 296 901 q 179 833 211 865 l 151 833 q 167 869 156 844 q 192 926 178 894 q 221 992 206 958 q 249 1054 236 1025 q 269 1103 261 1083 q 278 1125 276 1122 l 556 1125 l 550 1099 l 294 1099 l 196 874 q 269 915 229 901 q 350 928 310 928 z "},"⁄":{"ha":167,"x_min":-382,"x_max":579,"o":"m -382 15 l 561 988 l 579 971 l -364 -1 l -382 15 z "},"₅":{"ha":486,"x_min":-39,"x_max":406,"o":"m 200 224 q 315 185 271 224 q 358 85 358 147 q 338 3 358 40 q 285 -62 318 -35 q 209 -103 251 -89 q 122 -118 167 -118 q 17 -89 60 -118 q -39 -11 -25 -60 l -14 -3 q 38 -68 0 -43 q 129 -93 75 -93 q 206 -80 169 -93 q 269 -44 242 -67 q 314 10 297 -21 q 331 78 331 42 q 319 129 331 107 q 288 167 307 151 q 243 190 268 182 q 190 197 218 197 q 103 179 146 197 q 29 129 61 161 l 1 129 q 17 165 7 140 q 42 222 28 190 q 71 288 56 254 q 99 350 86 321 q 119 399 111 379 q 128 421 126 418 l 406 421 l 400 394 l 144 394 l 46 169 q 119 210 79 197 q 200 224 160 224 z "},"ƒ":{"ha":676,"x_min":-86,"x_max":750,"o":"m 36 -236 q -35 -226 -3 -236 q -86 -189 -67 -217 l -61 -172 q -15 -201 -42 -194 q 40 -208 13 -208 q 97 -196 67 -208 q 152 -162 126 -183 q 197 -112 178 -142 q 224 -50 217 -83 l 364 608 l 265 608 l 271 636 l 371 636 l 394 750 q 485 955 422 882 q 635 1028 549 1028 q 704 1015 672 1028 q 750 981 736 1001 l 725 964 q 687 991 713 981 q 631 1001 661 1001 q 501 937 556 1001 q 422 750 447 872 l 399 636 l 601 636 l 596 608 l 392 608 l 251 -50 q 219 -124 243 -90 q 165 -183 196 -158 q 101 -222 135 -208 q 36 -236 67 -236 z "},"₄":{"ha":489,"x_min":-43,"x_max":372,"o":"m 232 -111 l 264 42 l -43 42 l -37 65 l 353 421 l 372 421 l 297 68 l 369 68 l 364 42 l 292 42 l 258 -111 l 232 -111 m 0 68 l 269 68 l 335 372 l 0 68 z "},"⁴":{"ha":490,"x_min":107,"x_max":522,"o":"m 382 593 l 414 746 l 107 746 l 113 769 l 503 1125 l 522 1125 l 447 772 l 519 772 l 514 746 l 442 746 l 408 593 l 382 593 m 150 772 l 419 772 l 485 1076 l 150 772 z "},"g":{"ha":800,"x_min":-31,"x_max":751,"o":"m 231 -310 q 125 -297 169 -310 q 50 -262 81 -285 q 0 -208 19 -239 q -31 -137 -19 -176 l -3 -129 q 33 -199 10 -169 q 87 -247 56 -228 q 156 -274 118 -265 q 236 -282 194 -282 q 345 -266 292 -282 q 442 -218 399 -250 q 518 -140 486 -186 q 564 -31 550 -93 l 603 150 q 538 84 574 114 q 462 32 501 54 q 381 -2 422 10 q 300 -14 339 -14 q 191 12 239 -14 q 110 80 143 38 q 59 178 76 122 q 42 293 42 233 q 75 452 42 374 q 164 593 108 531 q 293 694 219 656 q 447 732 367 732 q 531 718 493 732 q 597 680 568 704 q 649 623 626 656 q 689 553 672 590 l 725 721 l 751 721 l 592 -31 q 540 -154 576 -101 q 455 -242 504 -207 q 347 -293 406 -276 q 231 -310 289 -310 m 307 14 q 406 34 356 14 q 501 86 457 54 q 577 157 544 118 q 621 235 610 196 l 676 494 q 649 578 669 540 q 597 644 628 617 q 525 688 565 672 q 442 704 485 704 q 294 666 363 704 q 176 568 226 628 q 98 436 126 508 q 69 296 69 364 q 86 188 69 239 q 134 98 103 136 q 209 37 165 60 q 307 14 253 14 z "},"ğ":{"ha":800,"x_min":-31,"x_max":751,"o":"m 231 -310 q 125 -297 169 -310 q 50 -262 81 -285 q 0 -208 19 -239 q -31 -137 -19 -176 l -3 -129 q 33 -199 10 -169 q 87 -247 56 -228 q 156 -274 118 -265 q 236 -282 194 -282 q 345 -266 292 -282 q 442 -218 399 -250 q 518 -140 486 -186 q 564 -31 550 -93 l 603 150 q 538 84 574 114 q 462 32 501 54 q 381 -2 422 10 q 300 -14 339 -14 q 191 12 239 -14 q 110 80 143 38 q 59 178 76 122 q 42 293 42 233 q 75 452 42 374 q 164 593 108 531 q 293 694 219 656 q 447 732 367 732 q 531 718 493 732 q 597 680 568 704 q 649 623 626 656 q 689 553 672 590 l 725 721 l 751 721 l 592 -31 q 540 -154 576 -101 q 455 -242 504 -207 q 347 -293 406 -276 q 231 -310 289 -310 m 307 14 q 406 34 356 14 q 501 86 457 54 q 577 157 544 118 q 621 235 610 196 l 676 494 q 649 578 669 540 q 597 644 628 617 q 525 688 565 672 q 442 704 485 704 q 294 666 363 704 q 176 568 226 628 q 98 436 126 508 q 69 296 69 364 q 86 188 69 239 q 134 98 103 136 q 209 37 165 60 q 307 14 253 14 m 488 931 q 542 955 515 931 q 579 1014 568 979 l 604 1014 q 588 974 600 993 q 558 940 575 954 q 522 916 542 925 q 483 907 503 907 q 426 932 449 907 q 404 993 404 957 q 407 1014 404 1000 l 433 1014 q 432 999 432 1008 q 448 951 432 971 q 488 931 464 931 z "},"ĝ":{"ha":800,"x_min":-31,"x_max":751,"o":"m 231 -310 q 125 -297 169 -310 q 50 -262 81 -285 q 0 -208 19 -239 q -31 -137 -19 -176 l -3 -129 q 33 -199 10 -169 q 87 -247 56 -228 q 156 -274 118 -265 q 236 -282 194 -282 q 345 -266 292 -282 q 442 -218 399 -250 q 518 -140 486 -186 q 564 -31 550 -93 l 603 150 q 538 84 574 114 q 462 32 501 54 q 381 -2 422 10 q 300 -14 339 -14 q 191 12 239 -14 q 110 80 143 38 q 59 178 76 122 q 42 293 42 233 q 75 452 42 374 q 164 593 108 531 q 293 694 219 656 q 447 732 367 732 q 531 718 493 732 q 597 680 568 704 q 649 623 626 656 q 689 553 672 590 l 725 721 l 751 721 l 592 -31 q 540 -154 576 -101 q 455 -242 504 -207 q 347 -293 406 -276 q 231 -310 289 -310 m 307 14 q 406 34 356 14 q 501 86 457 54 q 577 157 544 118 q 621 235 610 196 l 676 494 q 649 578 669 540 q 597 644 628 617 q 525 688 565 672 q 442 704 485 704 q 294 666 363 704 q 176 568 226 628 q 98 436 126 508 q 69 296 69 364 q 86 188 69 239 q 134 98 103 136 q 209 37 165 60 q 307 14 253 14 m 363 911 l 507 1014 l 529 1014 l 631 911 l 606 894 l 511 982 l 381 894 l 363 911 z "},"ģ":{"ha":800,"x_min":-31,"x_max":751,"o":"m 231 -310 q 125 -297 169 -310 q 50 -262 81 -285 q 0 -208 19 -239 q -31 -137 -19 -176 l -3 -129 q 33 -199 10 -169 q 87 -247 56 -228 q 156 -274 118 -265 q 236 -282 194 -282 q 345 -266 292 -282 q 442 -218 399 -250 q 518 -140 486 -186 q 564 -31 550 -93 l 603 150 q 538 84 574 114 q 462 32 501 54 q 381 -2 422 10 q 300 -14 339 -14 q 191 12 239 -14 q 110 80 143 38 q 59 178 76 122 q 42 293 42 233 q 75 452 42 374 q 164 593 108 531 q 293 694 219 656 q 447 732 367 732 q 531 718 493 732 q 597 680 568 704 q 649 623 626 656 q 689 553 672 590 l 725 721 l 751 721 l 592 -31 q 540 -154 576 -101 q 455 -242 504 -207 q 347 -293 406 -276 q 231 -310 289 -310 m 307 14 q 406 34 356 14 q 501 86 457 54 q 577 157 544 118 q 621 235 610 196 l 676 494 q 649 578 669 540 q 597 644 628 617 q 525 688 565 672 q 442 704 485 704 q 294 666 363 704 q 176 568 226 628 q 98 436 126 508 q 69 296 69 364 q 86 188 69 239 q 134 98 103 136 q 209 37 165 60 q 307 14 253 14 m 529 1014 l 499 933 l 511 933 l 493 851 l 458 851 l 475 933 l 510 1014 l 529 1014 z "},"ġ":{"ha":800,"x_min":-31,"x_max":751,"o":"m 231 -310 q 125 -297 169 -310 q 50 -262 81 -285 q 0 -208 19 -239 q -31 -137 -19 -176 l -3 -129 q 33 -199 10 -169 q 87 -247 56 -228 q 156 -274 118 -265 q 236 -282 194 -282 q 345 -266 292 -282 q 442 -218 399 -250 q 518 -140 486 -186 q 564 -31 550 -93 l 603 150 q 538 84 574 114 q 462 32 501 54 q 381 -2 422 10 q 300 -14 339 -14 q 191 12 239 -14 q 110 80 143 38 q 59 178 76 122 q 42 293 42 233 q 75 452 42 374 q 164 593 108 531 q 293 694 219 656 q 447 732 367 732 q 531 718 493 732 q 597 680 568 704 q 649 623 626 656 q 689 553 672 590 l 725 721 l 751 721 l 592 -31 q 540 -154 576 -101 q 455 -242 504 -207 q 347 -293 406 -276 q 231 -310 289 -310 m 307 14 q 406 34 356 14 q 501 86 457 54 q 577 157 544 118 q 621 235 610 196 l 676 494 q 649 578 669 540 q 597 644 628 617 q 525 688 565 672 q 442 704 485 704 q 294 666 363 704 q 176 568 226 628 q 98 436 126 508 q 69 296 69 364 q 86 188 69 239 q 134 98 103 136 q 209 37 165 60 q 307 14 253 14 m 476 907 l 499 1014 l 526 1014 l 504 907 l 476 907 z "},"ß":{"ha":726,"x_min":24,"x_max":674,"o":"m 221 18 q 385 42 313 19 q 509 106 458 65 q 586 203 560 146 q 613 333 613 261 q 554 488 613 429 q 392 546 496 546 l 369 546 l 375 574 l 396 574 q 490 592 446 574 q 569 640 535 610 q 624 712 604 671 q 644 800 644 753 q 597 917 644 871 q 471 964 550 964 q 378 946 422 964 q 299 894 335 928 q 239 813 264 860 q 201 707 214 765 l 51 0 l 24 0 l 174 707 q 216 824 188 771 q 285 914 244 876 q 374 972 325 951 q 478 992 424 992 q 558 978 522 992 q 620 940 594 964 q 660 882 646 915 q 674 810 674 849 q 656 725 674 767 q 608 650 638 683 q 542 593 579 617 q 465 561 504 569 q 597 483 553 542 q 642 340 642 425 q 531 91 642 183 q 215 -8 421 -1 l 221 18 z "},">":{"ha":751,"x_min":104,"x_max":683,"o":"m 683 347 l 104 0 l 104 31 l 643 360 l 104 688 l 104 718 l 683 372 l 683 347 z "},"«":{"ha":690,"x_min":44,"x_max":639,"o":"m 50 372 l 413 607 l 406 576 l 74 360 l 314 142 l 307 111 l 44 347 l 50 372 m 275 372 l 639 607 l 632 576 l 299 360 l 539 142 l 533 111 l 271 347 l 275 372 z "},"»":{"ha":690,"x_min":26,"x_max":621,"o":"m 615 347 l 253 111 l 258 142 l 592 360 l 351 576 l 357 607 l 621 372 l 615 347 m 390 347 l 26 111 l 33 142 l 367 360 l 125 576 l 132 607 l 394 372 l 390 347 z "},"‹":{"ha":464,"x_min":44,"x_max":413,"o":"m 50 372 l 413 607 l 406 576 l 74 360 l 314 142 l 307 111 l 44 347 l 50 372 z "},"›":{"ha":464,"x_min":26,"x_max":394,"o":"m 390 347 l 26 111 l 33 142 l 367 360 l 125 576 l 132 607 l 394 372 l 390 347 z "},"h":{"ha":750,"x_min":24,"x_max":658,"o":"m 239 1014 l 267 1014 l 165 535 q 235 616 196 579 q 317 678 274 653 q 405 718 360 704 q 494 732 450 732 q 658 539 658 732 q 642 401 658 478 l 557 0 l 529 0 l 614 401 q 626 472 621 439 q 631 533 631 506 q 489 704 631 704 q 391 685 440 704 q 296 632 342 665 q 212 553 250 599 q 149 456 174 508 l 51 0 l 24 0 l 239 1014 z "},"ħ":{"ha":750,"x_min":24,"x_max":658,"o":"m 119 907 l 215 907 l 239 1014 l 267 1014 l 243 907 l 410 907 l 404 879 l 238 879 l 165 535 q 235 616 196 579 q 317 678 274 653 q 405 718 360 704 q 494 732 450 732 q 658 539 658 732 q 642 401 658 478 l 557 0 l 529 0 l 614 401 q 631 533 631 476 q 489 704 631 704 q 391 685 440 704 q 296 632 342 665 q 212 553 250 599 q 149 456 174 508 l 51 0 l 24 0 l 210 879 l 114 879 l 119 907 z "},"ĥ":{"ha":750,"x_min":24,"x_max":663,"o":"m 239 1014 l 267 1014 l 165 535 q 235 616 196 579 q 317 678 274 653 q 405 718 360 704 q 494 732 450 732 q 658 539 658 732 q 642 401 658 478 l 557 0 l 529 0 l 614 401 q 626 472 621 439 q 631 533 631 506 q 489 704 631 704 q 391 685 440 704 q 296 632 342 665 q 212 553 250 599 q 149 456 174 508 l 51 0 l 24 0 l 239 1014 m 394 911 l 539 1014 l 561 1014 l 663 911 l 638 894 l 543 982 l 413 894 l 394 911 z "},"-":{"ha":561,"x_min":82,"x_max":461,"o":"m 82 363 l 88 390 l 461 390 l 456 363 l 82 363 z "},"i":{"ha":253,"x_min":24,"x_max":267,"o":"m 176 721 l 204 721 l 51 0 l 24 0 l 176 721 m 239 1014 l 267 1014 l 244 907 l 217 907 l 239 1014 z "},"í":{"ha":253,"x_min":24,"x_max":357,"o":"m 176 721 l 204 721 l 51 0 l 24 0 l 176 721 m 224 896 l 206 913 l 311 1014 l 357 1014 l 224 896 z "},"ĭ":{"ha":253,"x_min":24,"x_max":340,"o":"m 176 721 l 204 721 l 51 0 l 24 0 l 176 721 m 224 931 q 278 955 251 931 q 315 1014 304 979 l 340 1014 q 324 974 336 993 q 294 940 311 954 q 258 916 278 925 q 219 907 239 907 q 163 932 185 907 q 140 993 140 957 q 143 1014 140 1000 l 169 1014 q 168 999 168 1008 q 184 951 168 971 q 224 931 200 931 z "},"î":{"ha":253,"x_min":24,"x_max":361,"o":"m 176 721 l 204 721 l 51 0 l 24 0 l 176 721 m 93 911 l 238 1014 l 260 1014 l 361 911 l 336 894 l 242 982 l 111 894 l 93 911 z "},"ï":{"ha":253,"x_min":24,"x_max":343,"o":"m 176 721 l 204 721 l 51 0 l 24 0 l 176 721 m 139 907 l 161 1014 l 189 1014 l 167 907 l 139 907 m 293 907 l 315 1014 l 343 1014 l 321 907 l 293 907 z "},"ì":{"ha":253,"x_min":24,"x_max":236,"o":"m 176 721 l 204 721 l 51 0 l 24 0 l 176 721 m 128 1014 l 172 1014 l 236 913 l 211 896 l 128 1014 z "},"ĳ":{"ha":517,"x_min":-33,"x_max":531,"o":"m 176 721 l 204 721 l 51 0 l 24 0 l 176 721 m 239 1014 l 267 1014 l 244 907 l 217 907 l 239 1014 m 89 -236 q 18 -226 50 -236 q -33 -189 -14 -217 l -8 -172 q 38 -201 11 -194 q 93 -208 65 -208 q 149 -196 119 -208 q 205 -162 179 -183 q 250 -112 231 -142 q 276 -50 269 -83 l 440 721 l 468 721 l 304 -50 q 272 -124 296 -90 q 218 -183 249 -158 q 153 -222 188 -208 q 89 -236 119 -236 m 503 1014 l 531 1014 l 508 907 l 481 907 l 503 1014 z "},"j":{"ha":264,"x_min":-286,"x_max":278,"o":"m -164 -236 q -235 -226 -203 -236 q -286 -189 -267 -217 l -261 -172 q -215 -201 -242 -194 q -160 -208 -187 -208 q -103 -196 -133 -208 q -48 -162 -74 -183 q -3 -112 -22 -142 q 24 -50 17 -83 l 188 721 l 215 721 l 51 -50 q 19 -124 43 -90 q -35 -183 -4 -158 q -99 -222 -65 -208 q -164 -236 -133 -236 m 250 1014 l 278 1014 l 256 907 l 228 907 l 250 1014 z "},"ī":{"ha":253,"x_min":24,"x_max":417,"o":"m 176 721 l 204 721 l 51 0 l 24 0 l 176 721 m 42 953 l 47 981 l 417 981 l 411 953 l 42 953 z "},"į":{"ha":254,"x_min":-112,"x_max":268,"o":"m -60 -221 q -99 -195 -86 -214 q -112 -153 -112 -176 q -105 -115 -112 -133 q -81 -76 -97 -96 q -37 -35 -64 -57 q 28 13 -11 -14 l 178 721 l 206 721 l 53 0 q -15 -45 13 -25 q -57 -82 -42 -65 q -78 -114 -72 -99 q -85 -146 -85 -129 q -37 -197 -85 -186 l -60 -221 m 240 1014 l 268 1014 l 246 907 l 218 907 l 240 1014 z "},"ĩ":{"ha":253,"x_min":24,"x_max":422,"o":"m 176 721 l 204 721 l 51 0 l 24 0 l 176 721 m 296 921 q 247 929 267 921 q 210 947 226 938 q 178 965 193 957 q 142 974 163 974 q 106 965 121 974 q 81 944 90 956 q 66 921 71 932 q 60 907 61 910 l 33 907 q 40 925 33 910 q 59 957 46 940 q 94 987 72 974 q 150 1000 117 1000 q 193 992 175 1000 q 227 974 211 983 q 261 956 243 964 q 304 947 279 947 q 349 957 331 947 q 377 978 367 967 q 392 1001 388 990 q 396 1014 396 1011 l 422 1014 q 415 994 421 1010 q 394 963 408 979 q 356 933 379 946 q 296 921 332 921 z "},"ĵ":{"ha":253,"x_min":-297,"x_max":357,"o":"m -175 -236 q -246 -226 -214 -236 q -297 -189 -278 -217 l -272 -172 q -226 -201 -253 -194 q -171 -208 -199 -208 q -115 -196 -144 -208 q -59 -162 -85 -183 q -14 -112 -33 -142 q 13 -50 6 -83 l 176 721 l 204 721 l 40 -50 q 8 -124 32 -90 q -46 -183 -15 -158 q -110 -222 -76 -208 q -175 -236 -144 -236 m 89 911 l 233 1014 l 256 1014 l 357 911 l 332 894 l 238 982 l 107 894 l 89 911 z "},"k":{"ha":724,"x_min":24,"x_max":710,"o":"m 239 1014 l 267 1014 l 151 472 q 340 672 242 606 q 535 738 438 738 q 664 699 618 738 q 710 592 710 661 q 688 505 710 546 q 625 431 665 464 q 526 373 585 397 q 396 336 468 349 l 563 0 l 529 0 l 357 354 q 597 444 514 385 q 679 588 679 504 q 640 678 679 646 q 531 711 601 711 q 345 644 439 711 q 143 432 251 576 l 51 0 l 24 0 l 239 1014 z "},"ķ":{"ha":724,"x_min":24,"x_max":710,"o":"m 239 1014 l 267 1014 l 151 472 q 340 672 242 606 q 535 738 438 738 q 664 699 618 738 q 710 592 710 661 q 688 505 710 546 q 625 431 665 464 q 526 373 585 397 q 396 336 468 349 l 563 0 l 529 0 l 357 354 q 597 444 514 385 q 679 588 679 504 q 640 678 679 646 q 531 711 601 711 q 345 644 439 711 q 143 432 251 576 l 51 0 l 24 0 l 239 1014 m 190 -232 l 221 -151 l 208 -151 l 226 -69 l 261 -69 l 244 -151 l 210 -232 l 190 -232 z "},"ĸ":{"ha":672,"x_min":24,"x_max":707,"o":"m 176 721 l 204 721 l 110 272 l 669 718 l 707 718 l 349 432 l 561 0 l 528 0 l 324 413 l 101 235 l 51 0 l 24 0 l 176 721 z "},"l":{"ha":311,"x_min":50,"x_max":274,"o":"m 133 -7 q 72 16 94 -7 q 50 78 50 39 q 50 92 50 85 q 53 107 50 99 l 246 1014 l 274 1014 l 81 107 q 78 95 79 100 q 78 85 78 90 q 150 19 78 19 q 186 23 165 19 q 225 32 207 26 l 229 10 q 181 -2 210 3 q 133 -7 153 -7 z "},"ĺ":{"ha":311,"x_min":50,"x_max":393,"o":"m 133 -7 q 72 16 94 -7 q 50 78 50 39 q 50 92 50 85 q 53 107 50 99 l 246 1014 l 274 1014 l 81 107 q 78 95 79 100 q 78 85 78 90 q 150 19 78 19 q 186 23 165 19 q 225 32 207 26 l 229 10 q 181 -2 210 3 q 133 -7 153 -7 m 260 1082 l 242 1099 l 347 1200 l 393 1200 l 260 1082 z "},"ľ":{"ha":301,"x_min":50,"x_max":475,"o":"m 133 -7 q 72 16 94 -7 q 50 78 50 39 q 50 92 50 85 q 53 107 50 99 l 246 1014 l 274 1014 l 81 107 q 78 95 79 100 q 78 85 78 90 q 150 19 78 19 q 186 23 165 19 q 225 32 207 26 l 229 10 q 181 -2 210 3 q 133 -7 153 -7 m 324 913 l 429 1014 l 475 1014 l 342 896 l 324 913 z "},"ļ":{"ha":311,"x_min":50,"x_max":274,"o":"m 133 -7 q 72 16 94 -7 q 50 78 50 39 q 50 92 50 85 q 53 107 50 99 l 246 1014 l 274 1014 l 81 107 q 78 95 79 100 q 78 85 78 90 q 150 19 78 19 q 186 23 165 19 q 225 32 207 26 l 229 10 q 181 -2 210 3 q 133 -7 153 -7 m 56 -232 l 86 -151 l 74 -151 l 92 -69 l 126 -69 l 110 -151 l 75 -232 l 56 -232 z "},"ŀ":{"ha":332,"x_min":50,"x_max":322,"o":"m 133 -7 q 72 16 94 -7 q 50 78 50 39 q 50 92 50 85 q 53 107 50 99 l 246 1014 l 274 1014 l 81 107 q 78 95 79 100 q 78 85 78 90 q 150 19 78 19 q 186 23 165 19 q 225 32 207 26 l 229 10 q 181 -2 210 3 q 133 -7 153 -7 m 271 347 l 296 463 l 322 463 l 299 347 l 271 347 z "},"<":{"ha":751,"x_min":43,"x_max":622,"o":"m 43 372 l 622 718 l 622 688 l 83 360 l 622 31 l 622 0 l 43 347 l 43 372 z "},"¬":{"ha":750,"x_min":125,"x_max":664,"o":"m 664 469 l 606 194 l 578 194 l 631 442 l 125 442 l 131 469 l 664 469 z "},"ł":{"ha":331,"x_min":29,"x_max":369,"o":"m 29 442 l 169 563 l 267 1014 l 294 1014 l 204 592 l 353 719 l 369 700 l 196 551 l 101 107 q 99 95 100 100 q 99 85 99 90 q 171 19 99 19 q 206 23 186 19 q 246 32 226 26 l 250 10 q 202 -2 231 3 q 154 -7 174 -7 q 92 15 114 -7 q 71 76 71 38 q 71 91 71 83 q 74 107 71 99 l 161 522 l 44 422 l 29 442 z "},"m":{"ha":1203,"x_min":24,"x_max":1113,"o":"m 176 721 l 204 721 l 165 535 q 310 681 231 629 q 472 732 390 732 q 593 683 550 732 q 636 547 636 635 q 636 531 636 539 q 635 514 636 522 q 698 608 661 567 q 777 676 735 649 q 865 718 819 704 q 956 732 911 732 q 1113 550 1113 732 q 1108 482 1113 519 q 1094 401 1104 444 l 1010 0 l 982 0 l 1067 401 q 1083 542 1083 482 q 947 704 1083 704 q 853 686 900 704 q 765 635 807 668 q 688 556 724 601 q 626 454 653 510 l 531 0 l 503 0 l 588 401 q 601 481 597 444 q 606 546 606 517 q 471 704 606 704 q 376 686 422 704 q 289 635 331 668 q 211 557 247 603 q 149 456 175 511 l 51 0 l 24 0 l 176 721 z "},"−":{"ha":761,"x_min":92,"x_max":651,"o":"m 92 363 l 92 390 l 651 390 l 651 363 l 92 363 z "},"µ":{"ha":806,"x_min":-26,"x_max":736,"o":"m 189 721 l 218 721 l 132 317 q 115 182 115 239 q 260 14 115 14 q 360 33 310 14 q 458 84 411 51 q 544 163 504 117 q 610 263 583 208 l 707 721 l 736 721 l 594 56 q 593 46 593 54 q 610 28 593 28 l 603 0 q 565 42 565 0 q 567 56 565 53 l 594 183 q 522 101 563 138 q 438 40 482 65 q 347 0 393 14 q 254 -14 300 -14 q 92 131 111 -14 l 1 -294 l -26 -294 l 189 721 z "},"×":{"ha":639,"x_min":100,"x_max":517,"o":"m 517 188 l 496 168 l 308 356 l 121 168 l 101 189 l 288 375 l 100 564 l 121 583 l 308 396 l 497 585 l 517 564 l 328 375 l 517 188 z "},"n":{"ha":750,"x_min":24,"x_max":661,"o":"m 176 721 l 204 721 l 165 535 q 236 615 196 578 q 322 677 276 651 q 415 717 367 703 q 508 732 463 732 q 624 690 586 732 q 661 557 661 647 q 656 485 661 524 q 642 401 651 446 l 557 0 l 529 0 l 614 401 q 632 550 632 486 q 601 667 632 629 q 503 704 569 704 q 402 685 454 704 q 302 633 350 667 q 214 554 254 600 q 149 456 174 508 l 51 0 l 24 0 l 176 721 z "},"ń":{"ha":750,"x_min":24,"x_max":661,"o":"m 176 721 l 204 721 l 165 535 q 236 615 196 578 q 322 677 276 651 q 415 717 367 703 q 508 732 463 732 q 624 690 586 732 q 661 557 661 647 q 656 485 661 524 q 642 401 651 446 l 557 0 l 529 0 l 614 401 q 632 550 632 486 q 601 667 632 629 q 503 704 569 704 q 402 685 454 704 q 302 633 350 667 q 214 554 254 600 q 149 456 174 508 l 51 0 l 24 0 l 176 721 m 476 896 l 458 913 l 564 1014 l 610 1014 l 476 896 z "},"ŉ":{"ha":750,"x_min":-69,"x_max":661,"o":"m 176 721 l 204 721 l 165 535 q 236 615 196 578 q 322 677 276 651 q 415 717 367 703 q 508 732 463 732 q 624 690 586 732 q 661 557 661 647 q 656 485 661 524 q 642 401 651 446 l 557 0 l 529 0 l 614 401 q 632 550 632 486 q 601 667 632 629 q 503 704 569 704 q 402 685 454 704 q 302 633 350 667 q 214 554 254 600 q 149 456 174 508 l 51 0 l 24 0 l 176 721 m 82 1014 l -51 896 l -69 913 l -1 978 l 10 1014 l 82 1014 z "},"ň":{"ha":750,"x_min":24,"x_max":661,"o":"m 176 721 l 204 721 l 165 535 q 236 615 196 578 q 322 677 276 651 q 415 717 367 703 q 508 732 463 732 q 624 690 586 732 q 661 557 661 647 q 656 485 661 524 q 642 401 651 446 l 557 0 l 529 0 l 614 401 q 632 550 632 486 q 601 667 632 629 q 503 704 569 704 q 402 685 454 704 q 302 633 350 667 q 214 554 254 600 q 149 456 174 508 l 51 0 l 24 0 l 176 721 m 368 997 l 393 1014 l 488 926 l 618 1014 l 636 997 l 492 894 l 469 894 l 368 997 z "},"ņ":{"ha":750,"x_min":24,"x_max":661,"o":"m 176 721 l 204 721 l 165 535 q 236 615 196 578 q 322 677 276 651 q 415 717 367 703 q 508 732 463 732 q 624 690 586 732 q 661 557 661 647 q 656 485 661 524 q 642 401 651 446 l 557 0 l 529 0 l 614 401 q 632 550 632 486 q 601 667 632 629 q 503 704 569 704 q 402 685 454 704 q 302 633 350 667 q 214 554 254 600 q 149 456 174 508 l 51 0 l 24 0 l 176 721 m 232 -232 l 263 -151 l 250 -151 l 268 -69 l 303 -69 l 286 -151 l 251 -232 l 232 -232 z "},"ṅ":{"ha":750,"x_min":24,"x_max":661,"o":"m 176 721 l 204 721 l 165 535 q 236 615 196 578 q 322 677 276 651 q 415 717 367 703 q 508 732 463 732 q 624 690 586 732 q 661 557 661 647 q 656 485 661 524 q 642 401 651 446 l 557 0 l 529 0 l 614 401 q 632 550 632 486 q 601 667 632 629 q 503 704 569 704 q 402 685 454 704 q 302 633 350 667 q 214 554 254 600 q 149 456 174 508 l 51 0 l 24 0 l 176 721 m 479 907 l 501 1014 l 529 1014 l 507 907 l 479 907 z "},"₉":{"ha":528,"x_min":-10,"x_max":422,"o":"m 10 214 q 31 295 10 257 q 85 363 51 333 q 164 408 119 392 q 256 425 208 425 q 376 381 331 425 q 422 257 422 336 q 401 113 422 181 q 343 -7 381 44 q 253 -88 306 -58 q 138 -118 201 -118 q 38 -90 78 -118 q -10 -12 -1 -61 l 14 1 q 56 -67 21 -42 q 142 -93 90 -93 q 289 -23 224 -93 q 382 176 354 47 q 294 93 351 125 q 174 61 236 61 q 55 106 100 61 q 10 214 10 150 m 249 400 q 171 385 208 400 q 104 347 133 371 q 57 290 75 322 q 39 221 39 257 q 50 168 39 193 q 80 125 61 143 q 125 97 99 107 q 183 86 151 86 q 262 101 224 86 q 329 140 300 115 q 376 198 358 165 q 394 267 394 231 q 383 317 394 293 q 353 360 372 342 q 307 390 333 379 q 249 400 281 400 z "},"⁹":{"ha":526,"x_min":138,"x_max":569,"o":"m 158 914 q 178 995 158 957 q 233 1063 199 1033 q 311 1108 267 1092 q 403 1125 356 1125 q 524 1081 478 1125 q 569 957 569 1036 q 549 813 569 881 q 490 693 528 744 q 401 612 453 642 q 285 582 349 582 q 186 610 226 582 q 138 688 146 639 l 161 701 q 203 633 168 658 q 290 607 238 607 q 436 677 371 607 q 529 876 501 747 q 441 793 499 825 q 321 761 383 761 q 203 806 249 761 q 158 914 158 850 m 396 1100 q 318 1085 356 1100 q 251 1047 281 1071 q 204 990 222 1022 q 186 921 186 957 q 226 825 186 864 q 331 786 267 786 q 409 801 371 786 q 476 840 447 815 q 524 898 506 865 q 542 967 542 931 q 531 1017 542 993 q 500 1060 519 1042 q 454 1090 481 1079 q 396 1100 428 1100 z "},"ñ":{"ha":750,"x_min":24,"x_max":701,"o":"m 176 721 l 204 721 l 165 535 q 236 615 196 578 q 322 677 276 651 q 415 717 367 703 q 508 732 463 732 q 624 690 586 732 q 661 557 661 647 q 656 485 661 524 q 642 401 651 446 l 557 0 l 529 0 l 614 401 q 632 550 632 486 q 601 667 632 629 q 503 704 569 704 q 402 685 454 704 q 302 633 350 667 q 214 554 254 600 q 149 456 174 508 l 51 0 l 24 0 l 176 721 m 575 921 q 526 929 546 921 q 489 947 506 938 q 457 965 472 957 q 421 974 442 974 q 385 965 400 974 q 360 944 369 956 q 345 921 350 932 q 339 907 340 910 l 313 907 q 319 925 313 910 q 338 957 325 940 q 374 987 351 974 q 429 1000 396 1000 q 472 992 454 1000 q 506 974 490 983 q 540 956 522 964 q 583 947 558 947 q 628 957 610 947 q 656 978 646 967 q 671 1001 667 990 q 675 1014 675 1011 l 701 1014 q 694 994 700 1010 q 673 963 688 979 q 635 933 658 946 q 575 921 611 921 z "},"#":{"ha":865,"x_min":31,"x_max":871,"o":"m 865 668 l 710 668 l 563 335 l 742 335 l 736 307 l 550 307 l 415 0 l 386 0 l 522 307 l 207 307 l 72 0 l 43 0 l 179 307 l 31 307 l 36 335 l 193 335 l 339 668 l 160 668 l 167 696 l 353 696 l 481 986 l 510 986 l 379 696 l 694 696 l 824 986 l 853 986 l 722 696 l 871 696 l 865 668 m 535 335 l 682 668 l 367 668 l 219 335 l 535 335 z "},"o":{"ha":779,"x_min":42,"x_max":713,"o":"m 299 -14 q 193 10 240 -14 q 112 74 146 33 q 60 170 78 115 q 42 288 42 225 q 78 456 42 375 q 173 598 114 536 q 306 696 232 660 q 457 732 381 732 q 561 708 514 732 q 642 643 608 685 q 694 546 675 601 q 713 428 713 490 q 676 262 713 342 q 582 121 640 182 q 449 23 524 60 q 299 -14 375 -14 m 303 14 q 441 48 372 14 q 564 138 510 82 q 651 269 618 194 q 685 424 685 343 q 667 533 685 482 q 619 622 650 583 q 546 682 589 660 q 451 704 503 704 q 314 670 382 704 q 192 578 246 636 q 103 446 138 521 q 69 290 69 371 q 86 183 69 233 q 134 94 103 132 q 208 35 165 57 q 303 14 250 14 z "},"ó":{"ha":779,"x_min":42,"x_max":713,"o":"m 299 -14 q 193 10 240 -14 q 112 74 146 33 q 60 170 78 115 q 42 288 42 225 q 78 456 42 375 q 173 598 114 536 q 306 696 232 660 q 457 732 381 732 q 561 708 514 732 q 642 643 608 685 q 694 546 675 601 q 713 428 713 490 q 676 262 713 342 q 582 121 640 182 q 449 23 524 60 q 299 -14 375 -14 m 303 14 q 441 48 372 14 q 564 138 510 82 q 651 269 618 194 q 685 424 685 343 q 667 533 685 482 q 619 622 650 583 q 546 682 589 660 q 451 704 503 704 q 314 670 382 704 q 192 578 246 636 q 103 446 138 521 q 69 290 69 371 q 86 183 69 233 q 134 94 103 132 q 208 35 165 57 q 303 14 250 14 m 488 896 l 469 913 l 575 1014 l 621 1014 l 488 896 z "},"ŏ":{"ha":779,"x_min":42,"x_max":713,"o":"m 299 -14 q 193 10 240 -14 q 112 74 146 33 q 60 170 78 115 q 42 288 42 225 q 78 456 42 375 q 173 598 114 536 q 306 696 232 660 q 457 732 381 732 q 561 708 514 732 q 642 643 608 685 q 694 546 675 601 q 713 428 713 490 q 676 262 713 342 q 582 121 640 182 q 449 23 524 60 q 299 -14 375 -14 m 303 14 q 441 48 372 14 q 564 138 510 82 q 651 269 618 194 q 685 424 685 343 q 667 533 685 482 q 619 622 650 583 q 546 682 589 660 q 451 704 503 704 q 314 670 382 704 q 192 578 246 636 q 103 446 138 521 q 69 290 69 371 q 86 183 69 233 q 134 94 103 132 q 208 35 165 57 q 303 14 250 14 m 492 931 q 546 955 519 931 q 583 1014 572 979 l 608 1014 q 592 974 604 993 q 563 940 579 954 q 526 916 546 925 q 488 907 507 907 q 431 932 453 907 q 408 993 408 957 q 411 1014 408 1000 l 438 1014 q 436 999 436 1008 q 452 951 436 971 q 492 931 468 931 z "},"ô":{"ha":779,"x_min":42,"x_max":713,"o":"m 299 -14 q 193 10 240 -14 q 112 74 146 33 q 60 170 78 115 q 42 288 42 225 q 78 456 42 375 q 173 598 114 536 q 306 696 232 660 q 457 732 381 732 q 561 708 514 732 q 642 643 608 685 q 694 546 675 601 q 713 428 713 490 q 676 262 713 342 q 582 121 640 182 q 449 23 524 60 q 299 -14 375 -14 m 303 14 q 441 48 372 14 q 564 138 510 82 q 651 269 618 194 q 685 424 685 343 q 667 533 685 482 q 619 622 650 583 q 546 682 589 660 q 451 704 503 704 q 314 670 382 704 q 192 578 246 636 q 103 446 138 521 q 69 290 69 371 q 86 183 69 233 q 134 94 103 132 q 208 35 165 57 q 303 14 250 14 m 367 911 l 511 1014 l 533 1014 l 635 911 l 610 894 l 515 982 l 385 894 l 367 911 z "},"ö":{"ha":779,"x_min":42,"x_max":713,"o":"m 299 -14 q 193 10 240 -14 q 112 74 146 33 q 60 170 78 115 q 42 288 42 225 q 78 456 42 375 q 173 598 114 536 q 306 696 232 660 q 457 732 381 732 q 561 708 514 732 q 642 643 608 685 q 694 546 675 601 q 713 428 713 490 q 676 262 713 342 q 582 121 640 182 q 449 23 524 60 q 299 -14 375 -14 m 303 14 q 441 48 372 14 q 564 138 510 82 q 651 269 618 194 q 685 424 685 343 q 667 533 685 482 q 619 622 650 583 q 546 682 589 660 q 451 704 503 704 q 314 670 382 704 q 192 578 246 636 q 103 446 138 521 q 69 290 69 371 q 86 183 69 233 q 134 94 103 132 q 208 35 165 57 q 303 14 250 14 m 399 907 l 421 1014 l 449 1014 l 426 907 l 399 907 m 553 907 l 575 1014 l 603 1014 l 581 907 l 553 907 z "},"œ":{"ha":1389,"x_min":42,"x_max":1335,"o":"m 296 -14 q 192 9 239 -14 q 111 72 144 32 q 60 167 78 113 q 42 283 42 221 q 78 455 42 374 q 172 598 114 536 q 306 696 231 660 q 460 732 381 732 q 559 713 514 732 q 638 658 604 693 q 690 572 671 622 q 710 461 708 522 q 776 574 736 524 q 864 659 815 624 q 967 713 913 694 q 1081 732 1022 732 q 1269 649 1203 732 q 1335 424 1335 567 q 1332 366 1335 381 q 1326 344 1329 351 l 701 344 q 697 289 697 315 q 715 180 697 231 q 767 92 733 129 q 846 35 800 56 q 947 14 892 14 q 1030 25 989 14 q 1107 56 1071 36 q 1174 104 1143 76 q 1225 165 1204 132 l 1250 158 q 1192 89 1226 121 q 1115 34 1157 57 q 1028 -1 1074 11 q 939 -14 983 -14 q 835 6 883 -14 q 751 63 788 26 q 694 149 715 99 q 668 257 672 199 q 598 146 639 196 q 508 60 557 96 q 404 6 458 25 q 296 -14 350 -14 m 303 14 q 442 47 374 14 q 565 138 511 81 q 652 269 619 194 q 685 426 685 343 q 668 535 685 485 q 621 624 651 586 q 547 683 590 661 q 453 704 504 704 q 313 670 382 704 q 190 578 244 636 q 103 446 136 521 q 69 288 69 371 q 86 179 69 229 q 133 92 103 129 q 207 35 164 56 q 303 14 250 14 m 1304 372 q 1308 406 1307 389 q 1310 439 1310 422 q 1293 547 1310 497 q 1246 631 1276 596 q 1172 685 1215 665 q 1075 704 1128 704 q 956 679 1014 704 q 849 610 897 654 q 763 504 800 565 q 707 372 725 443 l 1304 372 z "},"ò":{"ha":779,"x_min":42,"x_max":713,"o":"m 299 -14 q 193 10 240 -14 q 112 74 146 33 q 60 170 78 115 q 42 288 42 225 q 78 456 42 375 q 173 598 114 536 q 306 696 232 660 q 457 732 381 732 q 561 708 514 732 q 642 643 608 685 q 694 546 675 601 q 713 428 713 490 q 676 262 713 342 q 582 121 640 182 q 449 23 524 60 q 299 -14 375 -14 m 303 14 q 441 48 372 14 q 564 138 510 82 q 651 269 618 194 q 685 424 685 343 q 667 533 685 482 q 619 622 650 583 q 546 682 589 660 q 451 704 503 704 q 314 670 382 704 q 192 578 246 636 q 103 446 138 521 q 69 290 69 371 q 86 183 69 233 q 134 94 103 132 q 208 35 165 57 q 303 14 250 14 m 450 1014 l 494 1014 l 558 913 l 533 896 l 450 1014 z "},"ő":{"ha":779,"x_min":42,"x_max":713,"o":"m 299 -14 q 193 10 240 -14 q 112 74 146 33 q 60 170 78 115 q 42 288 42 225 q 78 456 42 375 q 173 598 114 536 q 306 696 232 660 q 457 732 381 732 q 561 708 514 732 q 642 643 608 685 q 694 546 675 601 q 713 428 713 490 q 676 262 713 342 q 582 121 640 182 q 449 23 524 60 q 299 -14 375 -14 m 303 14 q 441 48 372 14 q 564 138 510 82 q 651 269 618 194 q 685 424 685 343 q 667 533 685 482 q 619 622 650 583 q 546 682 589 660 q 451 704 503 704 q 314 670 382 704 q 192 578 246 636 q 103 446 138 521 q 69 290 69 371 q 86 183 69 233 q 134 94 103 132 q 208 35 165 57 q 303 14 250 14 m 381 896 l 363 913 l 468 1014 l 514 1014 l 381 896 m 514 896 l 496 913 l 601 1014 l 647 1014 l 514 896 z "},"ō":{"ha":779,"x_min":42,"x_max":713,"o":"m 299 -14 q 193 10 240 -14 q 112 74 146 33 q 60 170 78 115 q 42 288 42 225 q 78 456 42 375 q 173 598 114 536 q 306 696 232 660 q 457 732 381 732 q 561 708 514 732 q 642 643 608 685 q 694 546 675 601 q 713 428 713 490 q 676 262 713 342 q 582 121 640 182 q 449 23 524 60 q 299 -14 375 -14 m 303 14 q 441 48 372 14 q 564 138 510 82 q 651 269 618 194 q 685 424 685 343 q 667 533 685 482 q 619 622 650 583 q 546 682 589 660 q 451 704 503 704 q 314 670 382 704 q 192 578 246 636 q 103 446 138 521 q 69 290 69 371 q 86 183 69 233 q 134 94 103 132 q 208 35 165 57 q 303 14 250 14 m 318 953 l 324 981 l 693 981 l 688 953 l 318 953 z "},"⅛":{"ha":1044,"x_min":29,"x_max":990,"o":"m 29 15 l 972 988 l 990 971 l 47 -1 l 29 15 m 336 501 l 331 475 l 92 475 l 97 501 l 207 501 l 308 979 q 283 959 300 971 q 245 938 265 947 q 204 921 225 928 q 167 914 183 914 l 172 940 q 218 951 193 940 q 264 976 243 963 q 299 1002 285 990 q 315 1015 314 1014 l 343 1015 l 233 501 l 336 501 m 704 -6 q 582 33 625 -6 q 539 125 539 72 q 553 182 539 156 q 591 229 568 208 q 643 264 614 250 q 700 286 672 278 q 640 324 664 299 q 615 386 615 350 q 634 448 615 421 q 683 494 653 475 q 749 522 713 513 q 821 532 785 532 q 877 525 850 532 q 925 504 904 518 q 958 469 946 490 q 971 422 971 449 q 959 376 971 397 q 928 337 947 354 q 885 307 910 319 q 833 286 860 294 q 908 241 879 272 q 936 165 936 210 q 916 95 936 126 q 864 42 896 64 q 790 7 832 19 q 704 -6 747 -6 m 713 19 q 781 29 746 19 q 844 58 815 39 q 892 103 874 76 q 910 163 910 129 q 897 209 910 189 q 864 244 885 229 q 817 266 843 258 q 764 274 790 274 q 696 263 731 274 q 632 233 661 253 q 585 187 603 214 q 567 128 567 160 q 579 83 567 103 q 613 49 592 63 q 660 27 633 35 q 713 19 686 19 m 769 297 q 828 306 797 297 q 884 329 858 314 q 926 367 910 344 q 943 417 943 389 q 904 483 943 460 q 814 507 865 507 q 751 499 782 507 q 697 474 721 490 q 658 436 674 458 q 643 388 643 414 q 654 349 643 367 q 683 321 665 332 q 724 303 701 310 q 769 297 746 297 z "},"¹":{"ha":333,"x_min":103,"x_max":354,"o":"m 347 613 l 342 586 l 103 586 l 108 613 l 218 613 l 319 1090 q 294 1070 311 1082 q 256 1049 276 1058 q 215 1032 236 1039 q 178 1025 194 1025 l 183 1051 q 229 1063 204 1051 q 275 1088 254 1074 q 310 1113 296 1101 q 326 1126 325 1125 l 354 1126 l 244 613 l 347 613 z "},"½":{"ha":1047,"x_min":10,"x_max":989,"o":"m 10 15 l 953 988 l 971 971 l 28 -1 l 10 15 m 342 501 l 336 475 l 97 475 l 103 501 l 213 501 l 314 979 q 288 959 306 971 q 251 938 271 947 q 210 921 231 928 q 172 914 189 914 l 178 940 q 224 951 199 940 q 269 976 249 963 q 305 1002 290 990 q 321 1015 319 1014 l 349 1015 l 239 501 l 342 501 m 528 0 q 605 157 550 103 q 742 240 660 211 q 815 265 776 253 q 886 296 854 278 q 939 341 918 314 q 960 410 960 368 q 931 481 960 450 q 835 513 901 513 q 769 503 799 513 q 715 482 739 494 q 674 455 692 469 q 646 429 657 440 l 629 446 q 647 463 631 449 q 690 494 663 478 q 756 525 718 511 q 843 539 794 539 q 955 502 921 539 q 989 415 989 465 q 965 333 989 365 q 906 279 942 300 q 831 246 871 258 q 758 222 792 233 q 667 178 703 203 q 611 126 632 153 q 581 74 590 100 q 568 26 572 47 l 910 26 l 904 0 l 528 0 z "},"₂":{"ha":492,"x_min":-56,"x_max":406,"o":"m -56 -111 q 22 46 -33 -8 q 158 129 76 100 q 232 154 193 142 q 303 185 271 167 q 356 230 335 203 q 376 299 376 257 q 347 370 376 339 q 251 401 318 401 q 185 392 215 401 q 132 371 156 383 q 91 344 108 358 q 63 318 74 329 l 46 335 q 63 352 47 338 q 107 383 79 367 q 173 414 135 400 q 260 428 211 428 q 372 391 338 428 q 406 304 406 354 q 382 222 406 254 q 323 168 358 189 q 248 135 288 147 q 175 111 208 122 q 84 67 119 92 q 28 15 49 42 q -2 -37 7 -11 q -15 -85 -11 -64 l 326 -85 l 321 -111 l -56 -111 z "},"₁":{"ha":333,"x_min":-46,"x_max":206,"o":"m 200 -85 l 194 -111 l -46 -111 l -40 -85 l 69 -85 l 171 393 q 145 373 163 385 q 108 351 128 361 q 67 335 88 342 q 29 328 46 328 l 35 354 q 81 365 56 354 q 127 390 106 376 q 163 416 149 404 q 179 429 178 428 l 206 429 l 97 -85 l 200 -85 z "},"¼":{"ha":986,"x_min":42,"x_max":1003,"o":"m 42 15 l 985 988 l 1003 971 l 60 -1 l 42 15 m 333 501 l 328 475 l 89 475 l 94 501 l 204 501 l 306 979 q 280 959 297 971 q 242 938 263 947 q 201 921 222 928 q 164 914 181 914 l 169 940 q 215 951 190 940 q 261 976 240 963 q 297 1002 282 990 q 313 1015 311 1014 l 340 1015 l 231 501 l 333 501 m 778 153 l 471 153 l 476 176 l 867 532 l 886 532 l 811 179 l 883 179 l 878 153 l 806 153 l 772 0 l 746 0 l 778 153 m 783 179 l 849 483 l 514 179 l 783 179 z "},"⅓":{"ha":1044,"x_min":15,"x_max":976,"o":"m 15 15 l 958 988 l 976 971 l 33 -1 l 15 15 m 339 501 l 333 475 l 94 475 l 100 501 l 210 501 l 311 979 q 285 959 303 971 q 248 938 268 947 q 207 921 228 928 q 169 914 186 914 l 175 940 q 221 951 196 940 q 267 976 246 963 q 302 1002 288 990 q 318 1015 317 1014 l 346 1015 l 236 501 l 339 501 m 707 -7 q 651 1 681 -7 q 596 24 621 8 q 555 65 571 40 q 539 126 539 90 l 563 136 q 602 53 563 88 q 713 19 642 19 q 787 30 751 19 q 849 58 822 40 q 891 101 875 76 q 907 154 907 125 q 861 231 907 203 q 735 258 815 258 l 706 258 l 711 283 l 740 283 q 890 315 836 283 q 944 408 944 347 q 907 485 944 456 q 807 514 869 514 q 704 490 751 514 q 633 431 657 467 l 617 447 q 698 514 644 489 q 813 539 751 539 q 930 503 886 539 q 974 413 974 467 q 938 323 974 360 q 828 271 901 286 q 906 230 878 261 q 935 157 935 199 q 916 91 935 121 q 866 40 897 61 q 793 6 835 18 q 707 -7 751 -7 z "},"₃":{"ha":504,"x_min":-32,"x_max":403,"o":"m 136 -118 q 80 -112 110 -118 q 25 -92 50 -107 q -16 -51 0 -78 q -32 15 -32 -25 l -8 25 q 31 -60 -8 -29 q 142 -92 71 -92 q 216 -81 181 -92 q 278 -53 251 -71 q 320 -10 304 -35 q 336 43 336 14 q 290 119 336 92 q 164 147 243 147 l 135 147 l 140 172 l 169 172 q 320 204 267 172 q 374 297 374 236 q 336 374 374 344 q 236 403 299 403 q 133 379 181 403 q 63 319 86 356 l 46 336 q 127 403 74 378 q 242 428 181 428 q 359 392 315 428 q 403 301 403 356 q 367 212 403 249 q 257 160 331 175 q 335 119 307 150 q 364 46 364 88 q 345 -20 364 10 q 295 -72 326 -50 q 222 -106 264 -93 q 136 -118 181 -118 z "},"ǫ":{"ha":779,"x_min":42,"x_max":713,"o":"m 217 -233 q 177 -208 190 -226 q 164 -165 164 -189 q 190 -95 164 -129 q 285 -14 217 -61 q 185 14 229 -11 q 108 79 140 39 q 59 173 76 119 q 42 288 42 226 q 78 456 42 375 q 173 598 114 536 q 306 696 232 660 q 457 732 381 732 q 561 708 514 732 q 642 643 608 685 q 694 546 675 601 q 713 428 713 490 q 680 269 713 346 q 594 133 647 193 q 471 33 540 72 q 329 -12 401 -6 q 262 -58 289 -37 q 219 -94 235 -78 q 198 -126 204 -111 q 192 -158 192 -142 q 239 -210 192 -199 l 217 -233 m 303 14 q 441 48 372 14 q 564 138 510 82 q 651 269 618 194 q 685 424 685 343 q 667 533 685 482 q 619 622 650 583 q 546 682 589 660 q 451 704 503 704 q 314 670 382 704 q 192 578 246 636 q 103 446 138 521 q 69 290 69 371 q 86 183 69 233 q 134 94 103 132 q 208 35 165 57 q 303 14 250 14 z "},"ª":{"ha":561,"x_min":110,"x_max":542,"o":"m 238 488 q 144 523 179 488 q 110 611 110 558 q 128 679 110 649 q 177 731 146 710 q 250 765 208 753 q 340 778 292 778 q 486 751 425 778 l 496 800 q 500 839 500 821 q 470 920 500 890 q 382 950 440 950 q 217 893 311 950 l 206 921 q 392 985 311 985 q 503 950 464 985 q 542 849 542 915 q 540 823 542 836 q 536 796 539 810 l 486 558 q 485 550 485 557 q 500 536 485 536 l 492 496 q 456 502 468 496 q 444 528 444 508 q 446 538 444 535 l 453 578 q 354 511 411 535 q 238 488 297 488 m 253 524 q 319 532 285 524 q 384 556 354 540 q 435 591 414 571 q 461 635 456 611 l 479 719 q 413 740 447 735 q 339 746 378 746 q 205 712 258 746 q 151 618 151 678 q 179 551 151 578 q 253 524 207 524 z "},"º":{"ha":599,"x_min":126,"x_max":603,"o":"m 310 488 q 234 503 268 488 q 176 547 200 519 q 139 612 151 575 q 126 690 126 649 q 151 801 126 749 q 215 895 175 854 q 308 960 256 936 q 415 985 360 985 q 492 969 457 985 q 551 925 526 953 q 590 860 576 897 q 603 781 603 822 q 578 670 603 724 q 513 576 553 617 q 419 512 472 536 q 310 488 365 488 m 315 514 q 409 535 363 514 q 492 593 456 557 q 550 676 528 629 q 572 776 572 724 q 560 847 572 814 q 527 905 549 881 q 476 943 506 929 q 410 957 446 957 q 318 935 364 957 q 236 878 272 914 q 178 794 200 842 q 156 693 156 746 q 167 623 156 656 q 200 566 179 590 q 250 528 221 542 q 315 514 279 514 z "},"ø":{"ha":779,"x_min":42,"x_max":713,"o":"m 124 61 q 63 161 85 103 q 42 288 42 219 q 78 456 42 375 q 173 598 114 536 q 306 696 232 660 q 457 732 381 732 q 540 717 501 732 q 611 674 579 701 l 649 721 l 683 721 l 631 654 q 691 554 669 613 q 713 428 713 496 q 676 262 713 342 q 582 121 640 182 q 449 23 524 60 q 299 -14 375 -14 q 214 1 253 -14 q 143 42 175 15 l 110 0 l 76 0 l 124 61 m 69 290 q 88 175 69 228 q 143 83 107 122 l 592 650 q 451 704 533 704 q 313 670 382 704 q 190 578 244 636 q 103 446 136 521 q 69 290 69 371 m 303 14 q 441 48 372 14 q 564 138 510 82 q 651 269 618 194 q 685 424 685 343 q 665 539 685 486 q 611 631 646 592 l 161 65 q 226 28 190 42 q 303 14 261 14 z "},"ǿ":{"ha":779,"x_min":42,"x_max":713,"o":"m 488 896 l 469 913 l 575 1014 l 621 1014 l 488 896 m 124 61 q 63 161 85 103 q 42 288 42 219 q 78 456 42 375 q 173 598 114 536 q 306 696 232 660 q 457 732 381 732 q 540 717 501 732 q 611 674 579 701 l 649 721 l 683 721 l 631 654 q 691 554 669 613 q 713 428 713 496 q 676 262 713 342 q 582 121 640 182 q 449 23 524 60 q 299 -14 375 -14 q 214 1 253 -14 q 143 42 175 15 l 110 0 l 76 0 l 124 61 m 69 290 q 88 175 69 228 q 143 83 107 122 l 592 650 q 451 704 533 704 q 313 670 382 704 q 190 578 244 636 q 103 446 136 521 q 69 290 69 371 m 303 14 q 441 48 372 14 q 564 138 510 82 q 651 269 618 194 q 685 424 685 343 q 665 539 685 486 q 611 631 646 592 l 161 65 q 226 28 190 42 q 303 14 261 14 z "},"õ":{"ha":779,"x_min":42,"x_max":713,"o":"m 299 -14 q 193 10 240 -14 q 112 74 146 33 q 60 170 78 115 q 42 288 42 225 q 78 456 42 375 q 173 598 114 536 q 306 696 232 660 q 457 732 381 732 q 561 708 514 732 q 642 643 608 685 q 694 546 675 601 q 713 428 713 490 q 676 262 713 342 q 582 121 640 182 q 449 23 524 60 q 299 -14 375 -14 m 303 14 q 441 48 372 14 q 564 138 510 82 q 651 269 618 194 q 685 424 685 343 q 667 533 685 482 q 619 622 650 583 q 546 682 589 660 q 451 704 503 704 q 314 670 382 704 q 192 578 246 636 q 103 446 138 521 q 69 290 69 371 q 86 183 69 233 q 134 94 103 132 q 208 35 165 57 q 303 14 250 14 m 572 921 q 523 929 543 921 q 486 947 503 938 q 454 965 469 957 q 418 974 439 974 q 382 965 397 974 q 357 944 367 956 q 342 921 347 932 q 336 907 338 910 l 310 907 q 316 925 310 910 q 335 957 322 940 q 371 987 349 974 q 426 1000 393 1000 q 469 992 451 1000 q 503 974 488 983 q 538 956 519 964 q 581 947 556 947 q 625 957 607 947 q 653 978 643 967 q 668 1001 664 990 q 672 1014 672 1011 l 699 1014 q 691 994 697 1010 q 670 963 685 979 q 632 933 656 946 q 572 921 608 921 z "},"p":{"ha":801,"x_min":-39,"x_max":733,"o":"m 178 721 l 204 721 l 172 568 q 238 634 201 604 q 313 686 274 664 q 394 720 353 708 q 475 732 436 732 q 584 706 536 732 q 665 638 632 681 q 716 539 699 594 q 733 425 733 483 q 701 265 733 343 q 614 124 669 186 q 485 24 558 63 q 328 -14 411 -14 q 244 1 282 -14 q 176 40 207 15 q 124 97 146 64 q 88 165 101 129 l -11 -296 l -39 -296 l 178 721 m 333 14 q 478 51 410 14 q 597 146 546 88 q 676 277 647 204 q 706 422 706 350 q 689 529 706 478 q 641 619 672 581 q 566 681 610 658 q 468 704 522 704 q 378 686 428 704 q 283 638 329 668 q 202 567 238 607 q 154 483 167 526 l 99 224 q 129 141 108 179 q 180 75 150 103 q 249 31 210 47 q 333 14 288 14 z "},"¶":{"ha":751,"x_min":89,"x_max":804,"o":"m 89 601 q 121 758 89 688 q 211 880 153 829 q 352 958 269 931 q 538 986 435 986 l 804 986 l 797 958 l 706 958 l 478 -111 l 450 -111 l 547 344 l 428 344 l 331 -111 l 303 -111 l 400 344 q 169 415 250 347 q 89 601 89 482 m 117 608 q 140 504 117 547 q 201 433 163 461 q 293 390 240 404 q 406 372 346 375 l 531 958 q 355 933 432 958 q 225 861 278 907 q 144 751 172 815 q 117 608 117 686 m 678 958 l 558 958 l 433 372 l 553 372 l 678 958 z "},"(":{"ha":317,"x_min":68,"x_max":390,"o":"m 68 356 q 92 533 68 449 q 158 696 117 617 q 255 852 200 775 q 372 1008 310 929 l 390 992 q 290 860 342 935 q 194 704 238 786 q 124 535 151 622 q 96 367 96 449 q 101 274 96 324 q 115 174 106 225 q 140 74 125 124 q 175 -19 156 24 l 150 -36 q 89 160 110 56 q 68 356 68 264 z "},")":{"ha":317,"x_min":-44,"x_max":275,"o":"m 275 601 q 196 284 275 438 q -26 -36 117 131 l -44 -19 q 74 131 21 54 q 166 284 128 207 q 225 438 204 361 q 246 589 246 515 q 240 696 246 640 q 224 805 235 751 q 200 907 214 858 q 171 992 186 956 l 196 1008 q 252 810 229 915 q 275 601 275 706 z "},"%":{"ha":894,"x_min":-18,"x_max":943,"o":"m 292 617 q 185 662 225 617 q 146 774 146 707 q 165 860 146 819 q 217 933 185 901 q 290 982 249 964 q 374 1000 331 1000 q 479 955 439 1000 q 519 843 519 910 q 500 756 519 797 q 449 684 481 715 q 376 635 417 653 q 292 617 335 617 m 297 644 q 369 660 335 644 q 431 703 404 676 q 475 765 458 731 q 492 838 492 800 q 456 933 492 894 q 367 972 419 972 q 294 956 329 972 q 233 913 260 940 q 190 851 206 886 q 174 779 174 817 q 208 683 174 721 q 297 644 243 644 m 553 -14 q 447 31 488 -14 q 407 143 407 76 q 426 230 407 189 q 478 302 446 271 q 551 351 510 333 q 635 369 592 369 q 740 324 700 369 q 781 213 781 279 q 761 126 781 167 q 710 53 742 85 q 637 4 678 22 q 553 -14 596 -14 m 558 14 q 631 30 596 14 q 692 73 665 46 q 736 134 719 100 q 753 206 753 168 q 717 302 753 263 q 629 342 682 342 q 557 325 592 342 q 495 281 522 308 q 451 219 468 254 q 435 147 435 185 q 469 52 435 90 q 558 14 503 14 m -18 15 l 925 988 l 943 971 l 0 -1 l -18 15 z "},".":{"ha":221,"x_min":11,"x_max":57,"o":"m 11 0 l 31 89 l 57 89 l 39 0 l 11 0 z "},"‰":{"ha":1319,"x_min":-10,"x_max":1226,"o":"m 303 617 q 194 661 235 617 q 154 772 154 706 q 174 859 154 818 q 225 931 193 900 q 297 981 257 963 q 379 1000 338 1000 q 488 956 447 1000 q 528 844 528 911 q 508 757 528 799 q 457 684 489 715 q 385 635 425 653 q 303 617 344 617 m 308 644 q 378 660 344 644 q 440 703 413 676 q 483 766 467 731 q 500 839 500 801 q 464 934 500 896 q 372 972 428 972 q 302 956 336 972 q 242 912 268 939 q 199 849 215 885 q 182 776 182 814 q 217 683 182 721 q 308 644 251 644 m 564 -14 q 456 31 496 -14 q 415 142 415 75 q 435 228 415 188 q 486 301 454 269 q 558 351 518 332 q 640 369 599 369 q 749 324 708 369 q 789 213 789 279 q 769 126 789 167 q 718 53 750 85 q 646 4 686 22 q 564 -14 606 -14 m 569 14 q 640 30 606 14 q 701 73 674 46 q 744 135 728 100 q 761 208 761 171 q 726 303 761 264 q 635 342 692 342 q 565 325 599 342 q 503 281 531 308 q 460 219 476 254 q 443 146 443 183 q 477 52 443 90 q 569 14 511 14 m 1001 -14 q 894 31 935 -14 q 853 142 853 75 q 872 228 853 188 q 924 301 892 269 q 996 351 956 332 q 1078 369 1036 369 q 1186 324 1146 369 q 1226 213 1226 279 q 1207 126 1226 167 q 1156 53 1188 85 q 1083 4 1124 22 q 1001 -14 1043 -14 m 1007 14 q 1077 30 1043 14 q 1138 73 1111 46 q 1182 135 1165 100 q 1199 207 1199 169 q 1163 303 1199 264 q 1071 342 1128 342 q 1001 325 1035 342 q 940 281 967 308 q 897 219 914 254 q 881 146 881 183 q 915 52 881 90 q 1007 14 949 14 m -10 15 l 933 988 l 951 971 l 8 -1 l -10 15 z "},"+":{"ha":569,"x_min":90,"x_max":507,"o":"m 507 507 l 507 479 l 313 479 l 313 271 l 285 271 l 285 479 l 90 479 l 90 507 l 285 507 l 285 715 l 313 715 l 313 507 l 507 507 z "},"±":{"ha":671,"x_min":107,"x_max":524,"o":"m 107 118 l 107 146 l 524 146 l 524 118 l 107 118 m 524 507 l 524 479 l 329 479 l 329 271 l 301 271 l 301 479 l 107 479 l 107 507 l 301 507 l 301 715 l 329 715 l 329 507 l 524 507 z "},"q":{"ha":800,"x_min":40,"x_max":751,"o":"m 289 -14 q 181 11 228 -14 q 103 77 135 36 q 56 172 72 118 q 40 285 40 226 q 76 451 40 371 q 172 594 113 532 q 306 694 231 657 q 460 732 381 732 q 535 719 499 732 q 603 685 572 707 q 656 633 633 663 q 692 568 679 603 l 724 721 l 751 721 l 547 -240 q 546 -250 546 -242 q 563 -268 546 -268 l 557 -296 q 518 -253 518 -296 q 519 -240 518 -242 l 606 165 q 449 32 529 78 q 289 -14 369 -14 m 294 14 q 388 31 342 14 q 476 78 435 49 q 554 144 518 107 q 618 224 590 182 l 678 497 q 653 577 671 539 q 606 643 635 615 q 540 688 578 671 q 454 704 501 704 q 308 667 378 704 q 185 572 239 631 q 100 438 132 513 q 68 289 68 364 q 83 183 68 233 q 128 96 99 133 q 199 36 157 58 q 294 14 242 14 z "},"?":{"ha":624,"x_min":131,"x_max":643,"o":"m 197 249 q 229 359 211 315 q 268 432 247 403 q 313 478 289 461 q 365 508 338 496 q 451 548 407 529 q 531 596 494 567 q 592 672 568 625 q 615 794 615 718 q 601 873 615 840 q 563 928 586 906 q 506 960 539 950 q 439 971 474 971 q 281 927 360 971 q 153 808 203 883 l 131 819 q 195 896 158 863 q 274 952 232 929 q 358 987 315 975 q 443 999 401 999 q 521 985 485 999 q 584 947 557 972 q 627 883 611 921 q 643 794 643 844 q 618 664 643 714 q 554 582 593 614 q 467 528 515 550 q 372 482 419 506 q 327 455 349 469 q 288 415 306 440 q 253 349 269 389 q 225 249 238 310 l 197 249 m 144 0 l 169 117 l 197 117 l 172 0 l 144 0 z "},"¿":{"ha":618,"x_min":-51,"x_max":461,"o":"m 394 454 q 363 344 381 388 q 324 271 344 300 q 278 224 303 242 q 226 194 253 207 q 141 155 185 174 q 60 107 97 136 q 0 31 24 78 q -24 -92 -24 -15 q -9 -170 -24 -137 q 29 -225 6 -203 q 85 -258 53 -247 q 153 -268 117 -268 q 310 -224 232 -268 q 439 -106 389 -181 l 461 -117 q 397 -193 433 -160 q 318 -249 360 -226 q 233 -284 276 -272 q 149 -296 190 -296 q 71 -283 107 -296 q 8 -244 35 -269 q -35 -180 -19 -218 q -51 -92 -51 -142 q -26 39 -51 -11 q 38 121 -1 89 q 124 175 76 153 q 219 221 172 197 q 265 248 243 233 q 304 288 286 263 q 338 353 322 314 q 367 454 354 393 l 394 454 m 447 703 l 422 586 l 394 586 l 419 703 l 447 703 z "},"\"":{"ha":294,"x_min":176,"x_max":313,"o":"m 176 792 l 218 986 l 246 986 l 204 792 l 176 792 m 243 792 l 285 986 l 313 986 l 271 792 l 243 792 z "},"„":{"ha":451,"x_min":46,"x_max":221,"o":"m 46 -106 l 82 0 l 69 0 l 92 103 l 126 103 l 104 0 l 65 -106 l 46 -106 m 140 -106 l 175 0 l 163 0 l 185 103 l 221 103 l 199 0 l 158 -106 l 140 -106 z "},"‚":{"ha":357,"x_min":46,"x_max":126,"o":"m 46 -106 l 82 0 l 69 0 l 92 103 l 126 103 l 104 0 l 65 -106 l 46 -106 z "},"“":{"ha":331,"x_min":171,"x_max":360,"o":"m 254 1014 l 215 894 l 228 894 l 207 792 l 171 792 l 193 894 l 236 1014 l 254 1014 m 360 1014 l 321 894 l 333 894 l 313 792 l 276 792 l 299 894 l 342 1014 l 360 1014 z "},"‘":{"ha":225,"x_min":171,"x_max":254,"o":"m 254 1014 l 215 894 l 228 894 l 207 792 l 171 792 l 193 894 l 236 1014 l 254 1014 z "},"”":{"ha":326,"x_min":172,"x_max":361,"o":"m 172 792 l 211 911 l 199 911 l 219 1014 l 256 1014 l 233 911 l 190 792 l 172 792 m 278 792 l 317 911 l 304 911 l 325 1014 l 361 1014 l 339 911 l 296 792 l 278 792 z "},"’":{"ha":221,"x_min":172,"x_max":256,"o":"m 172 792 l 211 911 l 199 911 l 219 1014 l 256 1014 l 233 911 l 190 792 l 172 792 z "},"'":{"ha":226,"x_min":176,"x_max":246,"o":"m 176 790 l 218 986 l 246 986 l 204 790 l 176 790 z "},"r":{"ha":440,"x_min":24,"x_max":471,"o":"m 176 721 l 204 721 l 165 535 q 296 666 222 619 q 444 719 369 713 q 458 721 451 721 q 471 721 464 721 l 465 693 q 283 626 367 689 q 149 456 199 564 l 51 0 l 24 0 l 176 721 z "},"ŕ":{"ha":440,"x_min":24,"x_max":471,"o":"m 176 721 l 204 721 l 165 535 q 296 666 222 619 q 444 719 369 713 q 458 721 451 721 q 471 721 464 721 l 465 693 q 283 626 367 689 q 149 456 199 564 l 51 0 l 24 0 l 176 721 m 310 896 l 292 913 l 397 1014 l 443 1014 l 310 896 z "},"ř":{"ha":440,"x_min":24,"x_max":489,"o":"m 176 721 l 204 721 l 165 535 q 296 666 222 619 q 444 719 369 713 q 458 721 451 721 q 471 721 464 721 l 465 693 q 283 626 367 689 q 149 456 199 564 l 51 0 l 24 0 l 176 721 m 221 997 l 246 1014 l 340 926 l 471 1014 l 489 997 l 344 894 l 322 894 l 221 997 z "},"ŗ":{"ha":440,"x_min":-35,"x_max":471,"o":"m 176 721 l 204 721 l 165 535 q 296 666 222 619 q 444 719 369 713 q 458 721 451 721 q 471 721 464 721 l 465 693 q 283 626 367 689 q 149 456 199 564 l 51 0 l 24 0 l 176 721 m -35 -232 l -4 -151 l -17 -151 l 1 -69 l 36 -69 l 19 -151 l -15 -232 l -35 -232 z "},"®":{"ha":1161,"x_min":94,"x_max":1097,"o":"m 596 -10 q 396 28 488 -10 q 238 134 304 67 q 133 293 171 201 q 94 493 94 385 q 133 692 94 600 q 238 850 171 783 q 396 955 304 917 q 596 993 488 993 q 796 955 704 993 q 954 850 888 917 q 1059 692 1021 783 q 1097 493 1097 600 q 1059 293 1097 385 q 954 134 1021 201 q 796 28 888 67 q 596 -10 704 -10 m 596 18 q 782 52 696 18 q 932 149 868 86 q 1032 299 996 211 q 1068 493 1068 386 q 1033 681 1068 594 q 934 830 997 767 q 784 929 871 893 q 596 965 697 965 q 408 929 494 965 q 258 830 321 893 q 159 681 194 767 q 124 493 124 594 q 159 303 124 390 q 258 153 194 217 q 407 54 321 90 q 596 18 493 18 m 394 810 l 656 810 q 728 793 694 810 q 785 749 761 776 q 823 686 810 721 q 836 615 836 651 q 824 544 836 578 q 791 483 813 510 q 739 440 769 457 q 672 421 708 424 l 835 168 l 801 168 l 640 421 l 424 421 l 424 168 l 394 168 l 394 810 m 663 449 q 726 462 699 449 q 772 498 753 475 q 799 551 790 521 q 808 615 808 582 q 797 679 808 649 q 766 732 786 710 q 717 767 746 754 q 656 781 689 781 l 424 781 l 424 449 l 663 449 z "},"s":{"ha":625,"x_min":-17,"x_max":592,"o":"m 221 -14 q 82 15 142 -14 q -17 103 22 43 l 7 121 q 101 40 49 67 q 226 14 153 14 q 332 28 283 14 q 417 69 381 43 q 474 132 453 94 q 494 215 494 169 q 481 267 494 246 q 440 304 467 289 q 376 332 414 319 q 289 357 338 344 q 208 379 243 368 q 149 405 174 390 q 113 441 125 419 q 100 494 100 463 q 124 599 100 554 q 190 674 149 644 q 283 717 231 703 q 390 732 335 732 q 526 702 474 732 q 592 628 578 672 l 565 617 q 497 682 550 660 q 379 704 444 704 q 285 692 331 704 q 206 656 240 681 q 150 592 171 631 q 129 503 129 554 q 140 458 129 476 q 171 428 150 440 q 223 406 192 415 q 296 385 254 396 q 390 358 347 371 q 462 328 432 346 q 508 285 492 310 q 524 225 524 261 q 501 128 524 172 q 438 53 478 85 q 342 3 397 21 q 221 -14 286 -14 z "},"ﬆ":{"ha":1015,"x_min":-4,"x_max":1018,"o":"m 232 -14 q 88 19 146 -14 q -4 100 31 53 l 19 118 q 240 14 104 14 q 331 25 283 14 q 417 60 378 36 q 483 121 457 83 q 510 213 510 158 q 493 278 510 254 q 447 317 476 303 q 379 336 418 331 q 297 346 340 342 q 219 356 257 350 q 153 376 182 361 q 108 421 125 392 q 92 500 92 450 q 119 610 92 565 q 190 681 147 654 q 285 720 233 708 q 386 732 338 732 q 536 690 483 732 q 523 753 529 724 q 517 818 517 782 q 527 896 517 856 q 565 969 538 936 q 637 1024 592 1003 q 753 1046 682 1046 q 858 1017 829 1046 q 886 929 886 989 q 877 838 886 889 q 854 721 868 788 l 1018 721 l 1013 693 l 847 693 l 722 104 q 721 95 721 99 q 721 89 721 92 q 744 37 721 53 q 800 21 767 21 q 841 26 821 21 q 877 37 861 31 q 903 49 893 43 q 915 56 914 54 l 925 33 q 913 26 924 32 q 883 12 901 19 q 841 -1 864 4 q 794 -7 818 -7 q 720 17 749 -7 q 692 78 692 40 q 694 104 692 90 l 819 693 l 721 693 l 728 721 l 826 721 q 849 838 842 789 q 857 921 857 888 q 832 999 857 979 q 749 1018 807 1018 q 643 999 683 1018 q 581 951 603 981 q 551 885 558 922 q 543 813 543 849 q 558 699 543 746 q 579 628 572 651 l 551 617 q 522 660 540 643 q 481 688 504 678 q 432 701 458 697 q 381 704 406 704 q 288 694 335 704 q 205 660 242 683 q 144 600 168 638 q 121 510 121 563 q 137 440 121 465 q 179 400 153 414 q 240 381 206 386 q 308 372 274 375 q 387 364 346 369 q 461 342 428 358 q 517 296 494 326 q 539 214 539 265 q 509 110 539 153 q 434 39 479 67 q 335 -1 389 11 q 232 -14 281 -14 z "},"ś":{"ha":625,"x_min":-17,"x_max":592,"o":"m 221 -14 q 82 15 142 -14 q -17 103 22 43 l 7 121 q 101 40 49 67 q 226 14 153 14 q 332 28 283 14 q 417 69 381 43 q 474 132 453 94 q 494 215 494 169 q 481 267 494 246 q 440 304 467 289 q 376 332 414 319 q 289 357 338 344 q 208 379 243 368 q 149 405 174 390 q 113 441 125 419 q 100 494 100 463 q 124 599 100 554 q 190 674 149 644 q 283 717 231 703 q 390 732 335 732 q 526 702 474 732 q 592 628 578 672 l 565 617 q 497 682 550 660 q 379 704 444 704 q 285 692 331 704 q 206 656 240 681 q 150 592 171 631 q 129 503 129 554 q 140 458 129 476 q 171 428 150 440 q 223 406 192 415 q 296 385 254 396 q 390 358 347 371 q 462 328 432 346 q 508 285 492 310 q 524 225 524 261 q 501 128 524 172 q 438 53 478 85 q 342 3 397 21 q 221 -14 286 -14 m 404 896 l 386 913 l 492 1014 l 538 1014 l 404 896 z "},"š":{"ha":625,"x_min":-17,"x_max":592,"o":"m 221 -14 q 82 15 142 -14 q -17 103 22 43 l 7 121 q 101 40 49 67 q 226 14 153 14 q 332 28 283 14 q 417 69 381 43 q 474 132 453 94 q 494 215 494 169 q 481 267 494 246 q 440 304 467 289 q 376 332 414 319 q 289 357 338 344 q 208 379 243 368 q 149 405 174 390 q 113 441 125 419 q 100 494 100 463 q 124 599 100 554 q 190 674 149 644 q 283 717 231 703 q 390 732 335 732 q 526 702 474 732 q 592 628 578 672 l 565 617 q 497 682 550 660 q 379 704 444 704 q 285 692 331 704 q 206 656 240 681 q 150 592 171 631 q 129 503 129 554 q 140 458 129 476 q 171 428 150 440 q 223 406 192 415 q 296 385 254 396 q 390 358 347 371 q 462 328 432 346 q 508 285 492 310 q 524 225 524 261 q 501 128 524 172 q 438 53 478 85 q 342 3 397 21 q 221 -14 286 -14 m 304 997 l 329 1014 l 424 926 l 554 1014 l 572 997 l 428 894 l 406 894 l 304 997 z "},"ə":{"ha":761,"x_min":22,"x_max":693,"o":"m 282 -14 q 176 8 224 -14 q 94 67 128 29 q 41 158 60 106 q 22 271 22 210 q 24 322 22 294 q 35 374 26 350 l 661 374 q 665 432 665 403 q 648 540 665 490 q 599 627 631 590 q 524 684 568 664 q 428 704 481 704 q 347 693 388 704 q 270 662 307 682 q 202 614 233 642 q 150 553 171 586 l 126 560 q 181 628 147 597 q 257 683 215 660 q 344 719 299 706 q 435 732 390 732 q 540 708 493 732 q 622 643 588 685 q 674 545 656 601 q 693 425 693 489 q 658 258 693 338 q 565 117 622 178 q 433 22 507 57 q 282 -14 360 -14 m 288 14 q 406 39 347 14 q 513 108 464 64 q 599 214 563 153 q 654 346 636 275 l 58 346 q 53 279 53 314 q 69 171 53 219 q 117 88 86 122 q 190 33 147 53 q 288 14 233 14 z "},"ŝ":{"ha":625,"x_min":-17,"x_max":592,"o":"m 221 -14 q 82 15 142 -14 q -17 103 22 43 l 7 121 q 101 40 49 67 q 226 14 153 14 q 332 28 283 14 q 417 69 381 43 q 474 132 453 94 q 494 215 494 169 q 481 267 494 246 q 440 304 467 289 q 376 332 414 319 q 289 357 338 344 q 208 379 243 368 q 149 405 174 390 q 113 441 125 419 q 100 494 100 463 q 124 599 100 554 q 190 674 149 644 q 283 717 231 703 q 390 732 335 732 q 526 702 474 732 q 592 628 578 672 l 565 617 q 497 682 550 660 q 379 704 444 704 q 285 692 331 704 q 206 656 240 681 q 150 592 171 631 q 129 503 129 554 q 140 458 129 476 q 171 428 150 440 q 223 406 192 415 q 296 385 254 396 q 390 358 347 371 q 462 328 432 346 q 508 285 492 310 q 524 225 524 261 q 501 128 524 172 q 438 53 478 85 q 342 3 397 21 q 221 -14 286 -14 m 300 911 l 444 1014 l 467 1014 l 568 911 l 543 894 l 449 982 l 318 894 l 300 911 z "},"§":{"ha":650,"x_min":3,"x_max":629,"o":"m 481 251 q 526 147 526 219 q 497 31 526 82 q 423 -53 468 -19 q 325 -105 378 -87 q 225 -122 272 -122 q 89 -89 140 -122 q 3 -8 38 -56 l 28 10 q 117 -69 69 -43 q 232 -94 165 -94 q 322 -78 275 -94 q 407 -33 368 -62 q 471 40 446 -3 q 496 138 496 83 q 480 201 496 176 q 438 239 464 225 q 381 258 413 253 q 315 264 349 263 q 235 275 272 265 q 169 306 197 285 q 124 358 140 326 q 108 433 108 389 q 132 530 108 483 q 185 604 156 576 q 149 655 161 621 q 136 729 136 689 q 165 842 136 793 q 238 925 194 892 q 334 976 282 958 q 432 993 386 993 q 508 986 475 993 q 563 966 540 979 q 602 933 586 953 q 629 889 618 914 l 601 878 q 576 922 594 904 q 532 949 557 939 q 479 962 507 958 q 426 965 451 965 q 338 949 383 965 q 253 903 292 933 q 190 831 215 874 q 165 733 165 788 q 217 624 165 656 q 350 592 268 592 q 430 583 392 592 q 497 553 468 574 q 544 502 526 533 q 563 426 563 471 q 539 328 563 376 q 481 251 515 281 m 136 433 q 153 363 136 389 q 198 321 171 336 q 260 299 225 306 q 331 288 296 292 q 399 279 367 283 q 456 264 432 275 q 512 333 489 289 q 535 421 535 376 q 517 489 535 461 q 472 533 500 517 q 411 557 444 550 q 344 564 378 564 q 271 570 306 564 q 208 590 236 576 q 158 524 179 567 q 136 433 136 482 z "},";":{"ha":224,"x_min":-19,"x_max":189,"o":"m 142 629 l 161 718 l 189 718 l 169 629 l 142 629 m -19 -112 l 15 -14 l 3 -14 l 25 89 l 60 89 l 38 -14 l 0 -112 l -19 -112 z "},"⅞":{"ha":1046,"x_min":-24,"x_max":974,"o":"m -24 15 l 919 988 l 938 971 l -6 -1 l -24 15 m 707 -6 q 585 33 628 -6 q 542 125 542 72 q 556 182 542 156 q 594 229 571 208 q 646 264 617 250 q 703 286 675 278 q 642 324 667 299 q 618 386 618 350 q 637 448 618 421 q 685 494 656 475 q 751 522 715 513 q 824 532 788 532 q 880 525 853 532 q 928 504 907 518 q 961 469 949 490 q 974 422 974 449 q 962 376 974 397 q 931 337 950 354 q 888 307 913 319 q 836 286 863 294 q 910 241 882 272 q 939 165 939 210 q 919 95 939 126 q 867 42 899 64 q 792 7 835 19 q 707 -6 750 -6 m 715 19 q 783 29 749 19 q 847 58 818 39 q 894 103 876 76 q 913 163 913 129 q 900 209 913 189 q 867 244 888 229 q 819 266 846 258 q 767 274 793 274 q 699 263 733 274 q 635 233 664 253 q 588 187 606 214 q 569 128 569 160 q 582 83 569 103 q 615 49 594 63 q 663 27 636 35 q 715 19 689 19 m 772 297 q 831 306 800 297 q 887 329 861 314 q 929 367 913 344 q 946 417 946 389 q 907 483 946 460 q 817 507 868 507 q 754 499 785 507 q 700 474 724 490 q 661 436 676 458 q 646 388 646 414 q 657 349 646 367 q 686 321 668 332 q 726 303 704 310 q 772 297 749 297 m 519 988 l 179 988 l 185 1014 l 568 1014 l 157 482 l 126 482 l 519 988 z "},"⁷":{"ha":433,"x_min":125,"x_max":567,"o":"m 518 1099 l 178 1099 l 183 1125 l 567 1125 l 156 593 l 125 593 l 518 1099 z "},"₇":{"ha":435,"x_min":-25,"x_max":417,"o":"m 368 394 l 28 394 l 33 421 l 417 421 l 6 -111 l -25 -111 l 368 394 z "},"₆":{"ha":526,"x_min":-7,"x_max":425,"o":"m 404 93 q 384 12 404 50 q 330 -56 364 -26 q 251 -101 296 -85 q 160 -118 207 -118 q 39 -74 85 -118 q -7 50 -7 -29 q 14 194 -7 126 q 73 314 35 263 q 163 395 111 365 q 278 425 215 425 q 376 397 336 425 q 425 319 417 368 l 401 306 q 360 374 394 347 q 274 400 325 400 q 126 330 192 400 q 33 129 61 260 q 122 213 64 182 q 242 244 179 244 q 359 201 314 244 q 404 93 404 157 m 167 -93 q 245 -78 207 -93 q 313 -40 283 -64 q 360 17 342 -15 q 378 86 378 50 q 337 181 378 142 q 232 221 296 221 q 153 206 192 221 q 86 167 115 192 q 39 109 57 142 q 21 40 21 76 q 62 -54 21 -15 q 167 -93 103 -93 z "},"⁶":{"ha":526,"x_min":142,"x_max":574,"o":"m 553 793 q 533 712 553 750 q 478 644 513 674 q 400 599 444 615 q 308 582 356 582 q 188 626 233 582 q 142 750 142 671 q 163 894 142 826 q 222 1014 183 963 q 312 1095 260 1065 q 426 1125 364 1125 q 525 1097 485 1125 q 574 1019 565 1068 l 550 1006 q 508 1074 543 1047 q 422 1100 474 1100 q 275 1030 340 1100 q 182 829 210 960 q 270 913 213 882 q 390 944 328 944 q 508 901 463 944 q 553 793 553 857 m 315 607 q 394 622 356 607 q 461 660 432 636 q 508 717 490 685 q 526 786 526 750 q 485 881 526 842 q 381 921 444 921 q 302 906 340 921 q 235 867 264 892 q 188 809 206 842 q 169 740 169 776 q 210 646 169 685 q 315 607 251 607 z "}," ":{"ha":354,"x_min":0,"x_max":0,"o":""},"£":{"ha":619,"x_min":-6,"x_max":632,"o":"m 89 508 l 232 508 q 198 616 217 565 q 179 722 179 667 q 203 826 179 776 q 264 912 226 875 q 350 971 301 949 q 449 993 399 993 q 564 953 515 993 q 632 847 613 914 l 606 831 q 542 929 586 893 q 440 965 499 965 q 356 947 397 965 q 283 895 315 928 q 230 819 250 863 q 210 729 210 776 q 229 621 210 674 q 264 508 249 568 l 494 508 l 488 481 l 269 481 q 276 440 274 461 q 279 397 279 419 q 272 317 279 354 q 241 238 265 279 q 172 147 217 197 q 50 25 126 96 q 97 32 72 29 q 146 35 122 35 q 200 31 176 35 q 245 21 224 26 q 288 11 267 15 q 335 7 310 7 q 394 14 363 7 q 471 36 426 21 l 474 10 q 328 -21 396 -21 q 275 -17 299 -21 q 229 -7 251 -12 q 183 3 207 -1 q 131 7 160 7 q 67 2 103 7 q 3 -10 32 -3 l -6 14 q 133 146 82 93 q 210 239 183 199 q 243 314 236 279 q 250 393 250 349 q 239 481 250 436 l 83 481 l 89 508 z "},"t":{"ha":390,"x_min":67,"x_max":393,"o":"m 165 -7 q 94 17 122 -7 q 67 81 67 40 q 67 92 67 86 q 69 104 68 97 l 194 693 l 96 693 l 101 721 l 201 721 l 254 972 l 282 972 l 229 721 l 393 721 l 388 693 l 222 693 l 111 175 q 99 119 103 136 q 96 92 96 101 q 118 39 96 57 q 172 21 140 21 q 215 26 194 21 q 252 37 236 31 q 278 49 268 43 q 290 56 289 54 l 300 33 q 289 26 300 33 q 259 13 278 19 q 216 -1 240 6 q 165 -7 192 -7 z "},"ŧ":{"ha":393,"x_min":50,"x_max":394,"o":"m 56 499 l 154 499 l 196 693 l 97 693 l 103 721 l 201 721 l 256 972 l 283 972 l 229 721 l 394 721 l 389 693 l 224 693 l 182 499 l 347 499 l 342 471 l 175 471 l 110 161 q 101 119 104 136 q 97 90 97 101 q 119 38 97 56 q 174 21 142 21 q 217 26 196 21 q 253 37 238 31 q 280 49 269 43 q 292 56 290 54 l 301 33 q 289 26 300 32 q 260 12 278 19 q 217 -1 242 4 q 167 -7 193 -7 q 96 17 124 -7 q 68 81 68 40 q 69 92 68 86 q 71 104 69 97 l 149 471 l 50 471 l 56 499 z "},"ť":{"ha":390,"x_min":67,"x_max":519,"o":"m 165 -7 q 94 17 122 -7 q 67 81 67 40 q 67 92 67 86 q 69 104 68 97 l 194 693 l 96 693 l 101 721 l 201 721 l 254 972 l 282 972 l 229 721 l 393 721 l 388 693 l 222 693 l 111 175 q 99 119 103 136 q 96 92 96 101 q 118 39 96 57 q 172 21 140 21 q 215 26 194 21 q 252 37 236 31 q 278 49 268 43 q 290 56 289 54 l 300 33 q 289 26 300 33 q 259 13 278 19 q 216 -1 240 6 q 165 -7 192 -7 m 368 913 l 474 1014 l 519 1014 l 386 896 l 368 913 z "},"þ":{"ha":800,"x_min":-39,"x_max":735,"o":"m 233 986 l 261 986 l 169 553 q 317 682 239 632 q 488 732 396 732 q 596 708 550 732 q 673 644 642 683 q 719 553 704 604 q 735 446 735 501 q 705 285 735 367 q 621 136 675 203 q 492 28 567 69 q 328 -14 417 -14 q 173 32 233 -14 q 83 150 113 78 l -11 -296 l -39 -296 l 233 986 m 338 14 q 472 47 406 14 q 590 139 538 81 q 674 274 642 197 q 706 439 706 351 q 691 544 706 496 q 648 628 676 593 q 578 684 619 664 q 482 704 536 704 q 388 688 433 704 q 301 642 342 671 q 223 576 260 614 q 157 494 186 538 l 101 235 q 99 222 99 226 q 99 214 99 217 q 119 135 99 172 q 172 72 139 99 q 249 29 206 44 q 338 14 292 14 z "},"⅜":{"ha":1051,"x_min":58,"x_max":1019,"o":"m 58 15 l 1001 988 l 1019 971 l 76 -1 l 58 15 m 708 -6 q 586 33 629 -6 q 543 125 543 72 q 558 182 543 156 q 595 229 572 208 q 647 264 618 250 q 704 286 676 278 q 644 324 668 299 q 619 386 619 350 q 638 448 619 421 q 687 494 657 475 q 753 522 717 513 q 825 532 789 532 q 881 525 854 532 q 929 504 908 518 q 963 469 950 490 q 975 422 975 449 q 963 376 975 397 q 933 337 951 354 q 889 307 914 319 q 838 286 864 294 q 912 241 883 272 q 940 165 940 210 q 920 95 940 126 q 868 42 900 64 q 794 7 836 19 q 708 -6 751 -6 m 717 19 q 785 29 750 19 q 849 58 819 39 q 896 103 878 76 q 914 163 914 129 q 901 209 914 189 q 868 244 889 229 q 821 266 847 258 q 768 274 794 274 q 700 263 735 274 q 636 233 665 253 q 589 187 607 214 q 571 128 571 160 q 583 83 571 103 q 617 49 596 63 q 664 27 638 35 q 717 19 690 19 m 774 297 q 832 306 801 297 q 888 329 863 314 q 931 367 914 344 q 947 417 947 389 q 908 483 947 460 q 818 507 869 507 q 756 499 786 507 q 701 474 725 490 q 663 436 678 458 q 647 388 647 414 q 658 349 647 367 q 688 321 669 332 q 728 303 706 310 q 774 297 750 297 m 267 469 q 210 477 240 469 q 156 501 181 485 q 115 542 131 517 q 99 603 99 567 l 122 613 q 162 530 122 564 q 272 496 201 496 q 347 506 311 496 q 408 535 382 517 q 451 577 435 553 q 467 631 467 601 q 420 707 467 679 q 294 735 374 735 l 265 735 l 271 760 l 300 760 q 451 792 397 760 q 504 885 504 824 q 467 961 504 932 q 367 990 429 990 q 264 967 311 990 q 193 907 217 943 l 176 924 q 258 990 204 965 q 372 1015 311 1015 q 490 979 446 1015 q 533 889 533 943 q 497 799 533 836 q 388 747 461 763 q 466 706 438 738 q 494 633 494 675 q 476 567 494 597 q 426 516 457 538 q 353 482 394 494 q 267 469 311 469 z "},"³":{"ha":504,"x_min":117,"x_max":551,"o":"m 285 581 q 159 618 201 581 q 117 714 117 656 l 140 724 q 180 637 140 667 q 290 607 219 607 q 365 617 329 607 q 426 646 400 628 q 469 688 453 664 q 485 742 485 713 q 439 818 485 790 q 313 846 393 846 l 283 846 l 289 871 l 318 871 q 469 903 415 871 q 522 996 522 935 q 485 1072 522 1043 q 385 1101 447 1101 q 282 1078 329 1101 q 211 1018 235 1054 l 194 1035 q 276 1101 222 1076 q 390 1126 329 1126 q 508 1090 464 1126 q 551 1000 551 1054 q 515 910 551 947 q 406 858 479 874 q 484 817 456 849 q 513 744 513 786 q 494 678 513 708 q 444 627 475 649 q 371 593 413 606 q 285 581 329 581 z "},"¾":{"ha":1013,"x_min":92,"x_max":1053,"o":"m 92 15 l 1035 988 l 1053 971 l 110 -1 l 92 15 m 794 153 l 488 153 l 493 176 l 883 532 l 903 532 l 828 179 l 900 179 l 894 153 l 822 153 l 789 0 l 763 0 l 794 153 m 800 179 l 865 483 l 531 179 l 800 179 m 263 469 q 206 477 236 469 q 151 501 176 485 q 110 542 126 517 q 94 603 94 567 l 118 613 q 158 530 118 564 q 268 496 197 496 q 342 506 307 496 q 404 535 378 517 q 447 577 431 553 q 463 631 463 601 q 416 707 463 679 q 290 735 369 735 l 261 735 l 267 760 l 296 760 q 447 792 393 760 q 500 885 500 824 q 463 961 500 932 q 363 990 425 990 q 260 967 307 990 q 189 907 213 943 l 172 924 q 253 990 200 965 q 368 1015 307 1015 q 485 979 442 1015 q 529 889 529 943 q 493 799 529 836 q 383 747 457 763 q 462 706 433 738 q 490 633 490 675 q 472 567 490 597 q 422 516 453 538 q 349 482 390 494 q 263 469 307 469 z "},"™":{"ha":863,"x_min":192,"x_max":871,"o":"m 469 961 l 344 961 l 268 601 l 240 601 l 317 961 l 192 961 l 197 989 l 475 989 l 469 961 m 536 986 l 565 986 l 640 696 l 840 986 l 871 986 l 789 601 l 763 601 l 832 933 l 646 660 l 622 660 l 551 933 l 481 601 l 454 601 l 536 986 z "},"²":{"ha":492,"x_min":93,"x_max":554,"o":"m 93 588 q 170 744 115 690 q 307 828 225 799 q 381 853 342 840 q 451 883 419 865 q 504 928 483 901 q 525 997 525 956 q 496 1069 525 1038 q 400 1100 467 1100 q 334 1091 364 1100 q 281 1069 304 1082 q 240 1042 257 1057 q 211 1017 222 1028 l 194 1033 q 212 1051 196 1036 q 256 1082 228 1065 q 322 1113 283 1099 q 408 1126 360 1126 q 519 1090 485 1126 q 554 1003 554 1053 q 531 920 554 953 q 472 867 507 888 q 397 833 436 846 q 324 810 357 821 q 233 765 268 790 q 176 714 197 740 q 147 661 156 688 q 133 614 138 635 l 475 614 l 469 588 l 93 588 z "},"⅔":{"ha":1068,"x_min":75,"x_max":1049,"o":"m 88 15 l 1031 988 l 1049 971 l 106 -1 l 88 15 m 725 -7 q 669 1 699 -7 q 614 24 639 8 q 573 65 589 40 q 557 126 557 90 l 581 136 q 620 53 581 88 q 731 19 660 19 q 805 30 769 19 q 867 58 840 40 q 909 101 893 76 q 925 154 925 125 q 879 231 925 203 q 753 258 833 258 l 724 258 l 729 283 l 758 283 q 908 315 854 283 q 963 408 963 347 q 925 485 963 456 q 825 514 888 514 q 722 490 769 514 q 651 431 675 467 l 635 447 q 716 514 663 489 q 831 539 769 539 q 948 503 904 539 q 992 413 992 467 q 956 323 992 360 q 846 271 919 286 q 924 230 896 261 q 953 157 953 199 q 934 91 953 121 q 884 40 915 61 q 811 6 853 18 q 725 -7 769 -7 m 75 476 q 152 633 97 579 q 289 717 207 688 q 363 742 324 729 q 433 772 401 754 q 486 817 465 790 q 507 886 507 844 q 478 958 507 926 q 382 989 449 989 q 316 980 346 989 q 263 958 286 971 q 222 931 239 946 q 193 906 204 917 l 176 922 q 194 940 178 925 q 238 971 210 954 q 303 1001 265 988 q 390 1015 342 1015 q 502 978 468 1015 q 536 892 536 942 q 513 809 536 842 q 453 756 489 776 q 378 722 418 735 q 306 699 339 710 q 215 654 250 679 q 158 603 179 629 q 128 550 138 576 q 115 503 119 524 l 457 503 l 451 476 l 75 476 z "},"u":{"ha":765,"x_min":65,"x_max":714,"o":"m 232 -14 q 65 179 65 -14 q 82 317 65 239 l 168 721 l 196 721 l 110 317 q 93 182 93 239 q 239 14 93 14 q 340 33 289 14 q 437 84 390 51 q 523 163 483 117 q 589 263 563 208 l 686 721 l 714 721 l 581 93 q 574 64 578 78 q 571 47 571 50 q 589 28 571 28 l 582 0 q 544 42 544 0 q 545 49 544 43 q 549 69 546 54 q 557 110 551 83 q 572 183 563 138 q 501 101 540 138 q 417 40 461 65 q 325 0 372 14 q 232 -14 278 -14 z "},"ú":{"ha":765,"x_min":65,"x_max":714,"o":"m 232 -14 q 65 179 65 -14 q 82 317 65 239 l 168 721 l 196 721 l 110 317 q 93 182 93 239 q 239 14 93 14 q 340 33 289 14 q 437 84 390 51 q 523 163 483 117 q 589 263 563 208 l 686 721 l 714 721 l 581 93 q 574 64 578 78 q 571 47 571 50 q 589 28 571 28 l 582 0 q 565 3 574 0 q 544 40 544 11 q 545 46 544 42 q 548 64 546 50 q 556 106 550 78 q 572 183 561 133 q 501 101 540 138 q 417 40 461 65 q 325 0 372 14 q 232 -14 278 -14 m 438 896 l 419 913 l 525 1014 l 571 1014 l 438 896 z "},"ŭ":{"ha":765,"x_min":65,"x_max":714,"o":"m 232 -14 q 65 179 65 -14 q 82 317 65 239 l 168 721 l 196 721 l 110 317 q 93 182 93 239 q 239 14 93 14 q 340 33 289 14 q 437 84 390 51 q 523 163 483 117 q 589 263 563 208 l 686 721 l 714 721 l 581 93 q 574 64 578 78 q 571 47 571 50 q 589 28 571 28 l 582 0 q 565 3 574 0 q 544 40 544 11 q 545 46 544 42 q 548 64 546 50 q 556 106 550 78 q 572 183 561 133 q 501 101 540 138 q 417 40 461 65 q 325 0 372 14 q 232 -14 278 -14 m 461 931 q 515 955 489 931 q 553 1014 542 979 l 578 1014 q 561 974 574 993 q 532 940 549 954 q 496 916 515 925 q 457 907 476 907 q 400 932 422 907 q 378 993 378 957 q 381 1014 378 1000 l 407 1014 q 406 999 406 1008 q 422 951 406 971 q 461 931 438 931 z "},"û":{"ha":765,"x_min":65,"x_max":714,"o":"m 232 -14 q 65 179 65 -14 q 82 317 65 239 l 168 721 l 196 721 l 110 317 q 93 182 93 239 q 239 14 93 14 q 340 33 289 14 q 437 84 390 51 q 523 163 483 117 q 589 263 563 208 l 686 721 l 714 721 l 581 93 q 574 64 578 78 q 571 47 571 50 q 589 28 571 28 l 582 0 q 565 3 574 0 q 544 40 544 11 q 545 46 544 42 q 548 64 546 50 q 556 106 550 78 q 572 183 561 133 q 501 101 540 138 q 417 40 461 65 q 325 0 372 14 q 232 -14 278 -14 m 340 911 l 485 1014 l 507 1014 l 608 911 l 583 894 l 489 982 l 358 894 l 340 911 z "},"ü":{"ha":765,"x_min":65,"x_max":714,"o":"m 232 -14 q 65 179 65 -14 q 82 317 65 239 l 168 721 l 196 721 l 110 317 q 93 182 93 239 q 239 14 93 14 q 340 33 289 14 q 437 84 390 51 q 523 163 483 117 q 589 263 563 208 l 686 721 l 714 721 l 581 93 q 574 64 578 78 q 571 47 571 50 q 589 28 571 28 l 582 0 q 565 3 574 0 q 544 40 544 11 q 545 46 544 42 q 548 64 546 50 q 556 106 550 78 q 572 183 561 133 q 501 101 540 138 q 417 40 461 65 q 325 0 372 14 q 232 -14 278 -14 m 381 907 l 403 1014 l 431 1014 l 408 907 l 381 907 m 535 907 l 557 1014 l 585 1014 l 563 907 l 535 907 z "},"ù":{"ha":765,"x_min":65,"x_max":714,"o":"m 232 -14 q 65 179 65 -14 q 82 317 65 239 l 168 721 l 196 721 l 110 317 q 93 182 93 239 q 239 14 93 14 q 340 33 289 14 q 437 84 390 51 q 523 163 483 117 q 589 263 563 208 l 686 721 l 714 721 l 581 93 q 574 64 578 78 q 571 47 571 50 q 589 28 571 28 l 582 0 q 544 42 544 0 q 545 49 544 43 q 549 69 546 54 q 557 110 551 83 q 572 183 563 138 q 501 101 540 138 q 417 40 461 65 q 325 0 372 14 q 232 -14 278 -14 m 382 1014 l 426 1014 l 490 913 l 465 896 l 382 1014 z "},"ű":{"ha":765,"x_min":65,"x_max":714,"o":"m 232 -14 q 65 179 65 -14 q 82 317 65 239 l 168 721 l 196 721 l 110 317 q 93 182 93 239 q 239 14 93 14 q 340 33 289 14 q 437 84 390 51 q 523 163 483 117 q 589 263 563 208 l 686 721 l 714 721 l 581 93 q 574 64 578 78 q 571 47 571 50 q 589 28 571 28 l 582 0 q 565 3 574 0 q 544 40 544 11 q 545 46 544 42 q 548 64 546 50 q 556 106 550 78 q 572 183 561 133 q 501 101 540 138 q 417 40 461 65 q 325 0 372 14 q 232 -14 278 -14 m 357 896 l 339 913 l 444 1014 l 490 1014 l 357 896 m 490 896 l 472 913 l 578 1014 l 624 1014 l 490 896 z "},"ū":{"ha":765,"x_min":65,"x_max":714,"o":"m 232 -14 q 65 179 65 -14 q 82 317 65 239 l 168 721 l 196 721 l 110 317 q 93 182 93 239 q 239 14 93 14 q 340 33 289 14 q 437 84 390 51 q 523 163 483 117 q 589 263 563 208 l 686 721 l 714 721 l 581 93 q 574 64 578 78 q 571 47 571 50 q 589 28 571 28 l 582 0 q 565 3 574 0 q 544 40 544 11 q 545 46 544 42 q 548 64 546 50 q 556 106 550 78 q 572 183 561 133 q 501 101 540 138 q 417 40 461 65 q 325 0 372 14 q 232 -14 278 -14 m 289 953 l 294 981 l 664 981 l 658 953 l 289 953 z "},"_":{"ha":713,"x_min":-1,"x_max":522,"o":"m -1 -28 l 4 0 l 522 0 l 517 -28 l -1 -28 z "}," ":{"ha":354,"x_min":0,"x_max":0,"o":""},"­":{"ha":721,"x_min":82,"x_max":621,"o":"m 82 363 l 88 390 l 621 390 l 615 363 l 82 363 z "},"Ş":{"ha":807,"x_min":1,"x_max":794,"o":"m 208 -174 q 256 -191 228 -183 q 318 -199 285 -199 q 408 -133 408 -199 q 393 -102 408 -111 q 354 -93 378 -93 q 294 -101 326 -93 q 243 -115 263 -108 l 325 -7 q 138 32 215 -4 q 1 146 60 68 l 25 164 q 156 51 81 86 q 340 17 232 17 q 486 34 421 17 q 597 85 551 51 q 668 167 643 118 q 693 282 693 217 q 676 355 693 324 q 626 409 660 386 q 543 449 593 432 q 426 481 493 465 q 310 510 361 494 q 223 547 258 525 q 169 602 188 569 q 150 682 150 635 q 178 812 150 754 q 259 910 207 869 q 383 972 311 950 q 540 993 454 993 q 692 966 631 993 q 794 875 753 939 l 772 856 q 676 944 731 921 q 538 967 621 967 q 374 945 442 967 q 263 885 306 924 q 199 797 219 847 q 179 688 179 746 q 194 619 179 647 q 241 572 210 592 q 320 536 272 551 q 432 507 368 521 q 551 475 497 492 q 642 434 604 458 q 701 374 681 410 q 722 289 722 339 q 697 168 722 222 q 623 76 671 114 q 508 17 575 39 q 357 -7 440 -4 l 301 -79 q 333 -72 317 -74 q 360 -71 349 -71 q 435 -129 435 -71 q 401 -201 435 -178 q 308 -225 367 -225 q 244 -217 274 -225 q 190 -199 214 -210 l 208 -174 z "},"ş":{"ha":625,"x_min":-17,"x_max":592,"o":"m 85 -181 q 133 -198 104 -190 q 194 -206 161 -206 q 285 -140 285 -206 q 269 -109 285 -118 q 231 -100 254 -100 q 171 -108 203 -100 q 119 -122 139 -115 l 201 -12 q 74 18 129 -10 q -17 103 19 46 l 7 121 q 101 40 49 67 q 226 14 153 14 q 332 28 283 14 q 417 69 381 43 q 474 132 453 94 q 494 215 494 169 q 481 267 494 246 q 440 304 467 289 q 376 332 414 319 q 289 357 338 344 q 208 379 243 368 q 149 405 174 390 q 113 441 125 419 q 100 494 100 463 q 124 599 100 554 q 190 674 149 644 q 283 717 231 703 q 390 732 335 732 q 526 702 474 732 q 592 628 578 672 l 565 617 q 497 682 550 660 q 379 704 444 704 q 285 692 331 704 q 206 656 240 681 q 150 592 171 631 q 129 503 129 554 q 140 458 129 476 q 171 428 150 440 q 223 406 192 415 q 296 385 254 396 q 390 358 347 371 q 462 328 432 346 q 508 285 492 310 q 524 225 524 261 q 501 131 524 174 q 441 56 479 88 q 349 6 403 25 q 233 -14 296 -12 l 178 -86 q 209 -79 193 -81 q 236 -78 225 -78 q 311 -136 311 -78 q 277 -208 311 -185 q 185 -232 243 -232 q 120 -224 150 -232 q 67 -206 90 -217 l 85 -181 z "},"Ţ":{"ha":796,"x_min":135,"x_max":885,"o":"m 163 -174 q 210 -191 182 -183 q 272 -199 239 -199 q 363 -133 363 -199 q 347 -102 363 -111 q 308 -93 332 -93 q 249 -101 281 -93 q 197 -115 217 -108 l 290 8 l 493 958 l 135 958 l 140 986 l 885 986 l 879 958 l 521 958 l 317 0 l 256 -79 q 287 -72 271 -74 q 314 -71 303 -71 q 389 -129 389 -71 q 355 -201 389 -178 q 263 -225 321 -225 q 198 -217 228 -225 q 144 -199 168 -210 l 163 -174 z "},"ţ":{"ha":390,"x_min":11,"x_max":393,"o":"m 29 -174 q 77 -191 49 -183 q 139 -199 106 -199 q 229 -133 229 -199 q 214 -102 229 -111 q 175 -93 199 -93 q 115 -101 147 -93 q 64 -115 83 -108 l 146 -6 q 88 22 110 0 q 67 81 67 44 q 67 92 67 86 q 69 104 68 97 l 194 693 l 96 693 l 101 721 l 201 721 l 254 972 l 282 972 l 229 721 l 393 721 l 388 693 l 222 693 l 111 175 q 99 119 103 136 q 96 92 96 101 q 118 39 96 57 q 172 21 140 21 q 215 26 194 21 q 252 37 236 31 q 278 49 268 43 q 290 56 289 54 l 300 33 q 290 27 300 33 q 264 14 281 21 q 225 1 247 7 q 178 -7 203 -6 l 122 -79 q 153 -72 138 -74 q 181 -71 169 -71 q 256 -129 256 -71 q 222 -201 256 -178 q 129 -225 188 -225 q 65 -217 94 -225 q 11 -199 35 -210 l 29 -174 z "},"Ș":{"ha":804,"x_min":-1,"x_max":792,"o":"m 331 -7 q 138 30 218 -7 q -1 146 57 67 l 22 164 q 153 51 78 86 q 338 17 229 17 q 483 34 418 17 q 594 85 549 51 q 665 167 640 118 q 690 282 690 217 q 674 355 690 324 q 624 409 657 386 q 540 449 590 432 q 424 481 490 465 q 307 510 358 494 q 220 547 256 525 q 166 602 185 569 q 147 682 147 635 q 176 812 147 754 q 256 910 204 869 q 380 972 308 950 q 538 993 451 993 q 689 966 628 993 q 792 875 750 939 l 769 856 q 673 944 728 921 q 535 967 618 967 q 371 945 439 967 q 260 885 303 924 q 197 797 217 847 q 176 688 176 746 q 192 619 176 647 q 238 572 207 592 q 317 536 269 551 q 429 507 365 521 q 548 475 494 492 q 640 434 601 458 q 699 374 678 410 q 719 289 719 339 q 692 165 719 219 q 613 72 664 110 q 490 13 563 33 q 331 -7 418 -7 m 263 -232 l 293 -151 l 281 -151 l 299 -69 l 333 -69 l 317 -151 l 282 -232 l 263 -232 z "},"ș":{"ha":625,"x_min":-17,"x_max":592,"o":"m 221 -14 q 82 15 142 -14 q -17 103 22 43 l 7 121 q 101 40 49 67 q 226 14 153 14 q 332 28 283 14 q 417 69 381 43 q 474 132 453 94 q 494 215 494 169 q 481 267 494 246 q 440 304 467 289 q 376 332 414 319 q 289 357 338 344 q 208 379 243 368 q 149 405 174 390 q 113 441 125 419 q 100 494 100 463 q 124 599 100 554 q 190 674 149 644 q 283 717 231 703 q 390 732 335 732 q 526 702 474 732 q 592 628 578 672 l 565 617 q 497 682 550 660 q 379 704 444 704 q 285 692 331 704 q 206 656 240 681 q 150 592 171 631 q 129 503 129 554 q 140 458 129 476 q 171 428 150 440 q 223 406 192 415 q 296 385 254 396 q 390 358 347 371 q 462 328 432 346 q 508 285 492 310 q 524 225 524 261 q 501 128 524 172 q 438 53 478 85 q 342 3 397 21 q 221 -14 286 -14 m 165 -232 l 196 -151 l 183 -151 l 201 -69 l 236 -69 l 219 -151 l 185 -232 l 165 -232 z "},"Ț":{"ha":797,"x_min":136,"x_max":886,"o":"m 494 958 l 136 958 l 142 986 l 886 986 l 881 958 l 522 958 l 318 0 l 290 0 l 494 958 m 233 -232 l 264 -151 l 251 -151 l 269 -69 l 304 -69 l 288 -151 l 253 -232 l 233 -232 z "},"ț":{"ha":390,"x_min":67,"x_max":393,"o":"m 165 -7 q 94 17 122 -7 q 67 81 67 40 q 67 92 67 86 q 69 104 68 97 l 194 693 l 96 693 l 101 721 l 201 721 l 254 972 l 282 972 l 229 721 l 393 721 l 388 693 l 222 693 l 111 175 q 99 119 103 136 q 96 92 96 101 q 118 39 96 57 q 172 21 140 21 q 215 26 194 21 q 252 37 236 31 q 278 49 268 43 q 290 56 289 54 l 300 33 q 289 26 300 33 q 259 13 278 19 q 216 -1 240 6 q 165 -7 192 -7 m 96 -232 l 126 -151 l 114 -151 l 132 -69 l 167 -69 l 150 -151 l 115 -232 l 96 -232 z "},"μ":{"ha":774,"x_min":-39,"x_max":724,"o":"m 176 721 l 206 721 l 119 317 q 103 182 103 239 q 247 14 103 14 q 348 33 297 14 q 445 84 399 51 q 531 163 492 117 q 597 263 571 208 l 694 721 l 724 721 l 582 56 q 581 46 581 54 q 597 28 581 28 l 590 0 q 553 42 553 0 q 554 56 553 53 l 582 183 q 510 101 550 138 q 425 40 469 65 q 334 0 381 14 q 242 -14 288 -14 q 79 131 99 -14 l -11 -294 l -39 -294 l 176 721 z "},"∕":{"ha":753,"x_min":-87,"x_max":874,"o":"m -87 15 l 856 988 l 874 971 l -69 -1 l -87 15 z "},"∙":{"ha":215,"x_min":78,"x_max":129,"o":"m 78 347 l 103 463 l 129 463 l 106 347 l 78 347 z "},"ų":{"ha":765,"x_min":65,"x_max":714,"o":"m 469 -221 q 430 -195 443 -214 q 417 -153 417 -176 q 447 -78 417 -115 q 554 10 476 -40 q 544 42 544 19 q 545 49 544 43 q 549 69 546 54 q 557 110 551 83 q 572 183 563 138 q 501 101 540 138 q 417 40 461 65 q 325 0 372 14 q 232 -14 278 -14 q 65 179 65 -14 q 82 317 65 239 l 168 721 l 196 721 l 110 317 q 93 182 93 239 q 239 14 93 14 q 340 33 289 14 q 437 84 390 51 q 523 163 483 117 q 589 263 563 208 l 686 721 l 714 721 l 581 93 q 574 64 578 78 q 571 47 571 50 q 589 28 571 28 l 582 0 q 515 -45 542 -25 q 472 -82 488 -65 q 451 -114 457 -99 q 444 -146 444 -129 q 492 -197 444 -187 l 469 -221 z "},"ů":{"ha":765,"x_min":65,"x_max":714,"o":"m 232 -14 q 65 179 65 -14 q 82 317 65 239 l 168 721 l 196 721 l 110 317 q 93 182 93 239 q 239 14 93 14 q 340 33 289 14 q 437 84 390 51 q 523 163 483 117 q 589 263 563 208 l 686 721 l 714 721 l 581 93 q 574 64 578 78 q 571 47 571 50 q 589 28 571 28 l 582 0 q 565 3 574 0 q 544 40 544 11 q 545 46 544 42 q 548 64 546 50 q 556 106 550 78 q 572 183 561 133 q 501 101 540 138 q 417 40 461 65 q 325 0 372 14 q 232 -14 278 -14 m 397 919 q 405 956 397 939 q 426 986 413 974 q 456 1006 439 999 q 492 1014 474 1014 q 535 996 519 1014 q 551 950 551 978 q 544 913 551 931 q 523 883 536 896 q 492 863 510 871 q 457 856 475 856 q 413 874 429 856 q 397 919 397 892 m 486 992 q 440 973 461 992 q 419 924 419 954 q 431 891 419 904 q 463 878 443 878 q 508 897 485 878 q 531 946 531 917 q 518 979 531 967 q 486 992 506 992 z "},"ũ":{"ha":765,"x_min":65,"x_max":714,"o":"m 232 -14 q 65 179 65 -14 q 82 317 65 239 l 168 721 l 196 721 l 110 317 q 93 182 93 239 q 239 14 93 14 q 340 33 289 14 q 437 84 390 51 q 523 163 483 117 q 589 263 563 208 l 686 721 l 714 721 l 581 93 q 574 64 578 78 q 571 47 571 50 q 589 28 571 28 l 582 0 q 565 3 574 0 q 544 40 544 11 q 545 46 544 42 q 548 64 546 50 q 556 106 550 78 q 572 183 561 133 q 501 101 540 138 q 417 40 461 65 q 325 0 372 14 q 232 -14 278 -14 m 550 921 q 501 929 521 921 q 464 947 481 938 q 432 965 447 957 q 396 974 417 974 q 360 965 375 974 q 335 944 344 956 q 320 921 325 932 q 314 907 315 910 l 288 907 q 294 925 288 910 q 313 957 300 940 q 349 987 326 974 q 404 1000 371 1000 q 447 992 429 1000 q 481 974 465 983 q 515 956 497 964 q 558 947 533 947 q 603 957 585 947 q 631 978 621 967 q 646 1001 642 990 q 650 1014 650 1011 l 676 1014 q 669 994 675 1010 q 648 963 663 979 q 610 933 633 946 q 550 921 586 921 z "},"v":{"ha":626,"x_min":89,"x_max":626,"o":"m 89 721 l 118 721 l 226 39 q 352 203 294 115 q 456 380 410 290 q 538 556 503 469 q 599 721 574 643 l 626 721 q 475 356 569 539 q 229 0 381 172 l 204 0 l 89 721 z "},"w":{"ha":1004,"x_min":85,"x_max":1011,"o":"m 85 721 l 114 721 l 236 39 q 382 226 317 126 q 499 425 447 325 l 446 721 l 475 721 l 519 468 q 577 599 551 535 q 622 721 603 663 l 650 721 q 596 571 626 646 q 528 421 565 496 l 597 39 q 728 203 668 115 q 836 380 788 290 q 922 556 885 469 q 983 721 958 643 l 1011 721 q 855 356 953 539 q 600 0 757 172 l 575 0 l 507 379 q 388 187 454 282 q 239 0 322 92 l 214 0 l 85 721 z "},"ẃ":{"ha":1004,"x_min":85,"x_max":1011,"o":"m 85 721 l 114 721 l 236 39 q 382 226 317 126 q 499 425 447 325 l 446 721 l 475 721 l 519 468 q 577 599 551 535 q 622 721 603 663 l 650 721 q 596 571 626 646 q 528 421 565 496 l 597 39 q 728 203 668 115 q 836 380 788 290 q 922 556 885 469 q 983 721 958 643 l 1011 721 q 855 356 953 539 q 600 0 757 172 l 575 0 l 507 379 q 388 187 454 282 q 239 0 322 92 l 214 0 l 85 721 m 578 896 l 560 913 l 665 1014 l 711 1014 l 578 896 z "},"ŵ":{"ha":1004,"x_min":85,"x_max":1011,"o":"m 85 721 l 114 721 l 236 39 q 382 226 317 126 q 499 425 447 325 l 446 721 l 475 721 l 519 468 q 577 599 551 535 q 622 721 603 663 l 650 721 q 596 571 626 646 q 528 421 565 496 l 597 39 q 728 203 668 115 q 836 380 788 290 q 922 556 885 469 q 983 721 958 643 l 1011 721 q 855 356 953 539 q 600 0 757 172 l 575 0 l 507 379 q 388 187 454 282 q 239 0 322 92 l 214 0 l 85 721 m 479 911 l 624 1014 l 646 1014 l 747 911 l 722 894 l 628 982 l 497 894 l 479 911 z "},"ẅ":{"ha":1004,"x_min":85,"x_max":1011,"o":"m 85 721 l 114 721 l 236 39 q 382 226 317 126 q 499 425 447 325 l 446 721 l 475 721 l 519 468 q 577 599 551 535 q 622 721 603 663 l 650 721 q 596 571 626 646 q 528 421 565 496 l 597 39 q 728 203 668 115 q 836 380 788 290 q 922 556 885 469 q 983 721 958 643 l 1011 721 q 855 356 953 539 q 600 0 757 172 l 575 0 l 507 379 q 388 187 454 282 q 239 0 322 92 l 214 0 l 85 721 m 504 907 l 526 1014 l 554 1014 l 532 907 l 504 907 m 658 907 l 681 1014 l 708 1014 l 686 907 l 658 907 z "},"ẁ":{"ha":1004,"x_min":85,"x_max":1011,"o":"m 85 721 l 114 721 l 236 39 q 382 226 317 126 q 499 425 447 325 l 446 721 l 475 721 l 519 468 q 577 599 551 535 q 622 721 603 663 l 650 721 q 596 571 626 646 q 528 421 565 496 l 597 39 q 728 203 668 115 q 836 380 788 290 q 922 556 885 469 q 983 721 958 643 l 1011 721 q 855 356 953 539 q 600 0 757 172 l 575 0 l 507 379 q 388 187 454 282 q 239 0 322 92 l 214 0 l 85 721 m 550 1014 l 594 1014 l 658 913 l 633 896 l 550 1014 z "},"x":{"ha":633,"x_min":-61,"x_max":674,"o":"m 286 358 l 89 721 l 125 721 l 301 396 l 308 379 l 638 721 l 674 721 l 322 358 l 518 0 l 482 0 l 307 322 l 300 339 l -25 0 l -61 0 l 286 358 z "}}}
